<?xml version="1.0" standalone="no"?>
<!DOCTYPE svg PUBLIC "-//W3C//DTD SVG 1.1//EN" "http://www.w3.org/Graphics/SVG/1.1/DTD/svg11.dtd" >
<svg xmlns="http://www.w3.org/2000/svg">
<metadata></metadata>
<defs>
<font id="pf_centro_sans_problack" horiz-adv-x="1321" >
<font-face units-per-em="2048" ascent="1536" descent="-512" />
<missing-glyph horiz-adv-x="667" />
<glyph unicode="&#xfb01;" horiz-adv-x="1494" d="M56 802v224l155 47v80q0 73 11 133t44.5 122t88.5 104.5t148.5 69.5t218.5 27q272 -7 478 -65q-44 -267 -51 -288q-219 34 -332 34q-106 0 -157 -37t-51 -131v-57h739l2 -1065h-410l-2 802h-329q0 -131 -1 -400.5t-1 -401.5h-400l2 802h-153z" />
<glyph unicode="&#xfb02;" horiz-adv-x="1515" d="M54 802v222q22 7 74.5 22.5t80.5 24.5v49q0 85 14 154.5t50 131.5t92.5 104t146.5 66t208 24q152 0 321 -30l331 32q0 -266 -1 -800.5t-1 -801.5h-411q0 211 1 635t1 638q-102 11 -146 11q-92 0 -149 -40t-57 -128v-53h247v-261h-247q0 -132 -1 -401.5t-1 -400.5h-402 q0 133 1 401t1 401h-153z" />
<glyph horiz-adv-x="2048" />
<glyph horiz-adv-x="2048" />
<glyph unicode="&#xd;" horiz-adv-x="716" />
<glyph unicode=" "  horiz-adv-x="667" />
<glyph unicode="&#x09;" horiz-adv-x="667" />
<glyph unicode="&#xa0;" horiz-adv-x="667" />
<glyph unicode="!" horiz-adv-x="704" d="M150 160q0 82 49.5 130t149.5 48t150.5 -48t50.5 -130q0 -80 -51 -128.5t-150 -48.5t-149 48.5t-50 128.5zM158 1531h380v-520l-37 -553h-308l-33 553z" />
<glyph unicode="&#x22;" horiz-adv-x="936" d="M125 1488h318l-47 -585h-226zM505 1488h318l-47 -585h-226z" />
<glyph unicode="#" horiz-adv-x="1305" d="M131 426l4 181h198l54 216h-182l4 175h221l95 387h206l-93 -387h187l98 387h204l-91 -387h164l-2 -175h-207l-53 -216h184l-2 -181h-219l-103 -426h-209l99 426h-187l-103 -426h-209l101 426h-159zM544 607h187l54 216h-190z" />
<glyph unicode="$" d="M117 1030q0 173 105.5 283t280.5 136v153h112v-1764h-112v177q-226 23 -382 96l84 257q91 -30 152.5 -44.5t97 -20t48.5 -8.5v331q-386 117 -386 404zM404 1051q0 -92 99 -115v236q-47 -10 -73 -41.5t-26 -79.5zM684 -162v1764h114v-151q196 -20 314 -79 q-41 -138 -65 -243q-128 43 -249 55v-320q67 -21 119 -41.5t112.5 -56t100 -77.5t65.5 -104t26 -136q0 -176 -113.5 -285t-309.5 -143v-183h-114zM798 293q109 21 109 128q0 87 -109 125v-253z" />
<glyph unicode="%" horiz-adv-x="2085" d="M78 1002q0 75 12.5 138.5t42.5 122t76 99t118 64t163 23.5q115 0 197 -35.5t127 -100.5t65 -141t20 -170t-22 -171.5t-69 -140.5t-127.5 -98.5t-190.5 -35.5q-113 0 -195.5 35t-128.5 98t-67 140t-21 173zM361 1002q0 -118 28 -178.5t101 -60.5q48 0 76 33.5t37.5 83 t9.5 122.5q0 40 -2.5 72t-10.5 65.5t-21 55.5t-35.5 36t-53.5 14q-129 0 -129 -243zM568 -41l714 1576h240l-714 -1576h-240zM1184 428q0 76 13 140t43 122t76.5 98t118.5 64t163 24q115 0 196.5 -36t127 -100t65.5 -140.5t20 -171.5q0 -93 -22.5 -170.5t-69 -140.5 t-127.5 -98.5t-190 -35.5q-114 0 -196.5 34.5t-129 97t-67.5 140t-21 173.5zM1469 428q0 -117 28 -178t101 -61q47 0 75 33t37.5 83t9.5 123q0 52 -5 90t-17 75.5t-37 57.5t-63 20q-129 0 -129 -243z" />
<glyph unicode="&#x26;" horiz-adv-x="1806" d="M117 419q0 132 77.5 253t242.5 210q-93 136 -93 277q0 44 10.5 89.5t39 94.5t71.5 86.5t115 62t162 24.5q100 0 178.5 -23.5t122.5 -59t72.5 -83t38 -88t9.5 -80.5q0 -51 -17 -100t-44 -86.5t-66.5 -75t-75.5 -63t-80 -53.5q155 -201 290 -338q70 67 113 170t71 282h298 q-10 -209 -69 -360t-190 -289q158 -129 297 -195q-15 -28 -64.5 -107.5t-74.5 -124.5q-94 40 -204 107.5t-196 136.5q-202 -119 -472 -119q-162 0 -287.5 49t-200 153t-74.5 250zM484 445q0 -97 69.5 -147t179.5 -50q84 0 176 45q-138 143 -296 352q-58 -38 -93.5 -90 t-35.5 -110zM665 1176q0 -63 62 -161q65 39 103 77.5t38 87.5q0 46 -29 72t-80 26q-42 0 -68 -31.5t-26 -70.5z" />
<glyph unicode="'" horiz-adv-x="591" d="M133 1488h319l-48 -585h-226z" />
<glyph unicode="(" horiz-adv-x="792" d="M138 593q0 265 108.5 511.5t282.5 428.5l175 -109q-37 -54 -71.5 -118.5t-75.5 -168t-66 -242.5t-25 -291q0 -136 18 -261.5t43 -213.5t60 -167.5t61.5 -124.5t55.5 -82l-171 -114q-178 183 -286.5 428.5t-108.5 523.5z" />
<glyph unicode=")" horiz-adv-x="794" d="M92 1424l177 109q174 -183 282.5 -428.5t108.5 -511.5q0 -276 -109 -521.5t-289 -428.5l-168 112q37 50 71.5 114.5t74 169t64.5 253t25 315.5q0 152 -25 291t-64.5 241.5t-75 168t-72.5 116.5z" />
<glyph unicode="*" horiz-adv-x="960" d="M88 1125q45 170 82 258q43 -25 124 -71.5t108 -61.5q-5 28 -16 80t-20 95.5t-15 80.5q45 4 137 4q91 0 136 -4q-28 -138 -54 -256l234 131q33 -71 84 -259l-271 -34l196 -181q-128 -100 -216 -154q-22 45 -60 128t-51 110l-112 -238q-113 70 -216 154q32 32 98 92.5 t97 90.5z" />
<glyph unicode="+" d="M222 546v219h354v364h226v-364h353v-219h-353v-370h-226v370h-354z" />
<glyph unicode="," horiz-adv-x="653" d="M107 -238q125 109 141 242q-134 22 -134 166q0 80 55.5 132.5t148.5 52.5q112 0 166 -62t54 -160q0 -142 -96 -286.5t-235 -214.5z" />
<glyph unicode="-" horiz-adv-x="889" d="M135 452v266h620v-266h-620z" />
<glyph unicode="." horiz-adv-x="618" d="M99 170q0 84 52 134.5t155 50.5q105 0 158 -50.5t53 -134.5t-53.5 -135.5t-157.5 -51.5t-155.5 51t-51.5 136z" />
<glyph unicode="/" horiz-adv-x="862" d="M6 -80l562 1607h284l-564 -1607h-282z" />
<glyph unicode="0" d="M35 716q0 123 19.5 229t65 202t115 164t177.5 107.5t244 39.5q138 0 245.5 -40t176 -108t113 -164.5t62 -201t17.5 -226.5q0 -125 -19.5 -231.5t-66 -201t-116 -161t-174.5 -105t-238 -38.5q-137 0 -245 38t-177.5 103.5t-115.5 160t-64.5 200.5t-18.5 233zM443 714 q0 -100 9 -173t31.5 -134t66 -92t106.5 -31q60 0 102 33t64.5 95.5t32 136t9.5 167.5q0 73 -4 129.5t-17 117.5t-35.5 101t-60.5 65.5t-91 25.5q-213 0 -213 -441z" />
<glyph unicode="1" d="M205 1051v272l324 115h363v-1438h-404v1084z" />
<glyph unicode="2" d="M76 1284q133 87 279 129t279 42q248 0 384.5 -119t136.5 -332q0 -82 -30.5 -166.5t-75 -153t-114 -144.5t-126 -128t-134.5 -117l6 -14h542v-281h-1114v245q235 192 308 257q282 253 319 427q6 29 6 56q0 70 -44 110t-136 40q-74 0 -171 -23t-194 -76z" />
<glyph unicode="3" d="M92 92l99 278q215 -71 355 -71q127 0 194.5 49t67.5 138q0 181 -275 181q-42 0 -94 -7l-43 206q28 29 141 132.5t134 123.5q-6 7 -6 17h-499v299h975l49 -246l-328 -283l2 -17q78 -17 140.5 -50.5t112 -82.5t76 -120.5t26.5 -158.5q0 -162 -81.5 -277t-218.5 -169.5 t-317 -54.5q-115 2 -257 28t-253 85z" />
<glyph unicode="4" d="M54 342v232q32 44 294 428.5t301 435.5h422v-818h207v-278h-207v-342h-394v342h-623zM413 620h275v386h-15q-27 -36 -129 -192t-131 -194z" />
<glyph unicode="5" d="M94 94l95 274q226 -71 365 -71q128 0 194.5 49.5t66.5 145.5q0 90 -67 135.5t-172 45.5q-94 0 -198 -47l-206 88l62 724h910v-297h-596l-17 -197q115 15 142 15q248 0 398 -125.5t150 -351.5q0 -122 -46 -218.5t-128.5 -157.5t-193 -93t-240.5 -32q-110 0 -258.5 26.5 t-260.5 86.5z" />
<glyph unicode="6" d="M82 645q0 137 21.5 254t72 221t127 176.5t193.5 114.5t265 42q170 0 335 -47q-3 -11 -27.5 -143t-27.5 -143q-123 35 -249 35q-75 0 -132 -26.5t-91.5 -71.5t-53 -90.5t-29.5 -98.5l15 -10q144 73 287 73q199 0 323 -117.5t124 -335.5q0 -238 -153.5 -367.5 t-402.5 -129.5q-157 0 -274 49.5t-186.5 139.5t-103 208.5t-33.5 266.5zM488 546q0 -48 8.5 -89t28 -80t58.5 -61.5t94 -22.5q79 0 125.5 49t46.5 132q0 81 -36.5 128t-128.5 47q-20 0 -39.5 -2.5t-37 -7.5t-31 -9.5t-29 -12.5t-23 -12.5t-21 -12.5t-15.5 -9v-37z" />
<glyph unicode="7" d="M174 1141v297h1004v-252l-546 -1186h-402l546 1141h-602z" />
<glyph unicode="8" d="M66 396q0 47 12.5 96.5t39 102.5t74.5 104t114 91q-86 55 -125 118.5t-39 156.5q0 174 150 287t381 113q75 0 147 -13.5t142.5 -43t123.5 -73t85.5 -111t32.5 -149.5q0 -186 -178 -322q224 -117 224 -347q0 -183 -164.5 -303t-431.5 -120q-274 0 -431 110.5t-157 302.5z M466 428q0 -67 50.5 -112t141.5 -45t140 49t51 110q3 66 -54.5 113t-205.5 104q-123 -94 -123 -219zM509 1058q0 -18 5.5 -35t19.5 -32t25 -24.5t38 -24t41 -21t51 -22.5t51 -23q107 90 107 178q0 58 -44.5 99t-131.5 41q-75 0 -118.5 -44t-43.5 -92z" />
<glyph unicode="9" d="M78 957q0 237 152.5 367.5t401.5 130.5q157 0 273.5 -49t185.5 -140t102.5 -209.5t33.5 -266.5q0 -138 -21.5 -255t-71.5 -220.5t-127 -175.5t-194 -114t-265 -42q-197 0 -341 47l60 284q120 -35 252 -35q60 0 108.5 18.5t80.5 46.5t57 67t37.5 76.5t20.5 78.5l-15 10 q-138 -73 -285 -73q-200 0 -322.5 116.5t-122.5 337.5zM460 961q0 -176 164 -176q27 0 53.5 5t49.5 14.5t37.5 16t33.5 17.5t23 14v36q0 251 -189 251q-79 0 -125.5 -47.5t-46.5 -130.5z" />
<glyph unicode=":" horiz-adv-x="648" d="M117 170q0 85 51 135t154 50q106 0 158.5 -50t52.5 -135q0 -83 -53 -135t-158 -52q-103 0 -154 51.5t-51 135.5zM117 800q0 85 51 135t154 50q106 0 158.5 -50t52.5 -135q0 -83 -53.5 -134t-157.5 -51q-103 0 -154 51t-51 134z" />
<glyph unicode=";" horiz-adv-x="648" d="M103 -238q124 111 140 242q-134 22 -134 166q0 80 55.5 132.5t149.5 52.5q112 0 165.5 -62t53.5 -160q0 -142 -95.5 -286.5t-232.5 -214.5zM117 800q0 85 51 135t154 50q106 0 158.5 -50t52.5 -135q0 -83 -53.5 -134t-157.5 -51q-103 0 -154 51t-51 134z" />
<glyph unicode="&#x3c;" horiz-adv-x="1352" d="M166 554v179l1032 494v-255l-724 -327l724 -331v-252z" />
<glyph unicode="=" horiz-adv-x="1352" d="M200 353v211h951v-211h-951zM200 724v214h951v-214h-951z" />
<glyph unicode="&#x3e;" horiz-adv-x="1352" d="M166 62v252l724 331l-724 327v255l1034 -494v-179z" />
<glyph unicode="?" horiz-adv-x="1160" d="M101 1447q240 90 488 90q236 0 370.5 -105.5t134.5 -276.5q0 -107 -48 -188.5t-139 -160.5q-118 -106 -153 -144q-70 -82 -70 -157q0 -43 6 -79q-23 0 -170 -2.5t-167 -2.5q-11 43 -11 141q0 61 15 112.5t48 98.5t61 77t78 79q60 54 86 91.5t26 89.5q0 59 -42.5 91 t-116.5 32q-145 0 -312 -57q-18 78 -84 271zM333 148q0 80 51 128t147 48q101 0 151.5 -47.5t50.5 -128.5t-50.5 -129.5t-149.5 -48.5t-149.5 48.5t-50.5 129.5z" />
<glyph unicode="@" horiz-adv-x="2160" d="M172 688q0 246 123.5 446.5t342.5 313.5t489 113q400 0 630 -214.5t230 -576.5q0 -234 -138.5 -371t-354.5 -137q-58 0 -114 14t-108 48.5t-74 86.5q-57 -60 -131.5 -88t-143.5 -28q-65 0 -115 18t-78.5 44t-46.5 62.5t-24.5 68t-6.5 64.5q0 56 14 93t43.5 65t92 47.5 t141.5 33.5t208 30v22q0 51 -20.5 72t-85.5 21q-98 0 -245 -37l-51 200q168 64 361 64q80 0 142 -14t111 -46t75.5 -89t26.5 -138v-310q0 -76 92 -76q68 0 125.5 68t57.5 195q0 260 -163.5 417t-449.5 157q-197 0 -359 -83.5t-255.5 -229.5t-93.5 -322q0 -137 49 -255 t134.5 -201.5t206.5 -131.5t262 -48q145 0 333 61q54 -143 78 -201q-181 -92 -413 -92q-212 0 -382.5 65t-282.5 180.5t-172 273.5t-60 345zM987 585q0 -76 69 -76q45 0 95 39v117q-37 -3 -59 -6.5t-50 -12t-41.5 -23.5t-13.5 -38z" />
<glyph unicode="A" horiz-adv-x="1573" d="M15 0l518 1484h534l492 -1484h-434l-91 303h-507l-94 -303h-418zM615 579h339l-88 311l-70 308h-14l-78 -318z" />
<glyph unicode="B" horiz-adv-x="1496" d="M142 0v1484h736q233 0 353.5 -111t120.5 -298q0 -32 -8 -68.5t-27 -78.5t-58.5 -79.5t-92.5 -60.5v-14q57 -17 100.5 -50t67.5 -68t38.5 -78.5t18.5 -75.5t4 -63q0 -200 -139.5 -319.5t-371.5 -119.5h-742zM566 293h208q90 0 135 45.5t45 123.5q0 75 -46 121.5t-134 46.5 h-208v-337zM566 892h185q81 0 124 38t43 108q0 74 -41 115t-126 41h-185v-302z" />
<glyph unicode="C" horiz-adv-x="1405" d="M99 733q0 119 21 225t75.5 211t139 179.5t222 121t313.5 46.5q206 0 412 -63l-52 -304q-152 35 -301 35q-185 0 -283 -101t-98 -328q0 -248 92.5 -346.5t301.5 -98.5q54 0 161.5 13t182.5 32l64 -293q-107 -40 -244.5 -63t-260.5 -23q-174 0 -307 41t-215.5 108.5 t-133.5 167.5t-70.5 205.5t-19.5 234.5z" />
<glyph unicode="D" horiz-adv-x="1560" d="M144 0v1484h615q163 0 287 -39t201 -104.5t126.5 -162t68.5 -200.5t19 -231q0 -123 -22.5 -229.5t-74.5 -203.5t-131.5 -165t-202 -108.5t-277.5 -40.5h-609zM570 295h150q134 0 217 109t83 336q0 233 -82.5 344.5t-225.5 111.5h-142v-901z" />
<glyph unicode="E" horiz-adv-x="1375" d="M142 0v1484h1114v-288h-686v-282h574v-284h-574v-337h714v-293h-1142z" />
<glyph unicode="F" horiz-adv-x="1303" d="M142 0v1484h1103v-290h-679v-318h505v-283h-505v-593h-424z" />
<glyph unicode="G" horiz-adv-x="1496" d="M99 740q0 84 10.5 161t36 155.5t65.5 145t103 126t144.5 100.5t193 64.5t245.5 23.5q224 0 430 -63l-49 -296q-174 37 -326 37q-205 0 -304.5 -112.5t-99.5 -363.5q0 -210 75.5 -310t238.5 -100q64 0 147 14v478h382v-734q-263 -90 -548 -90q-173 0 -305.5 42.5t-214 113 t-133 171.5t-71.5 206.5t-20 230.5z" />
<glyph unicode="H" horiz-adv-x="1623" d="M142 0v1482h426q0 -94 -1 -282t-1 -282h483v564h428v-1482h-428v624h-483q0 -105 1 -313t1 -311h-426z" />
<glyph unicode="I" horiz-adv-x="737" d="M158 0v1484h421v-1484h-421z" />
<glyph unicode="J" horiz-adv-x="880" d="M-117 -146q125 63 200 116t119 116.5t58.5 131.5t14.5 169l2 1099h422v-1127q0 -330 -181.5 -528.5t-538.5 -263.5z" />
<glyph unicode="K" horiz-adv-x="1576" d="M142 0v1482h420v-508q10 0 17 -2l84 101q59 69 180.5 204t180.5 205h494l-557 -573l598 -909h-508q-209 342 -382 632l-107 -109v-523h-420z" />
<glyph unicode="L" horiz-adv-x="1317" d="M142 0v1484h424v-1194h729v-290h-1153z" />
<glyph unicode="M" horiz-adv-x="2031" d="M144 0v1484h535l201 -532l122 -341h20l137 363l206 510h521v-1484h-413v870h-8l-136 -341l-157 -379h-331l-157 398l-122 325h-10v-873h-408z" />
<glyph unicode="N" horiz-adv-x="1697" d="M142 0v1482h430q85 -126 231 -355.5t195 -303.5l129 -214h14v873h412v-1482h-428q-69 104 -143 221.5t-164.5 263.5t-140.5 225q-47 78 -113 193q-2 0 -7 -1t-7 -1v-901h-408z" />
<glyph unicode="O" horiz-adv-x="1685" d="M101 744q0 166 45.5 304t135 243t233.5 164t330 59q187 0 331 -59t232.5 -163t133.5 -242.5t45 -302.5q0 -167 -48 -307t-139 -244t-233 -162t-322 -58q-186 0 -328.5 56t-233.5 159t-136.5 242.5t-45.5 310.5zM548 742q0 -114 15 -197t48.5 -145.5t91.5 -93.5t142 -31 q80 0 136.5 33.5t89.5 97.5t47.5 147t14.5 191q0 82 -7.5 148t-27 128.5t-51 104.5t-82.5 67t-120 25q-70 0 -123 -25.5t-85.5 -69t-53 -106t-28 -128.5t-7.5 -146z" />
<glyph unicode="P" horiz-adv-x="1352" d="M142 0v1484h623q281 0 413.5 -126.5t132.5 -344.5q0 -92 -31.5 -175.5t-92 -150.5t-162 -107t-229.5 -40h-228v-540h-426zM568 819h140q77 0 125.5 45.5t48.5 139.5q0 100 -50.5 146t-134.5 46h-129v-377z" />
<glyph unicode="Q" horiz-adv-x="1703" d="M99 742q0 133 28 248t87.5 212t146 165.5t210 107.5t272.5 39q187 0 330.5 -59t231.5 -164.5t132.5 -244t44.5 -304.5q0 -211 -73 -375t-214 -260q121 -36 314 -86q-13 -31 -54.5 -139t-64.5 -166l-772 271q-308 38 -463.5 236t-155.5 519zM546 740q0 -230 69.5 -349.5 t227.5 -119.5q288 0 288 471q0 103 -12.5 182.5t-43.5 147t-89.5 104.5t-142.5 37q-297 0 -297 -473z" />
<glyph unicode="R" horiz-adv-x="1485" d="M142 0v1484h677q137 0 239.5 -36.5t162 -99.5t88.5 -139t29 -164q0 -122 -63 -226.5t-183 -151.5v-4q38 -13 68.5 -34t50.5 -44t37 -56t27 -60t22 -65l116 -404h-420l-109 374q-30 107 -80 147.5t-141 40.5h-97v-562h-424zM566 841h165q74 0 126 45.5t52 135.5 q0 80 -48 126t-130 46h-165v-353z" />
<glyph unicode="S" horiz-adv-x="1422" d="M74 97l96 295q253 -93 534 -93q101 0 148 32t47 102q0 58 -44.5 87.5t-142.5 53.5q-229 58 -313 92q-180 72 -239 196q-37 76 -37 179q0 105 35 190t107.5 149.5t193 100t281.5 35.5q295 0 518 -114l-101 -284q-190 72 -430 72q-77 0 -117 -32.5t-40 -94.5q0 -29 19 -51 t62 -40t80 -28t106 -26q169 -41 247 -77q263 -123 264 -408q0 -215 -167 -337t-518 -122q-130 0 -294 30.5t-295 92.5z" />
<glyph unicode="T" horiz-adv-x="1393" d="M21 1186v298h1351v-298h-465v-1186h-421v1186h-465z" />
<glyph unicode="U" horiz-adv-x="1599" d="M138 556v928h416v-946q0 -137 63 -200t189 -63q112 0 177.5 62.5t65.5 200.5l-2 946h416l-2 -928q0 -577 -659 -577q-349 0 -506.5 147.5t-157.5 429.5z" />
<glyph unicode="V" horiz-adv-x="1549" d="M15 1486h453l218 -778q6 -23 38.5 -170.5t38.5 -169.5h17q17 54 45.5 181t34.5 152q40 156 219 785h456q-42 -128 -250.5 -743t-250.5 -743h-525q-29 90 -238.5 715t-255.5 771z" />
<glyph unicode="W" horiz-adv-x="2208" d="M15 1484h451q11 -46 67 -329t67 -332q7 -40 26.5 -172t29.5 -187h15q9 48 27.5 175t28.5 176q14 62 76 362t63 307h461q7 -23 76 -331t74 -326q0 -2 15.5 -89t30.5 -175t18 -99h18q10 50 28 183.5t28 185.5q3 16 59.5 306t69.5 345h449q-34 -154 -179.5 -770t-170.5 -714 h-534q-12 45 -64 275.5t-67 283.5q-4 17 -36 204t-36 205l-18 2q-14 -66 -36 -215t-30 -196l-119 -559h-535z" />
<glyph unicode="X" horiz-adv-x="1541" d="M10 0q71 107 243.5 367.5t265.5 402.5l-465 712h486l245 -458q47 80 132 238.5t119 219.5h482l-486 -717q35 -53 495 -765h-482l-280 497l-273 -497h-482z" />
<glyph unicode="Y" horiz-adv-x="1498" d="M13 1482h443q22 -49 80.5 -176.5t89.5 -197.5l114 -293h17q20 44 60 152.5t61 152.5q97 214 169 362h435q-84 -158 -251.5 -477t-251.5 -476v-529h-458v495z" />
<glyph unicode="Z" horiz-adv-x="1381" d="M33 0v269l696 907l-7 18h-630v290h1224v-259l-712 -917l7 -13h741v-295h-1319z" />
<glyph unicode="[" horiz-adv-x="760" d="M150 -344v1852h536v-215h-202v-1435h202v-202h-536z" />
<glyph unicode="\" horiz-adv-x="862" d="M6 1527h284l562 -1607h-282z" />
<glyph unicode="]" horiz-adv-x="760" d="M92 -142h203v1435h-203v215h536v-1852h-536v202z" />
<glyph unicode="^" horiz-adv-x="1120" d="M39 722l419 733h178l422 -733h-258l-252 468l-253 -468h-256z" />
<glyph unicode="_" horiz-adv-x="1075" d="M0 -144h1075v-191h-1075v191z" />
<glyph unicode="`" horiz-adv-x="1169" d="M349 1428l205 240q19 -24 183.5 -184t183.5 -183l-141 -164z" />
<glyph unicode="a" horiz-adv-x="1328" d="M51 288q0 117 71.5 204t226.5 110q47 8 112.5 14.5t153 13t129.5 10.5v18q0 72 -39 105t-135 33q-79 0 -177 -13.5t-165 -35.5l-60 248q97 40 237 65.5t264 25.5q221 0 342.5 -89.5t121.5 -292.5v-439h133q16 -189 18 -228q-136 -63 -318 -63q-82 0 -133.5 27t-62.5 98 q0 1 -4 2q-2 1 -3 2q-141 -129 -365 -129q-80 0 -143 21t-100 53t-61.5 75.5t-33.5 83.5t-9 81zM476 333q3 -59 27 -84t78 -25q35 0 82.5 16t78.5 44v168q-20 -3 -62.5 -6.5t-64 -6t-53 -10t-47 -18.5t-27.5 -31t-12 -47z" />
<glyph unicode="b" horiz-adv-x="1324" d="M94 94v1455h409v-316q0 -16 -4 -117t-4 -114q0 -1 4 -2.5t8.5 -3.5t5.5 -3q77 54 158.5 76.5t141.5 22.5q439 0 439 -561q0 -92 -15 -168.5t-53 -149.5t-100 -123t-163 -80.5t-233 -30.5q-128 0 -293 24.5t-301 90.5zM507 293q73 -31 162 -31q39 0 67 10t54 36.5 t39.5 81.5t13.5 137q0 87 -13.5 145t-40 84t-52 35t-60.5 9q-69 0 -170 -51v-456z" />
<glyph unicode="c" horiz-adv-x="1089" d="M69 521q0 88 14 163.5t52 151.5t98.5 129t161 87t231.5 34q187 0 350 -50l-51 -283q-105 21 -217 21q-222 0 -222 -245q0 -124 48 -180t165 -56q123 0 269 42q41 -154 68 -273q-176 -83 -425 -83q-130 0 -227.5 29.5t-156.5 78t-95 120.5t-49.5 146.5t-13.5 167.5z" />
<glyph unicode="d" horiz-adv-x="1326" d="M71 505q0 103 15.5 189t50.5 160.5t89.5 125.5t136 80.5t185.5 29.5q58 0 135 -13.5t136 -44.5v515h411v-1547h-376q-2 16 -4.5 45.5t-4.5 44.5l-10 7q-77 -62 -165.5 -88t-160.5 -26q-102 0 -179.5 28t-126 74.5t-79 115.5t-42 142t-11.5 162zM482 511q0 -77 13 -129 t39 -77t52 -34t63 -9q32 0 82 18t88 40v435q-37 20 -85.5 32.5t-84.5 12.5q-33 0 -58.5 -10t-52 -38t-41.5 -89t-15 -152z" />
<glyph unicode="e" horiz-adv-x="1235" d="M74 529q0 85 15.5 162t55.5 151.5t102 128t160 86.5t223 33q101 0 181 -17.5t135.5 -45t96 -70.5t63 -86.5t36 -99.5t17.5 -103t4 -104v-96h-679q1 -99 60.5 -144t177.5 -45q146 0 343 61l76 -252q-202 -109 -492 -109q-136 0 -238 30.5t-165 80t-103 122.5t-54.5 149 t-14.5 168zM488 663h308q-2 85 -34 132.5t-110 47.5q-148 0 -164 -180z" />
<glyph unicode="f" horiz-adv-x="962" d="M43 804v224l154 45v101q0 65 9.5 117t38.5 106t77 89.5t129.5 58.5t193.5 23q192 0 346 -46l-47 -270q-95 21 -202 21q-71 0 -108 -25t-37 -82v-103h300v-259h-300q0 -83 -1 -402t-1 -402h-400v804h-152z" />
<glyph unicode="g" horiz-adv-x="1365" d="M69 -176q0 144 126 219q-103 42 -103 157q0 67 39 119t109 83l5 11q-60 36 -94 105t-34 163q0 104 44 184t119.5 127.5t169.5 71.5t202 24q158 0 240 -25h411v-187h-142l-6 -12q41 -62 41 -169q0 -122 -73 -209t-188.5 -127t-259.5 -41l-127 -2q-101 0 -101 -56 q0 -38 62 -38h338q213 0 327 -72.5t114 -235.5q0 -59 -20 -111.5t-69.5 -103t-126 -87t-198 -58.5t-277.5 -22q-135 0 -234 17.5t-154.5 45t-88 68.5t-42 77.5t-9.5 83.5zM462 -101q0 -49 40 -78.5t152 -29.5q216 0 216 110q0 95 -115 95h-226q-29 -16 -48 -43.5t-19 -53.5z M513 695q0 -136 136 -136q66 0 107.5 34.5t41.5 105.5q0 65 -35 103.5t-109 38.5q-72 0 -106.5 -41t-34.5 -105z" />
<glyph unicode="h" horiz-adv-x="1317" d="M92 0v1547h405v-347q-5 -149 -9 -226l17 -10q81 57 182 90.5t179 33.5q104 0 175 -26.5t110 -79t54.5 -118.5t15.5 -158v-706h-413v624q0 78 -24.5 114t-99.5 36q-37 0 -86.5 -16.5t-90.5 -43.5v-714h-415z" />
<glyph unicode="i" horiz-adv-x="718" d="M131 1368q0 93 57 147.5t169 54.5q115 0 173.5 -54.5t58.5 -147.5q0 -90 -59 -146t-173 -56q-113 0 -169.5 55.5t-56.5 146.5zM152 0v1060h412v-1060h-412z" />
<glyph unicode="j" horiz-adv-x="728" d="M-111 -228q94 55 142.5 90.5t80.5 84t41 102t9 144.5v867h414q0 -873 -2 -892q-1 -299 -135.5 -454.5t-440.5 -220.5q-2 5 -54 138.5t-55 140.5zM144 1368.5q0 92.5 56.5 147t169.5 54.5q115 0 172.5 -54t57.5 -148q0 -92 -58 -147t-172 -55t-170 55t-56 147.5z" />
<glyph unicode="k" horiz-adv-x="1276" d="M92 0v1541h419q0 -75 -1 -229.5t-1 -232.5q-4 -179 -12 -324q4 -2 12 -2l271 310h461l-392 -414q9 -10 41.5 -45t40.5 -48q41 -70 166.5 -277.5t166.5 -278.5h-453q-124 215 -228 411l-72 -76v-335h-419z" />
<glyph unicode="l" horiz-adv-x="659" d="M123 0v1549h410v-1549h-410z" />
<glyph unicode="m" horiz-adv-x="1949" d="M94 0v1063h382q4 -35 8 -113l8 -4q88 70 192.5 106t183.5 36q96 0 157 -35t102 -111q75 64 187 105t196 41q99 0 166.5 -27.5t105.5 -80.5t53.5 -120t15.5 -159v-701h-415v652q0 65 -22 93.5t-74 28.5q-36 0 -84 -17t-82 -41q4 -90 4 -135v-581h-406q0 109 -1 330t-1 333 q0 109 -93 109q-81 0 -168 -58v-714h-415z" />
<glyph unicode="n" horiz-adv-x="1317" d="M92 0v1063h386l6 -104l13 -5q89 63 192.5 98.5t183.5 35.5q99 0 168.5 -26.5t108.5 -78.5t55 -119t16 -158v-706h-413v624q0 77 -25.5 113.5t-98.5 36.5q-37 0 -86.5 -16.5t-90.5 -43.5v-714h-415z" />
<glyph unicode="o" d="M74 531q0 122 33 220t101.5 174.5t184.5 118.5t272 42t271.5 -42t183.5 -118.5t100 -174t32 -218.5q0 -95 -20 -177t-65.5 -152.5t-113 -119.5t-168.5 -77t-227 -28t-225.5 27.5t-166 75.5t-110.5 118.5t-63 152t-19 178.5zM495 531q0 -137 35.5 -205t134.5 -68 q92 0 127 70t35 203q0 131 -35 202t-127 71q-170 0 -170 -273z" />
<glyph unicode="p" horiz-adv-x="1326" d="M94 -449v1512h382l8 -95l13 -9q148 123 320 123q101 0 178 -28.5t125.5 -77t79 -120.5t42.5 -150t12 -175q0 -121 -26.5 -219t-81.5 -173.5t-148 -116.5t-220 -41q-60 0 -138.5 13t-136.5 41v-484h-409zM505 310q81 -43 170 -43q32 0 59 12t53 41t41 86.5t15 139.5 q0 78 -13.5 130.5t-39 77t-51.5 33.5t-61.5 9t-86 -18.5t-86.5 -42.5v-425z" />
<glyph unicode="q" horiz-adv-x="1326" d="M71 480q0 606 615 606q108 0 269 -23t272 -72q0 -241 1.5 -720.5t1.5 -717.5h-405v266q0 127 2 207l-12 15q-69 -33 -146 -49t-129 -16q-241 0 -355 132t-114 372zM480 529q0 -85 13.5 -140.5t39 -81t51 -34t61.5 -8.5q78 0 172 49v458q-70 26 -140 26q-194 0 -197 -269z " />
<glyph unicode="r" horiz-adv-x="1003" d="M121 0v1063h406q0 -96 -20 -214l10 -6q98 105 218 177t213 72q63 0 63 -86q0 -84 -41.5 -220t-83.5 -197l-355 45v-634h-410z" />
<glyph unicode="s" horiz-adv-x="1132" d="M54 69l75 247q228 -71 400 -71q134 0 134 75q0 13 -5 24t-15.5 19.5t-21 14t-29 12t-30 9.5t-33.5 9t-32 9q-173 47 -239 81q-142 71 -159 209q-2 20 -2 42q0 159 122 250t376 91q240 0 420 -88q-3 -4 -21 -61t-37 -118t-19 -62q-165 58 -321 58q-110 0 -110 -68 q0 -24 41.5 -40.5t116.5 -33.5q46 -10 79 -19t79.5 -26t79.5 -34.5t68.5 -46.5t57.5 -62t36 -80t14 -101q0 -156 -133 -242.5t-417 -86.5q-105 0 -237.5 22.5t-237.5 67.5z" />
<glyph unicode="t" horiz-adv-x="952" d="M24 804v224l173 51q12 33 45 136.5t46 134.5l286 24v-309h299v-261h-299v-365q0 -89 30.5 -122t109.5 -33q40 0 172 22l45 -265q-70 -31 -162.5 -46.5t-168.5 -15.5q-109 0 -189 22t-126 55.5t-73 83t-35.5 94.5t-8.5 101v469h-144z" />
<glyph unicode="u" horiz-adv-x="1291" d="M92 355v708h413v-624q0 -74 23 -112.5t92 -38.5q81 0 162 69v706h414v-1063h-377l-13 111l-12 6q-84 -71 -186 -106t-180 -35q-100 0 -167.5 25.5t-103.5 78t-50.5 117.5t-14.5 158z" />
<glyph unicode="v" horiz-adv-x="1334" d="M19 1060h437q4 -14 131 -449q6 -20 42 -176.5t42 -176.5h10q3 6 40.5 171t48 196.5t41 137.5t57.5 198.5t29 98.5h417q-20 -55 -177 -529.5t-178 -530.5h-583q-14 38 -174 518t-183 542z" />
<glyph unicode="w" horiz-adv-x="1930" d="M45 1063h404l95 -446l51 -316h12l58 323l105 439h389l109 -446l61 -311h15l49 311l95 446h398l-267 -1063h-492l-101 423l-58 319h-16l-53 -316l-93 -426h-490z" />
<glyph unicode="x" horiz-adv-x="1268" d="M8 0l372 552q-87 127 -343 508h447l156 -313q29 51 84.5 156.5t83.5 156.5h437l-353 -506l364 -554h-448q-32 69 -97 198t-75 148q-44 -85 -189 -346h-439z" />
<glyph unicode="y" horiz-adv-x="1281" d="M24 1063h406q12 -39 69 -267.5t71 -272.5q11 -45 27 -140.5t23 -126.5h16q6 21 28 121.5t35 153.5q11 36 71 259t75 273h419q-34 -107 -208.5 -619.5t-222.5 -650.5q-92 -264 -392 -264q-142 0 -310 45l54 268q25 -3 56 -7.5t49 -6.5t34 -2q80 0 117 25t60 93l28 95h-178 q-13 40 -90 281.5t-148 462.5t-89 280z" />
<glyph unicode="z" horiz-adv-x="1098" d="M19 0v213l488 565l-4 16h-441l2 271h987v-209l-495 -572l8 -15h518v-269h-1063z" />
<glyph unicode="{" horiz-adv-x="803" d="M69 497v207q97 10 128 59t31 168v253q0 151 71.5 240.5t223.5 89.5h242v-213h-64q-133 0 -133 -140v-275q0 -128 -33 -192.5t-133 -84.5v-7q90 -26 128 -89.5t38 -166.5v-352q0 -66 27.5 -104t101.5 -38h68v-205h-238q-74 0 -130.5 20t-88 50.5t-50.5 75t-24.5 85 t-5.5 89.5v351q0 86 -39.5 128t-119.5 51z" />
<glyph unicode="|" horiz-adv-x="788" d="M260 -327v1860h269v-1860h-269z" />
<glyph unicode="}" horiz-adv-x="803" d="M45 -148h69q77 0 103 37t26 105v352q0 103 37.5 166.5t127.5 89.5v7q-78 16 -121.5 75t-43.5 147v330q0 64 -28.5 102t-105.5 38h-64v213h245q293 0 293 -279v-351q0 -88 40 -129t119 -51v-207q-159 -20 -159 -179v-348q0 -140 -74 -231.5t-225 -91.5h-239v205z" />
<glyph unicode="~" d="M123 564q103 269 305 269q85 0 266.5 -49t255.5 -49l142 104l131 -97q-50 -138 -123 -206t-175 -68q-104 0 -287 49t-238 49l-146 -100z" />
<glyph unicode="&#xa1;" horiz-adv-x="704" d="M154 903q0 80 50.5 129.5t150.5 49.5q98 0 148.5 -49.5t50.5 -129.5q0 -82 -49.5 -130.5t-151.5 -48.5q-98 0 -148.5 49t-50.5 130zM162 -466q0 377 4 492q1 32 15.5 290t15.5 288h308q1 -31 18 -303.5t17 -313.5q4 -33 4 -453h-382z" />
<glyph unicode="&#xa2;" d="M174 521q0 88 14 163.5t52 151.5t98.5 129t161 87t231.5 34v153h125v-160q123 -11 226 -43l-52 -283q-88 18 -174 21v-479q90 5 217 40q41 -154 68 -273q-121 -58 -285 -75v-163h-125v155h-15q-130 0 -227.5 29.5t-156.5 78t-95 120.5t-49.5 146.5t-13.5 167.5zM591 529 q0 -103 32 -158.5t108 -71.5v464q-140 -42 -140 -234z" />
<glyph unicode="&#xa3;" d="M86 0l2 254q125 97 144 288q1 5 3 43t3 43h-127v195h143q0 14 11 166q41 488 515 488q215 0 426 -88l-94 -260q-141 53 -289 53q-93 0 -136.5 -49.5t-52.5 -162.5q-10 -142 -10 -147h285v-195h-300q0 -4 -3.5 -41.5t-3.5 -42.5q-12 -200 -95 -286h687v-258h-1108z" />
<glyph unicode="&#xa5;" d="M28 1441h405q10 -21 64 -182.5t65 -183.5l87 -256h11q7 15 45.5 127.5t45.5 128.5q5 10 69 185.5t66 180.5h398q-19 -39 -143 -316.5t-143 -316.5h206v-139h-1095v139h194q-15 33 -134.5 312t-140.5 321zM109 439v140h1095v-140h-342v-439h-413v439h-340z" />
<glyph unicode="&#xa7;" horiz-adv-x="1190" d="M125 656q0 166 137 277q-127 97 -127 239q0 92 38.5 163t107.5 114t157 64.5t194 21.5q109 0 221.5 -21.5t176.5 -52.5q-14 -42 -39 -116.5t-34 -103.5q-166 47 -321 47q-71 0 -113.5 -27t-42.5 -69q0 -16 10 -32t31.5 -31t41.5 -27t52.5 -27t51.5 -22.5t52.5 -21 t41.5 -16.5q57 -22 93.5 -38.5t82 -45.5t71 -59.5t43.5 -75t18 -99.5q0 -170 -131 -274q78 -54 118 -122.5t40 -134.5q0 -168 -138 -271.5t-406 -103.5q-229 0 -417 74l72 219q181 -54 290 -54q240 0 240 108q0 40 -36.5 69t-146.5 70q-179 71 -244 106q-157 88 -181 220 q-4 26 -4 53zM435 708q0 -27 10.5 -44.5t36.5 -33t53.5 -26.5t80 -32.5t96.5 -42.5q25 23 40.5 55t15.5 54q0 19 -8.5 35.5t-29 32.5t-40.5 29t-57.5 29.5t-63.5 27t-74 29.5q-60 -50 -60 -113z" />
<glyph unicode="&#xa8;" horiz-adv-x="1287" d="M193 1374q0 76 46 120.5t137 44.5q96 0 146 -44.5t50 -120.5q0 -73 -50.5 -119t-145.5 -46q-91 0 -137 46t-46 119zM690 1374q0 76 47 120.5t139 44.5q96 0 143.5 -44.5t47.5 -120.5q0 -73 -48 -119t-143 -46q-92 0 -139 46t-47 119z" />
<glyph unicode="&#xa9;" horiz-adv-x="1857" d="M82 706q0 170 67 324.5t180.5 266.5t269.5 178t326 66q169 0 324.5 -66t268 -178t179 -266.5t66.5 -324.5t-66.5 -325t-179 -267.5t-268 -178.5t-324.5 -66q-170 0 -326 66t-269.5 178.5t-180.5 267.5t-67 325zM238 706q0 -138 55 -264t147 -217t219 -145t266 -54 q185 0 342.5 91.5t249.5 248t92 340.5t-92 341.5t-249.5 249.5t-342.5 92q-139 0 -266 -54.5t-219 -146t-147 -218t-55 -264.5zM445 688q0 80 14.5 150.5t52 140.5t96 120t153.5 81t218 31q139 0 266 -41l-34 -191q-98 23 -200 23q-131 0 -205.5 -73.5t-74.5 -229.5 q0 -169 70.5 -237t213.5 -68q125 0 226 23l39 -185q-143 -54 -338 -54q-497 0 -497 510z" />
<glyph unicode="&#xaa;" horiz-adv-x="893" d="M35 770q0 31 8.5 60.5t29 59t60.5 50t95 26.5q144 17 254 21v22q0 43 -21 60t-78 17q-115 0 -225 -32l-53 179q157 62 349 62q152 0 233 -60.5t81 -198.5v-266h79l11 -170q-41 -20 -103 -32t-110 -12q-52 0 -91.5 22t-50.5 62q-88 -86 -224 -86q-56 0 -100.5 15t-71 37 t-43.5 52t-23 57t-6 55zM331 796q0 -61 65 -61q33 0 88 30v101q-47 0 -94 -10q-59 -13 -59 -60z" />
<glyph unicode="&#xab;" horiz-adv-x="1162" d="M86 398v80l390 419l160 -109l-228 -349l226 -345l-166 -115zM548 398v80l390 419l163 -109l-228 -349l223 -345l-163 -115z" />
<glyph unicode="&#xac;" d="M222 546v219h933v-589h-228v370h-705z" />
<glyph unicode="&#xae;" horiz-adv-x="1326" d="M82 993q0 159 73.5 290.5t207 209t300.5 77.5q163 0 296 -77.5t206.5 -209t73.5 -290.5q0 -157 -74 -289t-207 -209.5t-295 -77.5t-296 77t-209.5 209.5t-75.5 289.5zM200 993q0 -193 129.5 -326.5t333.5 -133.5q207 0 332 132.5t125 327.5q0 192 -130 326t-327 134 q-132 0 -239 -62.5t-165.5 -167.5t-58.5 -230zM430 701v622h284q114 0 166.5 -54t52.5 -138q0 -45 -25 -89t-73 -68l122 -273h-177l-94 243h-79l-3 -243h-174zM607 1051h58q84 0 84 84q0 37 -21 56.5t-55 19.5h-66v-160z" />
<glyph unicode="&#xaf;" horiz-adv-x="1285" d="M226 1239v240h839v-240h-839z" />
<glyph unicode="&#xb0;" horiz-adv-x="848" d="M76 1157q0 143 101 244t242 101q143 0 244.5 -101t101.5 -244q0 -142 -102 -244t-244 -102q-147 0 -245 96.5t-98 249.5zM260 1155q0 -69 45.5 -114.5t113.5 -45.5t114 45t46 115t-46 115.5t-114 45.5t-113.5 -45.5t-45.5 -115.5z" />
<glyph unicode="&#xb1;" d="M222 0v217h931v-217h-931zM222 611v220h354v313h226v-313h351v-220h-351v-305h-226v305h-354z" />
<glyph unicode="&#xb4;" horiz-adv-x="1173" d="M392 1288l361 378l191 -225l-421 -302z" />
<glyph unicode="&#xb6;" horiz-adv-x="1422" d="M90 1047q0 205 129 344.5t340 139.5h691v-1997h-265v1739h-121v-1739h-267l3 1049h-41q-206 0 -337.5 127t-131.5 337z" />
<glyph unicode="&#xb7;" horiz-adv-x="648" d="M117 574q0 85 51 135t154 50q106 0 158.5 -50t52.5 -135q0 -84 -53.5 -135.5t-157.5 -51.5q-103 0 -154 51.5t-51 135.5z" />
<glyph unicode="&#xb8;" horiz-adv-x="1079" d="M390 -441q105 9 162 40t57 74q0 62 -112 62q-12 0 -32 -1t-26 -1l-43 70l226 296l105 -62q-41 -53 -116 -156q104 -9 164 -59t60 -130q0 -109 -111 -182t-332 -76q0 22 -1 63.5t-1 61.5z" />
<glyph unicode="&#xba;" horiz-adv-x="919" d="M49 931q0 163 105 263.5t308 100.5t305.5 -100t102.5 -264q0 -165 -104 -266t-310 -101q-202 0 -304.5 100t-102.5 267zM355 929q0 -77 23 -121.5t84 -44.5q102 0 102 168q0 161 -102 161q-107 0 -107 -163z" />
<glyph unicode="&#xbb;" horiz-adv-x="1162" d="M80 788l160 109l390 -419v-80l-382 -419l-164 115l224 345zM544 788l162 109l390 -419v-80l-384 -419l-164 115l222 345z" />
<glyph unicode="&#xbf;" horiz-adv-x="1160" d="M111 -103q0 107 49 187.5t139 160.5q119 106 154 145q70 81 70 156q0 44 -6 80q23 0 170 2t167 2q10 -43 10 -140q0 -61 -14.5 -112t-47.5 -98.5t-61 -77.5t-78 -79q-60 -54 -86.5 -91.5t-26.5 -89.5q0 -59 42.5 -91t117.5 -32q148 0 312 56q18 -78 84 -271 q-241 -90 -489 -90q-236 0 -371 106t-135 277zM474 903q0 81 50 130t149 49t149.5 -49t50.5 -130q0 -80 -50.5 -128t-147.5 -48q-101 0 -151 47.5t-50 128.5z" />
<glyph unicode="&#xc0;" horiz-adv-x="1573" d="M15 0l518 1484h534l492 -1484h-434l-91 303h-507l-94 -303h-418zM417 1869l180 212l364 -376l-122 -135zM615 579h339l-88 311l-70 308h-14l-78 -318z" />
<glyph unicode="&#xc1;" horiz-adv-x="1573" d="M15 0l518 1484h534l492 -1484h-434l-91 303h-507l-94 -303h-418zM615 579h339l-88 311l-70 308h-14l-78 -318zM681 1695l360 378l189 -212l-428 -302z" />
<glyph unicode="&#xc2;" horiz-adv-x="1573" d="M15 0l518 1484h534l492 -1484h-434l-91 303h-507l-94 -303h-418zM344 1656l335 333h246l341 -331l-94 -109l-372 199l-365 -199zM615 579h339l-88 311l-70 308h-14l-78 -318z" />
<glyph unicode="&#xc3;" horiz-adv-x="1573" d="M15 0l518 1484h534l492 -1484h-434l-91 303h-507l-94 -303h-418zM342 1709q81 228 247 228q70 0 213.5 -40t203.5 -40l121 89l108 -85q-79 -236 -244 -236q-86 0 -233 42t-188 42l-118 -84zM615 579h339l-88 311l-70 308h-14l-78 -318z" />
<glyph unicode="&#xc4;" horiz-adv-x="1573" d="M15 0l518 1484h534l492 -1484h-434l-91 303h-507l-94 -303h-418zM353 1720q0 76 45.5 121t137.5 45q96 0 145.5 -45t49.5 -121q0 -74 -50 -119.5t-145 -45.5q-92 0 -137.5 45.5t-45.5 119.5zM615 579h339l-88 311l-70 308h-14l-78 -318zM849 1720q0 76 47.5 121t137.5 45 q97 0 144 -44.5t47 -121.5q0 -74 -47.5 -119.5t-143.5 -45.5q-91 0 -138 45.5t-47 119.5z" />
<glyph unicode="&#xc5;" horiz-adv-x="1573" d="M15 0l518 1484h162q-87 29 -140.5 101t-53.5 163q0 116 86.5 200t208.5 84q124 0 203.5 -82.5t79.5 -201.5q0 -91 -51.5 -163t-132.5 -101h172l492 -1484h-434l-91 303h-507l-94 -303h-418zM615 579h339l-88 311l-70 308h-14l-78 -318zM677 1742q0 -46 32.5 -80t86.5 -34 q49 0 79 34t30 80q0 50 -29 85.5t-80 35.5q-50 0 -84.5 -36t-34.5 -85z" />
<glyph unicode="&#xc6;" horiz-adv-x="2390" d="M15 0q411 670 918 1484h1308v-288h-639v-291h532v-273h-532v-342h660v-290h-1084v346h-501q-145 -243 -209 -346h-453zM835 622h341v568h-13q-64 -123 -161 -285z" />
<glyph unicode="&#xc7;" horiz-adv-x="1405" d="M99 733q0 119 21 225t75.5 211t139 179.5t222 121t313.5 46.5q206 0 412 -63l-52 -304q-152 35 -301 35q-185 0 -283 -101t-98 -328q0 -248 92.5 -346.5t301.5 -98.5q54 0 161.5 13t182.5 32l64 -293q-194 -72 -443 -83l-96 -133q104 -10 163.5 -60.5t59.5 -129.5 q0 -109 -110.5 -181.5t-332.5 -76.5q0 22 -1 63t-1 61q105 10 162 41t57 74q0 62 -111 62q-11 0 -31.5 -1t-27.5 -1l-43 69l162 213q-153 9 -270 54.5t-189.5 113.5t-118.5 164t-63 197.5t-17 224.5z" />
<glyph unicode="&#xc8;" horiz-adv-x="1375" d="M142 0v1484h1114v-288h-686v-282h574v-284h-574v-337h714v-293h-1142zM408 1869l181 212l363 -376l-121 -135z" />
<glyph unicode="&#xc9;" horiz-adv-x="1375" d="M142 0v1484h1114v-288h-686v-282h574v-284h-574v-337h714v-293h-1142zM566 1701l359 378l189 -212l-428 -301z" />
<glyph unicode="&#xca;" horiz-adv-x="1375" d="M142 0v1484h1114v-288h-686v-282h574v-284h-574v-337h714v-293h-1142zM262 1684l335 333h246l341 -331l-94 -110l-372 201l-365 -201z" />
<glyph unicode="&#xcb;" horiz-adv-x="1375" d="M142 0v1484h1114v-288h-686v-282h574v-284h-574v-337h714v-293h-1142zM271 1720q0 76 45.5 121t137.5 45q96 0 145.5 -45t49.5 -121q0 -74 -50 -119.5t-145 -45.5q-92 0 -137.5 45.5t-45.5 119.5zM768 1720q0 76 47 121t137 45q97 0 144.5 -45t47.5 -121 q0 -74 -48 -119.5t-144 -45.5q-91 0 -137.5 45.5t-46.5 119.5z" />
<glyph unicode="&#xcc;" horiz-adv-x="737" d="M10 1871l181 213l363 -377l-121 -135zM158 0v1484h421v-1484h-421z" />
<glyph unicode="&#xcd;" horiz-adv-x="737" d="M158 0v1484h421v-1484h-421zM224 1716l359 379l189 -213l-428 -302z" />
<glyph unicode="&#xce;" horiz-adv-x="737" d="M-97 1690l335 333h246l341 -330l-94 -111l-372 201l-365 -201zM158 0v1484h421v-1484h-421z" />
<glyph unicode="&#xcf;" horiz-adv-x="737" d="M-69 1746q0 76 46 121t137 45q97 0 146.5 -45t49.5 -121q0 -73 -50 -119.5t-146 -46.5q-91 0 -137 46.5t-46 119.5zM158 0v1484h421v-1484h-421zM428 1746q0 76 47.5 121t137.5 45q97 0 144 -44.5t47 -121.5q0 -73 -47.5 -119.5t-143.5 -46.5q-91 0 -138 46.5t-47 119.5z " />
<glyph unicode="&#xd0;" horiz-adv-x="1560" d="M24 677v177h120v630h615q163 0 287 -39t201 -104.5t126.5 -162t68.5 -200.5t19 -231q0 -123 -22.5 -229.5t-74.5 -203.5t-131.5 -165t-202 -108.5t-277.5 -40.5h-609v677h-120zM570 295h150q134 0 217 109t83 336q0 233 -82.5 344.5t-225.5 111.5h-142v-342h206v-177 h-206v-382z" />
<glyph unicode="&#xd1;" horiz-adv-x="1697" d="M142 0v1482h430q85 -126 231 -355.5t195 -303.5l129 -214h14v873h412v-1482h-428q-69 104 -143 221.5t-164.5 263.5t-140.5 225q-47 78 -113 193q-2 0 -7 -1t-7 -1v-901h-408zM408 1714q81 227 248 227q71 0 214 -39t203 -39l121 88l107 -86q-79 -235 -243 -235 q-86 0 -233.5 42t-188.5 42l-117 -84z" />
<glyph unicode="&#xd2;" horiz-adv-x="1685" d="M101 744q0 166 45.5 304t135 243t233.5 164t330 59q187 0 331 -59t232.5 -163t133.5 -242.5t45 -302.5q0 -167 -48 -307t-139 -244t-233 -162t-322 -58q-186 0 -328.5 56t-233.5 159t-136.5 242.5t-45.5 310.5zM497 1892l180 213l364 -376l-123 -135zM548 742 q0 -114 15 -197t48.5 -145.5t91.5 -93.5t142 -31q80 0 136.5 33.5t89.5 97.5t47.5 147t14.5 191q0 82 -7.5 148t-27 128.5t-51 104.5t-82.5 67t-120 25q-70 0 -123 -25.5t-85.5 -69t-53 -106t-28 -128.5t-7.5 -146z" />
<glyph unicode="&#xd3;" horiz-adv-x="1685" d="M101 744q0 166 45.5 304t135 243t233.5 164t330 59q187 0 331 -59t232.5 -163t133.5 -242.5t45 -302.5q0 -167 -48 -307t-139 -244t-233 -162t-322 -58q-186 0 -328.5 56t-233.5 159t-136.5 242.5t-45.5 310.5zM548 742q0 -114 15 -197t48.5 -145.5t91.5 -93.5t142 -31 q80 0 136.5 33.5t89.5 97.5t47.5 147t14.5 191q0 82 -7.5 148t-27 128.5t-51 104.5t-82.5 67t-120 25q-70 0 -123 -25.5t-85.5 -69t-53 -106t-28 -128.5t-7.5 -146zM733 1729l359 378l190 -213l-428 -300z" />
<glyph unicode="&#xd4;" horiz-adv-x="1685" d="M101 744q0 166 45.5 304t135 243t233.5 164t330 59q187 0 331 -59t232.5 -163t133.5 -242.5t45 -302.5q0 -167 -48 -307t-139 -244t-233 -162t-322 -58q-186 0 -328.5 56t-233.5 159t-136.5 242.5t-45.5 310.5zM396 1684l335 333h245l342 -331l-95 -110l-371 201 l-366 -201zM548 742q0 -114 15 -197t48.5 -145.5t91.5 -93.5t142 -31q80 0 136.5 33.5t89.5 97.5t47.5 147t14.5 191q0 82 -7.5 148t-27 128.5t-51 104.5t-82.5 67t-120 25q-70 0 -123 -25.5t-85.5 -69t-53 -106t-28 -128.5t-7.5 -146z" />
<glyph unicode="&#xd5;" horiz-adv-x="1685" d="M101 744q0 166 45.5 304t135 243t233.5 164t330 59q187 0 331 -59t232.5 -163t133.5 -242.5t45 -302.5q0 -167 -48 -307t-139 -244t-233 -162t-322 -58q-186 0 -328.5 56t-233.5 159t-136.5 242.5t-45.5 310.5zM404 1736q81 228 248 228q70 0 213.5 -40t203.5 -40l121 88 l107 -86q-78 -234 -243 -234q-86 0 -233.5 42t-188.5 42l-119 -84zM548 742q0 -114 15 -197t48.5 -145.5t91.5 -93.5t142 -31q80 0 136.5 33.5t89.5 97.5t47.5 147t14.5 191q0 82 -7.5 148t-27 128.5t-51 104.5t-82.5 67t-120 25q-70 0 -123 -25.5t-85.5 -69t-53 -106 t-28 -128.5t-7.5 -146z" />
<glyph unicode="&#xd6;" horiz-adv-x="1685" d="M101 744q0 166 45.5 304t135 243t233.5 164t330 59q187 0 331 -59t232.5 -163t133.5 -242.5t45 -302.5q0 -167 -48 -307t-139 -244t-233 -162t-322 -58q-186 0 -328.5 56t-233.5 159t-136.5 242.5t-45.5 310.5zM402 1761q0 75 46 120.5t137 45.5q96 0 145.5 -45.5 t49.5 -120.5q0 -74 -50 -119.5t-145 -45.5q-91 0 -137 45.5t-46 119.5zM548 742q0 -114 15 -197t48.5 -145.5t91.5 -93.5t142 -31q80 0 136.5 33.5t89.5 97.5t47.5 147t14.5 191q0 82 -7.5 148t-27 128.5t-51 104.5t-82.5 67t-120 25q-70 0 -123 -25.5t-85.5 -69t-53 -106 t-28 -128.5t-7.5 -146zM899 1761q0 75 47 120.5t138 45.5q96 0 143.5 -44.5t47.5 -121.5q0 -74 -48 -119.5t-143 -45.5q-92 0 -138.5 45.5t-46.5 119.5z" />
<glyph unicode="&#xd8;" horiz-adv-x="1672" d="M92 744q0 166 46 304t135.5 243t234.5 164t331 59q279 0 464 -133l117 135h174l-194 -221q180 -206 180 -548q0 -167 -47.5 -307t-138.5 -244t-233.5 -162t-321.5 -58q-287 0 -474 135l-111 -130h-153l176 206q-185 204 -185 557zM542 742q0 -135 28 -225l486 584 q-69 116 -217 116q-70 0 -123 -25.5t-86 -69t-53.5 -106t-27.5 -128.5t-7 -146zM613 383q72 -108 226 -108q80 0 136.5 33.5t89 97.5t47.5 147t15 191q0 139 -31 220z" />
<glyph unicode="&#xd9;" horiz-adv-x="1599" d="M138 556v928h416v-946q0 -137 63 -200t189 -63q112 0 177.5 62.5t65.5 200.5l-2 946h416l-2 -928q0 -577 -659 -577q-349 0 -506.5 147.5t-157.5 429.5zM441 1892l181 213l363 -376l-123 -135z" />
<glyph unicode="&#xda;" horiz-adv-x="1599" d="M138 556v928h416v-946q0 -137 63 -200t189 -63q112 0 177.5 62.5t65.5 200.5l-2 946h416l-2 -928q0 -577 -659 -577q-349 0 -506.5 147.5t-157.5 429.5zM654 1729l359 378l189 -213l-428 -300z" />
<glyph unicode="&#xdb;" horiz-adv-x="1599" d="M138 556v928h416v-946q0 -137 63 -200t189 -63q112 0 177.5 62.5t65.5 200.5l-2 946h416l-2 -928q0 -577 -659 -577q-349 0 -506.5 147.5t-157.5 429.5zM318 1701l349 327h256l355 -325l-100 -107l-386 195l-379 -195z" />
<glyph unicode="&#xdc;" horiz-adv-x="1599" d="M138 556v928h416v-946q0 -137 63 -200t189 -63q112 0 177.5 62.5t65.5 200.5l-2 946h416l-2 -928q0 -577 -659 -577q-349 0 -506.5 147.5t-157.5 429.5zM361 1736q0 75 46 119.5t137 44.5q96 0 146 -44.5t50 -119.5q0 -74 -50.5 -120t-145.5 -46q-91 0 -137 46t-46 120z M858 1736q0 75 47 119.5t138 44.5q96 0 144 -44.5t48 -119.5q0 -74 -48.5 -120t-143.5 -46q-92 0 -138.5 46t-46.5 120z" />
<glyph unicode="&#xdd;" horiz-adv-x="1498" d="M13 1482h443q22 -49 80.5 -176.5t89.5 -197.5l114 -293h17q20 44 60 152.5t61 152.5q97 214 169 362h435q-84 -158 -251.5 -477t-251.5 -476v-529h-458v495zM622 1701l359 378l189 -212l-428 -301z" />
<glyph unicode="&#xde;" horiz-adv-x="1352" d="M142 0v1484h426v-273h197q281 0 413.5 -127.5t132.5 -346.5q0 -92 -31.5 -174.5t-92 -150.5t-162 -107.5t-229.5 -39.5h-228v-265h-426zM568 546h140q77 0 125.5 45.5t48.5 139.5q0 99 -50 144.5t-135 45.5h-129v-375z" />
<glyph unicode="&#xdf;" horiz-adv-x="1535" d="M51 792v217h136v169q0 40 10 82t32.5 91.5t65 92t100.5 78t145.5 56t194.5 20.5q118 0 210.5 -23.5t148.5 -60t92 -83t50 -88.5t14 -81q0 -58 -21 -111t-51.5 -90t-60.5 -68.5t-51 -58.5t-21 -46q0 -22 24 -48t63 -53.5t85.5 -60t93.5 -74.5t85.5 -88.5t63 -110 t24.5 -133.5q0 -168 -125.5 -264.5t-349.5 -96.5q-149 0 -310 41l58 262q107 -30 191 -30q54 0 86.5 22.5t32.5 63.5q0 37 -21 73.5t-54 70t-73.5 68.5t-81.5 73.5t-74 78t-54 90.5t-21 106q0 62 30 116t65 86t65 68.5t30 68.5q0 37 -35.5 68t-102.5 31q-151 0 -151 -181 v-1135h-402v792h-136z" />
<glyph unicode="&#xe0;" horiz-adv-x="1328" d="M51 288q0 117 71.5 204t226.5 110q47 8 112.5 14.5t153 13t129.5 10.5v18q0 72 -39 105t-135 33q-79 0 -177 -13.5t-165 -35.5l-60 248q97 40 237 65.5t264 25.5q221 0 342.5 -89.5t121.5 -292.5v-439h133q16 -189 18 -228q-136 -63 -318 -63q-82 0 -133.5 27t-62.5 98 q0 1 -4 2q-2 1 -3 2q-141 -129 -365 -129q-80 0 -143 21t-100 53t-61.5 75.5t-33.5 83.5t-9 81zM314 1428l207 240q19 -24 182.5 -184t182.5 -183l-139 -164zM476 333q3 -59 27 -84t78 -25q35 0 82.5 16t78.5 44v168q-20 -3 -62.5 -6.5t-64 -6t-53 -10t-47 -18.5t-27.5 -31 t-12 -47z" />
<glyph unicode="&#xe1;" horiz-adv-x="1328" d="M51 288q0 117 71.5 204t226.5 110q47 8 112.5 14.5t153 13t129.5 10.5v18q0 72 -39 105t-135 33q-79 0 -177 -13.5t-165 -35.5l-60 248q97 40 237 65.5t264 25.5q221 0 342.5 -89.5t121.5 -292.5v-439h133q16 -189 18 -228q-136 -63 -318 -63q-82 0 -133.5 27t-62.5 98 q0 1 -4 2q-2 1 -3 2q-141 -129 -365 -129q-80 0 -143 21t-100 53t-61.5 75.5t-33.5 83.5t-9 81zM466 1288l361 378l193 -225l-423 -302zM476 333q3 -59 27 -84t78 -25q35 0 82.5 16t78.5 44v168q-20 -3 -62.5 -6.5t-64 -6t-53 -10t-47 -18.5t-27.5 -31t-12 -47z" />
<glyph unicode="&#xe2;" horiz-adv-x="1328" d="M51 288q0 117 71.5 204t226.5 110q47 8 112.5 14.5t153 13t129.5 10.5v18q0 72 -39 105t-135 33q-79 0 -177 -13.5t-165 -35.5l-60 248q97 40 237 65.5t264 25.5q221 0 342.5 -89.5t121.5 -292.5v-439h133q16 -189 18 -228q-136 -63 -318 -63q-82 0 -133.5 27t-62.5 98 q0 1 -4 2q-2 1 -3 2q-141 -129 -365 -129q-80 0 -143 21t-100 53t-61.5 75.5t-33.5 83.5t-9 81zM185 1245l338 349h245l342 -347l-97 -112l-370 209l-372 -207zM476 333q3 -59 27 -84t78 -25q35 0 82.5 16t78.5 44v168q-20 -3 -62.5 -6.5t-64 -6t-53 -10t-47 -18.5 t-27.5 -31t-12 -47z" />
<glyph unicode="&#xe3;" horiz-adv-x="1328" d="M51 288q0 117 71.5 204t226.5 110q47 8 112.5 14.5t153 13t129.5 10.5v18q0 72 -39 105t-135 33q-79 0 -177 -13.5t-165 -35.5l-60 248q97 40 237 65.5t264 25.5q221 0 342.5 -89.5t121.5 -292.5v-439h133q16 -189 18 -228q-136 -63 -318 -63q-82 0 -133.5 27t-62.5 98 q0 1 -4 2q-2 1 -3 2q-141 -129 -365 -129q-80 0 -143 21t-100 53t-61.5 75.5t-33.5 83.5t-9 81zM207 1297q81 228 247 228q70 0 213.5 -40t202.5 -40l121 88l108 -86q-77 -234 -243 -234q-86 0 -233 42t-188 42l-119 -84zM476 333q3 -59 27 -84t78 -25q35 0 82.5 16t78.5 44 v168q-20 -3 -62.5 -6.5t-64 -6t-53 -10t-47 -18.5t-27.5 -31t-12 -47z" />
<glyph unicode="&#xe4;" horiz-adv-x="1328" d="M51 288q0 117 71.5 204t226.5 110q47 8 112.5 14.5t153 13t129.5 10.5v18q0 72 -39 105t-135 33q-79 0 -177 -13.5t-165 -35.5l-60 248q97 40 237 65.5t264 25.5q221 0 342.5 -89.5t121.5 -292.5v-439h133q16 -189 18 -228q-136 -63 -318 -63q-82 0 -133.5 27t-62.5 98 q0 1 -4 2q-2 1 -3 2q-141 -129 -365 -129q-80 0 -143 21t-100 53t-61.5 75.5t-33.5 83.5t-9 81zM205 1374q0 76 45.5 120.5t136.5 44.5q97 0 146.5 -44.5t49.5 -120.5q0 -73 -50 -119t-146 -46q-91 0 -136.5 46t-45.5 119zM476 333q3 -59 27 -84t78 -25q35 0 82.5 16 t78.5 44v168q-20 -3 -62.5 -6.5t-64 -6t-53 -10t-47 -18.5t-27.5 -31t-12 -47zM701 1374q0 76 47.5 120.5t137.5 44.5q97 0 144 -44.5t47 -120.5q0 -73 -47.5 -119t-143.5 -46q-91 0 -138 46t-47 119z" />
<glyph unicode="&#xe5;" horiz-adv-x="1328" d="M51 288q0 117 71.5 204t226.5 110q47 8 112.5 14.5t153 13t129.5 10.5v18q0 72 -39 105t-135 33q-79 0 -177 -13.5t-165 -35.5l-60 248q97 40 237 65.5t264 25.5q221 0 342.5 -89.5t121.5 -292.5v-439h133q16 -189 18 -228q-136 -63 -318 -63q-82 0 -133.5 27t-62.5 98 q0 1 -4 2q-2 1 -3 2q-141 -129 -365 -129q-80 0 -143 21t-100 53t-61.5 75.5t-33.5 83.5t-9 81zM376 1455q0 116 86.5 200.5t208.5 84.5q124 0 203.5 -83t79.5 -201.5t-82 -200t-201 -81.5q-123 0 -209 82.5t-86 198.5zM476 333q3 -59 27 -84t78 -25q35 0 82.5 16t78.5 44 v168q-20 -3 -62.5 -6.5t-64 -6t-53 -10t-47 -18.5t-27.5 -31t-12 -47zM552 1449q0 -46 32 -79.5t87 -33.5q49 0 79 33.5t30 79.5q0 50 -29 85.5t-80 35.5q-50 0 -84.5 -36t-34.5 -85z" />
<glyph unicode="&#xe6;" horiz-adv-x="1855" d="M58 288q0 42 7 82.5t32.5 89.5t66 85t114 60.5t169.5 24.5h308v28q0 75 -43.5 107.5t-143.5 32.5q-195 0 -349 -49q-51 199 -65 246q192 78 431 89q42 0 73 -1t82 -8.5t89 -20.5t77.5 -39.5t63.5 -62.5q136 136 327 136q117 0 206.5 -32.5t142.5 -84t86.5 -123.5 t45 -140.5t11.5 -145.5v-94h-638q3 -103 56 -151t167 -48q134 0 316 58q11 -34 36 -115t39 -126q-190 -105 -466 -105q-165 0 -262.5 35t-160.5 113q-187 -155 -446 -155q-87 0 -154.5 21t-107.5 53.5t-65.5 76t-35 83t-9.5 80.5zM478 344q0 -118 117 -118q37 0 90.5 19 t90.5 52q-22 71 -25 167h-74q-45 0 -77 -4.5t-62 -16t-45 -37t-15 -62.5zM1157 632h273q0 88 -27 134.5t-102 46.5q-74 0 -105.5 -49t-38.5 -132z" />
<glyph unicode="&#xe7;" horiz-adv-x="1089" d="M69 521q0 88 14 163.5t52 151.5t98.5 129t161 87t231.5 34q187 0 350 -50l-51 -283q-105 21 -217 21q-222 0 -222 -245q0 -124 48 -180t165 -56q123 0 269 42q41 -154 68 -273q-164 -76 -396 -83q-13 -17 -36.5 -51.5t-33.5 -46.5q104 -9 164 -59t60 -130 q0 -109 -111 -182t-332 -76q0 22 -1 63.5t-1 61.5q105 9 162 40t57 74q0 62 -112 62q-12 0 -32 -1t-26 -1l-43 70l140 182q-102 12 -178.5 47t-123 84t-75 116.5t-39 136t-10.5 152.5z" />
<glyph unicode="&#xe8;" horiz-adv-x="1235" d="M74 529q0 85 15.5 162t55.5 151.5t102 128t160 86.5t223 33q101 0 181 -17.5t135.5 -45t96 -70.5t63 -86.5t36 -99.5t17.5 -103t4 -104v-96h-679q1 -99 60.5 -144t177.5 -45q146 0 343 61l76 -252q-202 -109 -492 -109q-136 0 -238 30.5t-165 80t-103 122.5t-54.5 149 t-14.5 168zM314 1428l207 240q19 -24 182.5 -184t182.5 -183l-139 -164zM488 663h308q-2 85 -34 132.5t-110 47.5q-148 0 -164 -180z" />
<glyph unicode="&#xe9;" horiz-adv-x="1235" d="M74 529q0 85 15.5 162t55.5 151.5t102 128t160 86.5t223 33q101 0 181 -17.5t135.5 -45t96 -70.5t63 -86.5t36 -99.5t17.5 -103t4 -104v-96h-679q1 -99 60.5 -144t177.5 -45q146 0 343 61l76 -252q-202 -109 -492 -109q-136 0 -238 30.5t-165 80t-103 122.5t-54.5 149 t-14.5 168zM462 1288l361 378l192 -225l-422 -302zM488 663h308q-2 85 -34 132.5t-110 47.5q-148 0 -164 -180z" />
<glyph unicode="&#xea;" horiz-adv-x="1235" d="M74 529q0 85 15.5 162t55.5 151.5t102 128t160 86.5t223 33q101 0 181 -17.5t135.5 -45t96 -70.5t63 -86.5t36 -99.5t17.5 -103t4 -104v-96h-679q1 -99 60.5 -144t177.5 -45q146 0 343 61l76 -252q-202 -109 -492 -109q-136 0 -238 30.5t-165 80t-103 122.5t-54.5 149 t-14.5 168zM200 1245l338 349h244l343 -347l-97 -112l-370 209l-372 -207zM488 663h308q-2 85 -34 132.5t-110 47.5q-148 0 -164 -180z" />
<glyph unicode="&#xeb;" horiz-adv-x="1235" d="M74 529q0 85 15.5 162t55.5 151.5t102 128t160 86.5t223 33q101 0 181 -17.5t135.5 -45t96 -70.5t63 -86.5t36 -99.5t17.5 -103t4 -104v-96h-679q1 -99 60.5 -144t177.5 -45q146 0 343 61l76 -252q-202 -109 -492 -109q-136 0 -238 30.5t-165 80t-103 122.5t-54.5 149 t-14.5 168zM207 1374q0 76 45.5 120.5t137.5 44.5q96 0 145.5 -44.5t49.5 -120.5q0 -73 -50 -119t-145 -46q-92 0 -137.5 46t-45.5 119zM488 663h308q-2 85 -34 132.5t-110 47.5q-148 0 -164 -180zM704 1374q0 76 47 120.5t137 44.5q97 0 144 -44.5t47 -120.5 q0 -73 -47.5 -119t-143.5 -46q-91 0 -137.5 46t-46.5 119z" />
<glyph unicode="&#xec;" horiz-adv-x="718" d="M-2 1428l207 240q18 -24 182 -184t183 -183l-140 -164zM152 0v1060h412v-1060h-412z" />
<glyph unicode="&#xed;" horiz-adv-x="718" d="M152 0v1060h412v-1060h-412zM207 1288l361 378l191 -225l-421 -302z" />
<glyph unicode="&#xee;" horiz-adv-x="718" d="M-99 1245l337 349h246l341 -347l-96 -112l-370 209l-372 -207zM152 0v1060h412v-1060h-412z" />
<glyph unicode="&#xef;" horiz-adv-x="718" d="M-64 1383q0 75 45.5 120.5t137.5 45.5q96 0 145.5 -45.5t49.5 -120.5q0 -74 -50 -120t-145 -46q-92 0 -137.5 46t-45.5 120zM152 0v1060h412v-1060h-412zM433 1383q0 75 47 120.5t137 45.5q97 0 144 -44.5t47 -121.5q0 -74 -47.5 -120t-143.5 -46q-91 0 -137.5 46 t-46.5 120z" />
<glyph unicode="&#xf0;" horiz-adv-x="1354" d="M88 490q0 140 64.5 258.5t186.5 190.5t276 72q131 0 216 -45q-40 141 -139 255l-187 -122l-66 101l161 105q-62 54 -179 125l102 191q172 -64 314 -158l176 119l73 -100l-144 -93q358 -293 322 -815q-5 -86 -23 -162.5t-61 -158.5t-108 -140t-172 -96t-244 -38 q-126 0 -225.5 30t-162.5 78.5t-104.5 116t-58.5 138.5t-17 148zM495 507q0 -40 3 -72t13.5 -69t29 -62.5t52 -42t78.5 -16.5q57 0 97 28.5t59.5 78.5t28 101t8.5 111q0 73 -8 133q-90 56 -177 56q-51 0 -89 -21t-58 -57.5t-28.5 -78t-8.5 -89.5z" />
<glyph unicode="&#xf1;" horiz-adv-x="1317" d="M92 0v1063h386l6 -104l13 -5q89 63 192.5 98.5t183.5 35.5q99 0 168.5 -26.5t108.5 -78.5t55 -119t16 -158v-706h-413v624q0 77 -25.5 113.5t-98.5 36.5q-37 0 -86.5 -16.5t-90.5 -43.5v-714h-415zM185 1307q81 228 248 228q70 0 213.5 -40t202.5 -40l121 89l107 -86 q-78 -235 -242 -235q-86 0 -233.5 42t-188.5 42l-118 -84z" />
<glyph unicode="&#xf2;" d="M74 531q0 122 33 220t101.5 174.5t184.5 118.5t272 42t271.5 -42t183.5 -118.5t100 -174t32 -218.5q0 -95 -20 -177t-65.5 -152.5t-113 -119.5t-168.5 -77t-227 -28t-225.5 27.5t-166 75.5t-110.5 118.5t-63 152t-19 178.5zM308 1428l205 240q19 -24 184 -184t183 -183 l-140 -164zM495 531q0 -137 35.5 -205t134.5 -68q92 0 127 70t35 203q0 131 -35 202t-127 71q-170 0 -170 -273z" />
<glyph unicode="&#xf3;" d="M74 531q0 122 33 220t101.5 174.5t184.5 118.5t272 42t271.5 -42t183.5 -118.5t100 -174t32 -218.5q0 -95 -20 -177t-65.5 -152.5t-113 -119.5t-168.5 -77t-227 -28t-225.5 27.5t-166 75.5t-110.5 118.5t-63 152t-19 178.5zM495 531q0 -137 35.5 -205t134.5 -68 q92 0 127 70t35 203q0 131 -35 202t-127 71q-170 0 -170 -273zM519 1288l361 378l191 -225l-422 -302z" />
<glyph unicode="&#xf4;" d="M74 531q0 122 33 220t101.5 174.5t184.5 118.5t272 42t271.5 -42t183.5 -118.5t100 -174t32 -218.5q0 -95 -20 -177t-65.5 -152.5t-113 -119.5t-168.5 -77t-227 -28t-225.5 27.5t-166 75.5t-110.5 118.5t-63 152t-19 178.5zM207 1245l337 349h246l341 -347l-97 -112 l-369 209l-372 -207zM495 531q0 -137 35.5 -205t134.5 -68q92 0 127 70t35 203q0 131 -35 202t-127 71q-170 0 -170 -273z" />
<glyph unicode="&#xf5;" d="M74 531q0 122 33 220t101.5 174.5t184.5 118.5t272 42t271.5 -42t183.5 -118.5t100 -174t32 -218.5q0 -95 -20 -177t-65.5 -152.5t-113 -119.5t-168.5 -77t-227 -28t-225.5 27.5t-166 75.5t-110.5 118.5t-63 152t-19 178.5zM219 1278q81 228 247 228q71 0 214.5 -40 t203.5 -40l120 88l108 -86q-78 -234 -244 -234q-86 0 -233 42t-188 42l-118 -84zM495 531q0 -137 35.5 -205t134.5 -68q92 0 127 70t35 203q0 131 -35 202t-127 71q-170 0 -170 -273z" />
<glyph unicode="&#xf6;" d="M74 531q0 122 33 220t101.5 174.5t184.5 118.5t272 42t271.5 -42t183.5 -118.5t100 -174t32 -218.5q0 -95 -20 -177t-65.5 -152.5t-113 -119.5t-168.5 -77t-227 -28t-225.5 27.5t-166 75.5t-110.5 118.5t-63 152t-19 178.5zM228 1374q0 76 45.5 120.5t137.5 44.5 q96 0 146 -44.5t50 -120.5q0 -73 -50.5 -119t-145.5 -46q-92 0 -137.5 46t-45.5 119zM495 531q0 -137 35.5 -205t134.5 -68q92 0 127 70t35 203q0 131 -35 202t-127 71q-170 0 -170 -273zM724 1374q0 76 47.5 120.5t137.5 44.5q97 0 144.5 -44.5t47.5 -120.5q0 -73 -48 -119 t-144 -46q-91 0 -138 46t-47 119z" />
<glyph unicode="&#xf7;" d="M185 548v220h950v-220h-950zM492 267q0 70 49.5 119t119 49t118 -49t48.5 -119q0 -69 -48.5 -118.5t-115.5 -49.5q-71 0 -121 49.5t-50 118.5zM492 1049q0 69 49.5 118.5t119 49.5t118 -49.5t48.5 -118.5t-48 -118t-116 -49q-71 0 -121 49.5t-50 117.5z" />
<glyph unicode="&#xf8;" horiz-adv-x="1311" d="M66 531q0 121 33 219.5t102.5 175t185.5 118.5t271 42q225 0 370 -93q2 3 39.5 42.5t40.5 46.5h135q-4 -6 -67.5 -72t-69.5 -74q139 -146 139 -403q0 -95 -20 -177t-65 -152.5t-112.5 -119.5t-168.5 -77t-227 -28q-230 0 -368 87l-73 -81h-135q16 17 70.5 74t60.5 66 q-141 141 -141 406zM488 533q0 -78 13 -110q23 32 137 160.5t138 158.5q-37 60 -118 60q-170 0 -170 -269zM531 314q40 -56 127 -56q93 0 128 70t35 203q0 71 -15 101q-23 -31 -137 -159t-138 -159z" />
<glyph unicode="&#xf9;" horiz-adv-x="1291" d="M92 355v708h413v-624q0 -74 23 -112.5t92 -38.5q81 0 162 69v706h414v-1063h-377l-13 111l-12 6q-84 -71 -186 -106t-180 -35q-100 0 -167.5 25.5t-103.5 78t-50.5 117.5t-14.5 158zM318 1428l207 240q19 -24 183 -184t182 -183l-139 -164z" />
<glyph unicode="&#xfa;" horiz-adv-x="1291" d="M92 355v708h413v-624q0 -74 23 -112.5t92 -38.5q81 0 162 69v706h414v-1063h-377l-13 111l-12 6q-84 -71 -186 -106t-180 -35q-100 0 -167.5 25.5t-103.5 78t-50.5 117.5t-14.5 158zM501 1288l361 378l192 -225l-422 -302z" />
<glyph unicode="&#xfb;" horiz-adv-x="1291" d="M92 355v708h413v-624q0 -74 23 -112.5t92 -38.5q81 0 162 69v706h414v-1063h-377l-13 111l-12 6q-84 -71 -186 -106t-180 -35q-100 0 -167.5 25.5t-103.5 78t-50.5 117.5t-14.5 158zM181 1245l338 349h244l343 -347l-97 -112l-371 209l-371 -207z" />
<glyph unicode="&#xfc;" horiz-adv-x="1291" d="M92 355v708h413v-624q0 -74 23 -112.5t92 -38.5q81 0 162 69v706h414v-1063h-377l-13 111l-12 6q-84 -71 -186 -106t-180 -35q-100 0 -167.5 25.5t-103.5 78t-50.5 117.5t-14.5 158zM209 1383q0 75 45.5 120.5t137.5 45.5q96 0 145.5 -45.5t49.5 -120.5q0 -74 -50 -120 t-145 -46q-92 0 -137.5 46t-45.5 120zM706 1383q0 75 47 120.5t137 45.5q97 0 144.5 -44.5t47.5 -121.5q0 -74 -48 -120t-144 -46q-91 0 -137.5 46t-46.5 120z" />
<glyph unicode="&#xfd;" horiz-adv-x="1281" d="M24 1063h406q12 -39 69 -267.5t71 -272.5q11 -45 27 -140.5t23 -126.5h16q6 21 28 121.5t35 153.5q11 36 71 259t75 273h419q-34 -107 -208.5 -619.5t-222.5 -650.5q-92 -264 -392 -264q-142 0 -310 45l54 268q25 -3 56 -7.5t49 -6.5t34 -2q80 0 117 25t60 93l28 95h-178 q-13 40 -90 281.5t-148 462.5t-89 280zM474 1288l361 378l191 -225l-422 -302z" />
<glyph unicode="&#xfe;" horiz-adv-x="1326" d="M92 -447v1929h390v-521q2 0 5.5 -2.5t7.5 -4.5q150 128 320 128q101 0 178 -28.5t125.5 -77t78.5 -120.5t42.5 -150t12.5 -175q0 -125 -26.5 -223t-81.5 -173t-149 -115.5t-221 -40.5q-54 0 -134 14t-139 40v-480h-409zM503 310q75 -43 172 -43q31 0 57.5 11.5t52.5 40.5 t41 86.5t15 140.5q0 78 -13.5 130.5t-39 77t-51.5 33.5t-62 9q-33 0 -84.5 -18.5t-87.5 -40.5v-427z" />
<glyph unicode="&#xff;" horiz-adv-x="1281" d="M24 1063h406q12 -39 69 -267.5t71 -272.5q11 -45 27 -140.5t23 -126.5h16q6 21 28 121.5t35 153.5q11 36 71 259t75 273h419q-34 -107 -208.5 -619.5t-222.5 -650.5q-92 -264 -392 -264q-142 0 -310 45l54 268q25 -3 56 -7.5t49 -6.5t34 -2q80 0 117 25t60 93l28 95h-178 q-13 40 -90 281.5t-148 462.5t-89 280zM207 1374q0 76 45.5 120.5t137.5 44.5q96 0 145.5 -44.5t49.5 -120.5q0 -73 -50 -119t-145 -46q-92 0 -137.5 46t-45.5 119zM704 1374q0 76 47 120.5t137 44.5q97 0 144 -44.5t47 -120.5q0 -73 -47.5 -119t-143.5 -46q-91 0 -137.5 46 t-46.5 119z" />
<glyph unicode="&#x131;" horiz-adv-x="718" d="M152 0v1060h412v-1060h-412z" />
<glyph unicode="&#x152;" horiz-adv-x="2059" d="M92 744q0 166 46 304t135 243t233.5 164t330.5 59q129 0 251 -30h871v-288h-662v-289h552v-275h-552v-342h683v-290h-933q-91 -21 -210 -21q-187 0 -330 55.5t-233 158t-136 241.5t-46 310zM538 742q0 -230 70 -349.5t229 -119.5q19 0 33 2v940h-45q-78 -4 -135.5 -44 t-90 -106.5t-47 -146.5t-14.5 -176z" />
<glyph unicode="&#x153;" horiz-adv-x="1960" d="M66 523q0 120 37 220.5t108 178t185.5 121t261.5 43.5q234 0 366 -132q128 145 371 145q119 0 210.5 -32.5t145.5 -84t88.5 -123t46.5 -140t12 -145.5v-96h-657q3 -106 58 -153.5t174 -47.5q150 0 325 61l77 -241q-208 -110 -475 -110q-245 0 -370 122 q-144 -130 -378 -130q-147 0 -260.5 40.5t-183.5 113.5t-106 171t-36 219zM488 531q0 -129 37 -201t133 -72q49 0 82.5 21t50.5 60.5t24.5 85.5t7.5 106q0 273 -165 273q-48 0 -82.5 -23t-53 -63.5t-26.5 -86t-8 -100.5zM1247 647h284q-7 180 -131 180q-71 0 -108 -50.5 t-45 -129.5z" />
<glyph unicode="&#x178;" horiz-adv-x="1498" d="M13 1482h443q22 -49 80.5 -176.5t89.5 -197.5l114 -293h17q20 44 60 152.5t61 152.5q97 214 169 362h435q-84 -158 -251.5 -477t-251.5 -476v-529h-458v495zM301 1712q0 75 46 120t137 45q97 0 146 -45t49 -120q0 -74 -49.5 -119.5t-145.5 -45.5q-91 0 -137 45.5 t-46 119.5zM798 1712q0 75 47 120t138 45q96 0 143.5 -44.5t47.5 -120.5q0 -74 -48 -119.5t-143 -45.5q-92 0 -138.5 45.5t-46.5 119.5z" />
<glyph unicode="&#x192;" d="M28 -197l71 266q87 -18 144 -18q81 0 122 46t61 161q12 71 28.5 208t19.5 151h-173v249l196 4l14 102q8 53 17 95.5t26 96.5t39 95t58.5 82.5t81.5 68.5t109 44t141 17q184 0 314 -43l-72 -267q-82 17 -146 17q-84 0 -123 -43t-55 -161l-13 -108h211v-249h-235 q-34 -285 -49 -372q-8 -52 -16.5 -93.5t-26 -94t-40 -92.5t-59 -80.5t-81.5 -67t-109 -43.5t-141 -17q-177 0 -314 46z" />
<glyph unicode="&#x2c6;" horiz-adv-x="1285" d="M185 1245l338 349h245l342 -347l-97 -112l-370 209l-372 -207z" />
<glyph unicode="&#x2c7;" horiz-adv-x="1285" d="M185 1518l86 105l372 -205l370 207l97 -109l-342 -348h-245z" />
<glyph unicode="&#x2d8;" horiz-adv-x="1309" d="M211 1488l152 116q71 -94 151 -141.5t144 -47.5h9q30 0 51.5 3.5t63.5 17.5t97 52.5t121 100.5l120 -107q-51 -84 -113.5 -147t-124.5 -98t-119 -51t-111 -16q-128 0 -241 88.5t-200 229.5z" />
<glyph unicode="&#x2d9;" horiz-adv-x="1295" d="M449 1415q0 95 54.5 148.5t163.5 53.5q112 0 168.5 -54t56.5 -148q0 -88 -57 -143t-168 -55q-108 0 -163 55t-55 143z" />
<glyph unicode="&#x2da;" horiz-adv-x="1295" d="M374 1455q0 116 86.5 200.5t208.5 84.5q124 0 203.5 -83t79.5 -201.5t-82 -200t-201 -81.5q-123 0 -209 82.5t-86 198.5zM550 1449q0 -46 32 -79.5t87 -33.5q49 0 79 33.5t30 79.5q0 50 -29 85.5t-80 35.5t-85 -36t-34 -85z" />
<glyph unicode="&#x2db;" horiz-adv-x="1311" d="M640 -335q0 42 13 88.5t42 103.5t89 119.5t143 117.5l66 -55q-52 -67 -80.5 -153t-28.5 -151q0 -92 101 -92q21 0 43 2.5t33.5 5.5t39 9.5t36.5 8.5l35 -123q-135 -73 -282 -73q-120 0 -185 51t-65 141z" />
<glyph unicode="&#x2dc;" horiz-adv-x="1285" d="M213 1280q81 228 247 228q70 0 214 -40t204 -40l120 88l108 -86q-78 -234 -244 -234q-86 0 -233 42t-188 42l-119 -84z" />
<glyph unicode="&#x2dd;" horiz-adv-x="1295" d="M243 1250l301 429l219 -175l-380 -369zM638 1250l300 429l221 -175l-383 -369z" />
<glyph unicode="&#x3a9;" horiz-adv-x="1697" d="M47 0v273h196l9 17q-145 128 -145 478q0 161 47.5 297t138.5 237t233.5 157.5t323 56.5t324 -55t236 -154t140.5 -233.5t48 -295.5q0 -150 -39 -280t-118 -212q4 -9 8 -13h192v-273h-703v275q113 36 162 147t49 335q0 229 -69.5 342.5t-223.5 113.5q-151 0 -226.5 -117.5 t-75.5 -336.5t47 -334.5t154 -147.5v-277h-708z" />
<glyph unicode="&#x3c0;" horiz-adv-x="1319" d="M94 0v1060h1131q0 -55 -1 -529.5t-1 -530.5h-412v802h-310v-802h-407z" />
<glyph unicode="&#x401;" horiz-adv-x="1375" d="M142 0v1484h1114v-288h-686v-282h574v-284h-574v-337h714v-293h-1142zM281 1716q0 75 46 120.5t137 45.5q97 0 146.5 -45.5t49.5 -120.5q0 -74 -50 -119.5t-146 -45.5q-91 0 -137 45.5t-46 119.5zM778 1716q0 75 48 120.5t138 45.5q96 0 143.5 -45t47.5 -121 q0 -74 -48 -119.5t-143 -45.5q-91 0 -138.5 45.5t-47.5 119.5z" />
<glyph unicode="&#x402;" horiz-adv-x="1964" d="M60 1186v298h1467v-298h-579v-306q177 56 368 56q116 0 213 -28.5t173.5 -85t119.5 -150.5t43 -218q0 -127 -44 -248t-116.5 -214.5t-152 -163.5t-163.5 -118l-185 214q101 96 157.5 206t56.5 253q0 136 -64 199t-172 63q-113 0 -234 -43v-602h-423l2 1186h-467z" />
<glyph unicode="&#x403;" horiz-adv-x="1332" d="M158 0v1484h1117v-290h-694v-1194h-423zM533 1731l359 378l190 -213l-428 -300z" />
<glyph unicode="&#x404;" horiz-adv-x="1405" d="M97 731q0 119 21 226t76 211.5t139.5 179.5t222.5 121.5t314 46.5q195 0 412 -63q-3 -13 -25.5 -146.5t-29.5 -155.5q-152 33 -300 33q-149 0 -245 -68.5t-118 -210.5q113 0 474 9v-290q-122 0 -484 8q16 -172 110.5 -247t277.5 -75q57 0 164 12.5t180 32.5 q6 -34 62 -295q-103 -39 -240 -60t-265 -21q-174 0 -306.5 40.5t-215 107.5t-134 166t-71 204.5t-19.5 233.5z" />
<glyph unicode="&#x405;" horiz-adv-x="1422" d="M74 97l96 295q253 -93 534 -93q101 0 148 32t47 102q0 58 -44.5 87.5t-142.5 53.5q-229 58 -313 92q-180 72 -239 196q-37 76 -37 179q0 105 35 190t107.5 149.5t193 100t281.5 35.5q295 0 518 -114l-101 -284q-190 72 -430 72q-77 0 -117 -32.5t-40 -94.5q0 -29 19 -51 t62 -40t80 -28t106 -26q169 -41 247 -77q263 -123 264 -408q0 -215 -167 -337t-518 -122q-130 0 -294 30.5t-295 92.5z" />
<glyph unicode="&#x406;" horiz-adv-x="737" d="M158 0v1484h421v-1484h-421z" />
<glyph unicode="&#x407;" horiz-adv-x="737" d="M-74 1724q0 76 46 121t137 45q97 0 147 -45t50 -121q0 -73 -50.5 -119t-146.5 -46q-91 0 -137 46t-46 119zM158 0v1484h421v-1484h-421zM423 1724q0 76 48 121t138 45q97 0 144 -44.5t47 -121.5q0 -73 -47.5 -119t-143.5 -46q-91 0 -138.5 46t-47.5 119z" />
<glyph unicode="&#x408;" horiz-adv-x="880" d="M-117 -146q125 63 200 116t119 116.5t58.5 131.5t14.5 169l2 1099h422v-1127q0 -330 -181.5 -528.5t-538.5 -263.5z" />
<glyph unicode="&#x409;" horiz-adv-x="2358" d="M37 211q51 21 90.5 43.5t70.5 43t54.5 55t40.5 59t29.5 75.5t20 83.5t14 105t10 117.5t9.5 144q3 44 4 67l31 480h1027l-2 -555h284q113 0 209.5 -26t175 -79.5t122.5 -144.5t44 -211q0 -212 -137 -340t-369 -128h-752v1202h-239l-9 -131q-9 -144 -14 -213.5t-17.5 -186 t-25.5 -172.5t-36.5 -143t-54 -130.5t-75 -102t-101.5 -91t-131.5 -63.5t-165.5 -51zM1436 286h209q76 0 127.5 47.5t51.5 137.5q0 88 -53 133t-134 45h-201v-363z" />
<glyph unicode="&#x40a;" horiz-adv-x="2304" d="M144 0v1484h422v-557h393v557h428v-555h284q113 0 209.5 -26t174 -79.5t121.5 -144.5t44 -211q0 -213 -135.5 -340.5t-370.5 -127.5h-755v649h-393v-649h-422zM1387 286h209q77 0 129 47.5t52 137.5q0 88 -54.5 133t-135.5 45h-200v-363z" />
<glyph unicode="&#x40b;" horiz-adv-x="1894" d="M28 1186v298h1427v-298h-560v-289q183 55 373 55q108 0 196.5 -20.5t161.5 -65t114 -123.5t41 -187v-556h-427v501q0 85 -55 123.5t-146 38.5q-144 0 -261 -56v-607h-424v1186h-440z" />
<glyph unicode="&#x40c;" horiz-adv-x="1519" d="M142 0v1479h417v-556h125q81 0 137 37.5t84 140.5l101 376h414l-119 -441q-24 -85 -75.5 -153t-119.5 -98v-13q100 -33 149.5 -97t80.5 -166l141 -509h-430l-122 443q-24 93 -79 136t-149 43h-138v-622h-417zM622 1724l359 379l189 -213l-428 -301z" />
<glyph unicode="&#x40e;" horiz-adv-x="1510" d="M28 1484h421l185 -478l121 -343h15l120 343l179 478h415l-527 -1273q-56 -133 -146 -192.5t-222 -59.5q-171 0 -339 49l56 269q115 -21 178 -21q39 0 62.5 14.5t38.5 53.5l30 76h-90zM331 1861l147 115q66 -90 148.5 -138.5t145.5 -48.5q157 0 342 175l103 -103 q-68 -112 -151 -182.5t-155.5 -97t-147.5 -26.5q-240 0 -432 306z" />
<glyph unicode="&#x40f;" horiz-adv-x="1652" d="M144 0v1484h422v-1194h518l-2 1194h428v-1484h-508v-419h-335v419h-523z" />
<glyph unicode="&#x410;" horiz-adv-x="1573" d="M15 0l518 1484h534l492 -1484h-434l-91 303h-507l-94 -303h-418zM615 579h339l-88 311l-70 308h-14l-78 -318z" />
<glyph unicode="&#x411;" horiz-adv-x="1481" d="M127 0v1484h1114v-284h-687v-271h285q91 0 171 -15t150.5 -49.5t119.5 -86t78 -129.5t29 -175q0 -215 -135.5 -344.5t-369.5 -129.5h-755zM554 286h211q75 0 126 49.5t51 140.5q0 88 -51.5 130.5t-135.5 42.5h-201v-363z" />
<glyph unicode="&#x412;" horiz-adv-x="1496" d="M142 0v1484h736q233 0 353.5 -111t120.5 -298q0 -32 -8 -68.5t-27 -78.5t-58.5 -79.5t-92.5 -60.5v-14q57 -17 100.5 -50t67.5 -68t38.5 -78.5t18.5 -75.5t4 -63q0 -200 -139.5 -319.5t-371.5 -119.5h-742zM566 293h208q90 0 135 45.5t45 123.5q0 75 -46 121.5t-134 46.5 h-208v-337zM566 892h185q81 0 124 38t43 108q0 74 -41 115t-126 41h-185v-302z" />
<glyph unicode="&#x413;" horiz-adv-x="1332" d="M158 0v1484h1117v-290h-694v-1194h-423z" />
<glyph unicode="&#x414;" horiz-adv-x="1722" d="M28 284l153 6q51 58 89.5 131.5t62.5 146t41.5 173t26.5 185.5t18 209l26 349h1057v-1194l156 -6v-678h-324v394h-981v-394h-325v678zM602 290h480v910h-280l-10 -127q-11 -122 -16.5 -179.5t-16.5 -148.5t-23.5 -141t-30.5 -113.5t-44 -110.5t-59 -90z" />
<glyph unicode="&#x415;" horiz-adv-x="1375" d="M142 0v1484h1114v-288h-686v-282h574v-284h-574v-337h714v-293h-1142z" />
<glyph unicode="&#x416;" horiz-adv-x="2282" d="M49 0q55 184 142 509q31 100 82 165t153 98v8q-144 64 -196 242l-125 455h412q57 -195 105 -376q15 -54 38.5 -90.5t53 -54.5t60 -25.5t69.5 -7.5h90v556h417v-556h91q38 0 68.5 7.5t60.5 25.5t53 54.5t39 90.5q9 38 54 199t49 177h410q-10 -42 -62 -231t-57 -210 q-24 -85 -75.5 -153t-119.5 -98v-13q53 -18 93.5 -47t67 -66t42 -72t27.5 -78l141 -509h-428l-120 443q-47 179 -233 179h-101v-622h-417v622h-100q-184 0 -233 -179q-5 -14 -61.5 -222t-60.5 -221h-429z" />
<glyph unicode="&#x417;" horiz-adv-x="1399" d="M49 84q18 52 48 149.5t38 121.5q224 -69 415 -69q293 0 293 200q0 77 -59.5 118t-161.5 41h-196v256h167q97 0 152 50t55 112q0 74 -56 110t-182 36q-88 0 -198.5 -16.5t-178.5 -39.5q-12 53 -62 267q110 41 258.5 68.5t289.5 27.5q94 0 176 -12t157 -41t128 -73t84 -112 t31 -156t-49.5 -175t-146.5 -141q3 0 3 -4q81 -28 136 -83.5t77.5 -117t22.5 -127.5q0 -232 -184.5 -361.5t-490.5 -129.5q-123 0 -286.5 22.5t-279.5 78.5z" />
<glyph unicode="&#x418;" horiz-adv-x="1668" d="M142 0v1482h422q0 -148 -1 -446.5t-1 -448.5h8q85 135 129 211l411 684h412v-1482h-414v862h-12l-335 -546l-197 -316h-422z" />
<glyph unicode="&#x419;" horiz-adv-x="1668" d="M142 0v1482h422q0 -148 -1 -446.5t-1 -448.5h8q85 135 129 211l411 684h412v-1482h-414v862h-12l-335 -546l-197 -316h-422zM363 1927l154 116q70 -94 150.5 -142t143.5 -48q67 0 110 15q101 36 232 160l120 -108q-52 -84 -114.5 -147t-124.5 -97.5t-119 -50.5t-111 -16 q-128 0 -241 88.5t-200 229.5z" />
<glyph unicode="&#x41a;" horiz-adv-x="1519" d="M142 0v1479h417v-556h125q81 0 137 37.5t84 140.5l101 376h414l-119 -441q-24 -85 -75.5 -153t-119.5 -98v-13q100 -33 149.5 -97t80.5 -166l141 -509h-430l-122 443q-24 93 -79 136t-149 43h-138v-622h-417z" />
<glyph unicode="&#x41b;" horiz-adv-x="1619" d="M37 211q45 19 80.5 37t65.5 40t52 42t40.5 50.5t30.5 56.5t22 68t16 79t11.5 95t9 108.5t8.5 129.5q3 54 5 83l33 484h1066v-1484h-421l-2 1196h-278l-6 -125q-7 -128 -13 -213t-17.5 -187.5t-27 -170t-40 -145.5t-57.5 -129t-79 -104.5t-104 -88.5t-133 -65t-168 -50z " />
<glyph unicode="&#x41c;" horiz-adv-x="2031" d="M144 0v1484h535l201 -532l122 -341h20l137 363l206 510h521v-1484h-413v870h-8l-136 -341l-157 -379h-331l-157 398l-122 325h-10v-873h-408z" />
<glyph unicode="&#x41d;" horiz-adv-x="1623" d="M142 0v1482h426q0 -94 -1 -282t-1 -282h483v564h428v-1482h-428v624h-483q0 -105 1 -313t1 -311h-426z" />
<glyph unicode="&#x41e;" horiz-adv-x="1685" d="M101 744q0 166 45.5 304t135 243t233.5 164t330 59q187 0 331 -59t232.5 -163t133.5 -242.5t45 -302.5q0 -167 -48 -307t-139 -244t-233 -162t-322 -58q-186 0 -328.5 56t-233.5 159t-136.5 242.5t-45.5 310.5zM548 742q0 -114 15 -197t48.5 -145.5t91.5 -93.5t142 -31 q80 0 136.5 33.5t89.5 97.5t47.5 147t14.5 191q0 82 -7.5 148t-27 128.5t-51 104.5t-82.5 67t-120 25q-70 0 -123 -25.5t-85.5 -69t-53 -106t-28 -128.5t-7.5 -146z" />
<glyph unicode="&#x41f;" horiz-adv-x="1681" d="M172 0v1484h1338v-1484h-428v1190h-487l2 -1190h-425z" />
<glyph unicode="&#x420;" horiz-adv-x="1352" d="M142 0v1484h623q281 0 413.5 -126.5t132.5 -344.5q0 -92 -31.5 -175.5t-92 -150.5t-162 -107t-229.5 -40h-228v-540h-426zM568 819h140q77 0 125.5 45.5t48.5 139.5q0 100 -50.5 146t-134.5 46h-129v-377z" />
<glyph unicode="&#x421;" horiz-adv-x="1405" d="M99 733q0 119 21 225t75.5 211t139 179.5t222 121t313.5 46.5q206 0 412 -63l-52 -304q-152 35 -301 35q-185 0 -283 -101t-98 -328q0 -248 92.5 -346.5t301.5 -98.5q54 0 161.5 13t182.5 32l64 -293q-107 -40 -244.5 -63t-260.5 -23q-174 0 -307 41t-215.5 108.5 t-133.5 167.5t-70.5 205.5t-19.5 234.5z" />
<glyph unicode="&#x422;" horiz-adv-x="1393" d="M21 1186v298h1351v-298h-465v-1186h-421v1186h-465z" />
<glyph unicode="&#x423;" horiz-adv-x="1510" d="M28 1484h421l185 -478l121 -343h15l120 343l179 478h415l-527 -1273q-56 -133 -146 -192.5t-222 -59.5q-171 0 -339 49l56 269q115 -21 178 -21q39 0 62.5 14.5t38.5 53.5l30 76h-90z" />
<glyph unicode="&#x424;" horiz-adv-x="1980" d="M74 759q0 261 193.5 436.5t520.5 193.5v95h414v-95q340 -18 522 -189.5t182 -438.5q0 -276 -182.5 -444t-521.5 -192v-125h-414v125q-346 20 -530 187.5t-184 446.5zM499 753q0 -145 72.5 -233t216.5 -107v688q-146 -18 -217.5 -111.5t-71.5 -236.5zM1202 413 q128 20 201.5 111t73.5 231q0 69 -14 126t-45 105t-85.5 78t-130.5 37v-688z" />
<glyph unicode="&#x425;" horiz-adv-x="1541" d="M10 0q71 107 243.5 367.5t265.5 402.5l-465 712h486l245 -458q47 80 132 238.5t119 219.5h482l-486 -717q35 -53 495 -765h-482l-280 497l-273 -497h-482z" />
<glyph unicode="&#x426;" horiz-adv-x="1762" d="M144 0v1484h424v-1194h486l-3 1194h428v-1194h220v-682h-310v392h-1245z" />
<glyph unicode="&#x427;" horiz-adv-x="1556" d="M92 938v544h427v-465q0 -190 223 -190q127 0 249 39v616h422v-1482h-422v554q-175 -33 -324 -33q-92 0 -171.5 12t-155 41.5t-129 75.5t-86.5 119.5t-33 168.5z" />
<glyph unicode="&#x428;" horiz-adv-x="2285" d="M144 0v1484h422v-1194h370v1194h408v-1194h372l-2 1194h428v-1484h-1998z" />
<glyph unicode="&#x429;" horiz-adv-x="2423" d="M144 0v1484h422v-1194h370v1194h408v-1194h372l-2 1194h428v-1194h217v-684h-307v394h-1908z" />
<glyph unicode="&#x42a;" horiz-adv-x="1865" d="M41 1196v288h905l-2 -555h256q92 0 173.5 -14t157 -48t130.5 -85.5t87.5 -132t32.5 -181.5q0 -233 -139 -350.5t-384 -117.5h-735l2 1196h-484zM944 271h205q82 0 133.5 53.5t51.5 146.5q0 92 -53.5 143t-141.5 51h-195v-394z" />
<glyph unicode="&#x42b;" horiz-adv-x="2124" d="M144 0v1484h426v-555h284q113 0 209.5 -26t174.5 -79.5t122 -144.5t44 -211q0 -213 -136 -340.5t-369 -127.5h-755zM570 286h208q75 0 127 47.5t52 137.5q0 88 -53.5 133t-133.5 45h-200v-363zM1561 0v1484h421v-1484h-421z" />
<glyph unicode="&#x42c;" horiz-adv-x="1489" d="M144 0v1484h426v-555h284q113 0 209.5 -26t174.5 -79.5t122 -144.5t44 -211q0 -213 -136 -340.5t-369 -127.5h-755zM570 286h208q75 0 127 47.5t52 137.5q0 88 -53.5 133t-133.5 45h-200v-363z" />
<glyph unicode="&#x42d;" horiz-adv-x="1401" d="M49 58l62 295q74 -20 174 -31.5t158 -11.5q183 0 279.5 74.5t120.5 251.5q-45 0 -242 -3t-242 -3v288l478 -9q-22 137 -114.5 206t-244.5 69q-157 0 -300 -31q-4 18 -26.5 148.5t-26.5 149.5q202 65 404 65q180 0 317 -40t222 -106t138.5 -163t74 -200t20.5 -227 t-21 -233.5t-75.5 -216t-138.5 -182.5t-219.5 -122.5t-308.5 -46.5q-283 0 -489 79z" />
<glyph unicode="&#x42e;" horiz-adv-x="2339" d="M144 0v1484h422l-2 -592h242q18 139 69 250t136 195.5t215 130.5t294 46q151 0 271.5 -38.5t203.5 -107t139 -165.5t81.5 -211t25.5 -248q0 -168 -44.5 -306t-131.5 -241.5t-226 -160.5t-319 -57q-330 0 -509 175t-207 482h-240l2 -636h-422zM1241 742q0 -230 64 -347.5 t215 -117.5q271 0 271 467q0 81 -6 145t-24 126.5t-47.5 103.5t-78 66.5t-115.5 25.5q-279 0 -279 -469z" />
<glyph unicode="&#x42f;" horiz-adv-x="1494" d="M56 0l118 404q29 99 76.5 162.5t132.5 93.5v11q-112 48 -174.5 147.5t-62.5 213.5q0 70 15.5 134t53.5 122.5t95.5 101t144.5 68.5t197 26h698v-1484h-423v562h-106q-98 0 -151.5 -40.5t-84.5 -147.5l-107 -374h-422zM574 1015q0 -89 51.5 -131.5t127.5 -42.5h174v353 h-174q-81 0 -130 -48.5t-49 -130.5z" />
<glyph unicode="&#x430;" horiz-adv-x="1328" d="M51 288q0 117 71.5 204t226.5 110q47 8 112.5 14.5t153 13t129.5 10.5v18q0 72 -39 105t-135 33q-79 0 -177 -13.5t-165 -35.5l-60 248q97 40 237 65.5t264 25.5q221 0 342.5 -89.5t121.5 -292.5v-439h133q16 -189 18 -228q-136 -63 -318 -63q-82 0 -133.5 27t-62.5 98 q0 1 -4 2q-2 1 -3 2q-141 -129 -365 -129q-80 0 -143 21t-100 53t-61.5 75.5t-33.5 83.5t-9 81zM476 333q3 -59 27 -84t78 -25q35 0 82.5 16t78.5 44v168q-20 -3 -62.5 -6.5t-64 -6t-53 -10t-47 -18.5t-27.5 -31t-12 -47z" />
<glyph unicode="&#x431;" horiz-adv-x="1311" d="M71 574q0 265 43 402q96 311 483 467q18 7 127.5 49t190 75.5t117.5 53.5q14 -28 51.5 -106.5t57.5 -121.5q-93 -56 -227 -118q-25 -11 -75 -31.5t-73.5 -31t-65.5 -29.5t-63.5 -32.5t-54.5 -34t-52.5 -40.5t-42 -45.5t-38 -55t-28.5 -64.5q5 0 12 -6q128 131 322 131 q129 0 224 -38t152 -109t83.5 -163.5t26.5 -208.5q0 -114 -35.5 -209.5t-106 -169t-186 -115.5t-264.5 -42q-161 0 -276 44t-179.5 126t-93.5 186t-29 237zM486 511q0 -55 7 -97t24 -80t52 -58t85 -20q165 0 165 263q0 119 -34.5 185t-126.5 66q-57 0 -97.5 -39.5t-57.5 -96 t-17 -123.5z" />
<glyph unicode="&#x432;" horiz-adv-x="1295" d="M94 0v1063h745q159 0 251 -70t92 -203q0 -62 -33 -120.5t-106 -90.5v-9q180 -61 180 -258q0 -145 -105 -228.5t-277 -83.5h-747zM505 248h187q54 0 82 26.5t28 69.5q0 93 -107 93h-190v-189zM505 649h179q40 0 65 21t25 61q0 39 -26.5 63.5t-68.5 24.5h-174v-170z" />
<glyph unicode="&#x433;" horiz-adv-x="1048" d="M94 0v1065h938v-269h-527v-796h-411z" />
<glyph unicode="&#x434;" horiz-adv-x="1457" d="M43 256l125 6q71 69 104.5 195t47.5 351l18 255h942l-2 -801l126 -6v-591h-312v335h-741v-335h-308v591zM572 262h308v536h-201l-4 -65q-11 -184 -34 -294t-69 -177z" />
<glyph unicode="&#x435;" horiz-adv-x="1235" d="M74 529q0 85 15.5 162t55.5 151.5t102 128t160 86.5t223 33q101 0 181 -17.5t135.5 -45t96 -70.5t63 -86.5t36 -99.5t17.5 -103t4 -104v-96h-679q1 -99 60.5 -144t177.5 -45q146 0 343 61l76 -252q-202 -109 -492 -109q-136 0 -238 30.5t-165 80t-103 122.5t-54.5 149 t-14.5 168zM488 663h308q-2 85 -34 132.5t-110 47.5q-148 0 -164 -180z" />
<glyph unicode="&#x436;" horiz-adv-x="2017" d="M43 0l121 370q26 75 66.5 119.5t124.5 69.5v7q-62 22 -105.5 72.5t-62.5 116.5q-6 25 -42 153.5t-42 154.5h385q35 -123 78 -257q23 -72 66.5 -100.5t107.5 -28.5h66v386h403v-386h69q133 0 171 129q22 78 80 257h385l-86 -308q-19 -66 -62 -116.5t-106 -72.5v-7 q85 -25 126 -70.5t65 -118.5q117 -357 121 -370h-406q-11 28 -50 155t-47 153q-26 76 -68.5 103.5t-116.5 27.5h-75v-439h-403v439h-73q-76 0 -118 -28t-67 -103l-96 -308h-409z" />
<glyph unicode="&#x437;" horiz-adv-x="1104" d="M39 51l70 252q168 -45 283 -45q210 0 210 110q0 86 -116 86h-159v206h137q53 0 84 21t31 59q0 85 -149 85q-130 0 -292 -45l-52 235q200 75 462 75q124 0 215 -22.5t142.5 -64t75 -92t23.5 -113.5q0 -64 -40.5 -127t-111.5 -90v-11q94 -30 139 -97t45 -144 q0 -153 -132.5 -251.5t-404.5 -98.5q-260 0 -460 72z" />
<glyph unicode="&#x438;" horiz-adv-x="1360" d="M92 0v1063h413v-554h14l92 149q38 61 81 128.5t95.5 148t82.5 128.5h394v-1063h-412v548q-3 0 -7 -1t-6 -1l-117 -183q-140 -221 -236 -363h-394z" />
<glyph unicode="&#x439;" horiz-adv-x="1360" d="M92 0v1063h413v-554h14l92 149q38 61 81 128.5t95.5 148t82.5 128.5h394v-1063h-412v548q-3 0 -7 -1t-6 -1l-117 -183q-140 -221 -236 -363h-394zM234 1486l153 116q71 -94 151 -141.5t143 -47.5h9q30 0 51.5 3.5t64 17.5t98 52.5t120.5 100.5l120 -108 q-51 -84 -113.5 -147t-125 -97.5t-119.5 -50.5t-111 -16q-128 0 -241 88.5t-200 229.5z" />
<glyph unicode="&#x43a;" horiz-adv-x="1340" d="M92 0v1063h405v-386h103q133 0 172 129q58 179 80 257h385q-11 -45 -86 -308q-19 -66 -61.5 -116.5t-104.5 -72.5v-7q83 -25 124 -70t67 -119q9 -33 59 -185t60 -185h-409q-42 153 -94 308q-27 76 -69.5 103.5t-115.5 27.5h-110v-439h-405z" />
<glyph unicode="&#x43b;" horiz-adv-x="1315" d="M10 211q57 27 89 46t61 48.5t42 57t24.5 80t16.5 108.5t9 153l17 361h948v-1065h-413v798h-176l-6 -101q-6 -77 -10 -128t-13 -117t-20 -110t-29.5 -96.5t-42 -89t-57 -76t-76 -68t-97.5 -54.5t-123 -46z" />
<glyph unicode="&#x43c;" horiz-adv-x="1627" d="M92 1063h450l162 -302l107 -219h16l106 219l157 302h443v-1063h-394v538h-12l-89 -192l-107 -213h-215l-116 216l-93 197h-10v-546h-403z" />
<glyph unicode="&#x43d;" horiz-adv-x="1328" d="M92 0v1063h415v-382h312v382h414v-1063h-414v428h-312v-428h-415z" />
<glyph unicode="&#x43e;" d="M74 531q0 122 33 220t101.5 174.5t184.5 118.5t272 42t271.5 -42t183.5 -118.5t100 -174t32 -218.5q0 -95 -20 -177t-65.5 -152.5t-113 -119.5t-168.5 -77t-227 -28t-225.5 27.5t-166 75.5t-110.5 118.5t-63 152t-19 178.5zM495 531q0 -137 35.5 -205t134.5 -68 q92 0 127 70t35 203q0 131 -35 202t-127 71q-170 0 -170 -273z" />
<glyph unicode="&#x43f;" horiz-adv-x="1319" d="M94 0v1060h1131q0 -55 -1 -529.5t-1 -530.5h-412v802h-310v-802h-407z" />
<glyph unicode="&#x440;" horiz-adv-x="1326" d="M94 -449v1512h382l8 -95l13 -9q148 123 320 123q101 0 178 -28.5t125.5 -77t79 -120.5t42.5 -150t12 -175q0 -121 -26.5 -219t-81.5 -173.5t-148 -116.5t-220 -41q-60 0 -138.5 13t-136.5 41v-484h-409zM505 310q81 -43 170 -43q32 0 59 12t53 41t41 86.5t15 139.5 q0 78 -13.5 130.5t-39 77t-51.5 33.5t-61.5 9t-86 -18.5t-86.5 -42.5v-425z" />
<glyph unicode="&#x441;" horiz-adv-x="1089" d="M69 521q0 88 14 163.5t52 151.5t98.5 129t161 87t231.5 34q187 0 350 -50l-51 -283q-105 21 -217 21q-222 0 -222 -245q0 -124 48 -180t165 -56q123 0 269 42q41 -154 68 -273q-176 -83 -425 -83q-130 0 -227.5 29.5t-156.5 78t-95 120.5t-49.5 146.5t-13.5 167.5z" />
<glyph unicode="&#x442;" horiz-adv-x="1160" d="M21 796v269h1118v-269h-351l-3 -796h-409l-2 796h-353z" />
<glyph unicode="&#x443;" horiz-adv-x="1281" d="M24 1063h404q15 -47 74 -280t66 -260q10 -44 27 -139t25 -126l14 -2q9 32 31.5 130t33.5 145q13 44 72.5 265.5t71.5 266.5h421l-431 -1270q-94 -264 -386 -264q-145 0 -316 45l54 264q138 -12 139 -12q80 0 117 25t60 93q25 76 28 95h-178q-13 40 -90 281.5t-148 462.5 t-89 280z" />
<glyph unicode="&#x444;" horiz-adv-x="1771" d="M80 536q0 246 153.5 394t450.5 158v459h402v-459q306 -8 456.5 -151.5t150.5 -392.5q0 -253 -147.5 -401t-459.5 -162q0 -47 -1 -215.5t-1 -214.5h-400v432q-142 5 -251.5 41t-175 88.5t-106.5 126t-56 145t-15 152.5zM464 533q0 -139 53 -213t167 -84v591 q-121 -19 -170.5 -95.5t-49.5 -198.5zM1086 236q112 14 164.5 87t52.5 206q0 49 -5 87t-19.5 76.5t-38 65t-63 45.5t-91.5 24v-591z" />
<glyph unicode="&#x445;" horiz-adv-x="1268" d="M8 0l372 552q-87 127 -343 508h447l156 -313q29 51 84.5 156.5t83.5 156.5h437l-353 -506l364 -554h-448q-32 69 -97 198t-75 148q-44 -85 -189 -346h-439z" />
<glyph unicode="&#x446;" horiz-adv-x="1408" d="M94 0v1063h411v-801h306v801h412v-798h134v-600h-312v335h-951z" />
<glyph unicode="&#x447;" horiz-adv-x="1264" d="M62 681v382h414v-312q0 -136 121 -136q94 0 156 28v420h415v-1063h-415v372q-142 -56 -310 -56q-184 0 -282.5 90.5t-98.5 274.5z" />
<glyph unicode="&#x448;" horiz-adv-x="1881" d="M94 0v1063h411v-801h230v801h409v-801h230v801h413v-1063h-1693z" />
<glyph unicode="&#x449;" horiz-adv-x="1962" d="M94 0v1063h411v-801h230v801h409v-801h230v801h413v-798h133v-600h-311v335h-1515z" />
<glyph unicode="&#x44a;" horiz-adv-x="1617" d="M24 798v265h813v-334h318q78 0 148.5 -22t129 -65.5t92.5 -114.5t34 -162q0 -162 -107.5 -263.5t-275.5 -101.5h-750v798h-402zM837 248h195q58 0 89.5 36.5t31.5 89.5q0 51 -34.5 88t-92.5 37h-189v-251z" />
<glyph unicode="&#x44b;" horiz-adv-x="1831" d="M92 0v1060h411v-331h320q72 0 141 -22t128.5 -65.5t96 -115t36.5 -161.5q0 -163 -106 -264t-272 -101h-755zM503 250h196q58 0 89 35.5t31 88t-34 89t-93 36.5h-189v-249zM1323 0v1063h413v-1063h-413z" />
<glyph unicode="&#x44c;" horiz-adv-x="1291" d="M92 0v1060h411v-331h320q72 0 141 -22t128.5 -65.5t96 -115t36.5 -161.5q0 -163 -106 -264t-272 -101h-755zM503 250h196q58 0 89 35.5t31 88t-34 89t-93 36.5h-189v-249z" />
<glyph unicode="&#x44d;" horiz-adv-x="1083" d="M43 56l64 234q160 -40 261 -40q102 0 161 51.5t62 152.5l-296 -7v193l300 -6q-8 93 -60 138t-159 45q-99 0 -232 -35l-52 242q158 62 355 62q134 0 234 -29.5t161 -77.5t99 -118.5t51.5 -143.5t13.5 -162.5t-13.5 -166t-52 -155t-100.5 -133.5t-167 -89.5t-243 -34.5 q-224 0 -387 80z" />
<glyph unicode="&#x44e;" horiz-adv-x="1851" d="M94 0v1065h411v-411h149q33 198 174 316t385 118q141 0 251 -42t177.5 -117.5t102.5 -175.5t35 -220q0 -118 -35.5 -218t-104 -175.5t-180 -118t-255.5 -42.5q-254 0 -392.5 125.5t-162.5 338.5h-144v-443h-411zM1051 533q0 -63 7 -109t23.5 -85.5t49.5 -60t82 -20.5 q59 0 94 39.5t46.5 97t11.5 138.5q0 271 -152 271q-44 0 -76.5 -22.5t-50.5 -62.5t-26.5 -86t-8.5 -100z" />
<glyph unicode="&#x44f;" horiz-adv-x="1324" d="M39 0l96 271q24 68 57 113t98 68l-2 6q-60 17 -100 61t-54.5 94t-14.5 105q0 53 12 100t42.5 93.5t77 80t121.5 54.5t170 21h683v-1067h-408v396h-103q-64 0 -102.5 -27.5t-63.5 -99.5l-94 -269h-415zM531 729q0 -61 38.5 -90.5t97.5 -29.5h150v238h-150q-62 0 -99 -31.5 t-37 -86.5z" />
<glyph unicode="&#x451;" horiz-adv-x="1235" d="M74 529q0 85 15.5 162t55.5 151.5t102 128t160 86.5t223 33q101 0 181 -17.5t135.5 -45t96 -70.5t63 -86.5t36 -99.5t17.5 -103t4 -104v-96h-679q1 -99 60.5 -144t177.5 -45q146 0 343 61l76 -252q-202 -109 -492 -109q-136 0 -238 30.5t-165 80t-103 122.5t-54.5 149 t-14.5 168zM193 1361q0 75 46 120.5t137 45.5q96 0 146 -45.5t50 -120.5q0 -74 -50.5 -119.5t-145.5 -45.5q-91 0 -137 45.5t-46 119.5zM488 663h308q-2 85 -34 132.5t-110 47.5q-148 0 -164 -180zM690 1361q0 75 47.5 120.5t138.5 45.5q96 0 143.5 -45t47.5 -121 q0 -74 -48 -119.5t-143 -45.5q-92 0 -139 45.5t-47 119.5z" />
<glyph unicode="&#x452;" horiz-adv-x="1346" d="M10 1161v155h109v231h406v-231h406v-112q0 -7 -1 -21t-1 -22h-406l-4 -245q162 63 298 63q243 0 350.5 -136t107.5 -404q0 -93 -15.5 -169t-54.5 -148t-101.5 -121t-163.5 -78.5t-232 -29.5q-7 0 -21 1t-20 1l2 277q72 6 112.5 29t63.5 81t23 163q0 109 -42.5 179.5 t-121.5 70.5q-72 0 -171 -48v-647h-414v1161h-109z" />
<glyph unicode="&#x453;" horiz-adv-x="1048" d="M94 0v1065h938v-269h-527v-796h-411zM344 1338l362 378l191 -226l-421 -300z" />
<glyph unicode="&#x454;" horiz-adv-x="1096" d="M69 511q0 573 565 573q196 0 351 -56q-9 -46 -27 -130t-25 -116q-152 31 -211 31q-120 0 -176.5 -46t-65.5 -143q44 2 94 3t109.5 1.5t92.5 1.5v-191l-294 4q15 -191 228 -191q118 0 266 47l69 -239q-166 -81 -411 -81q-138 0 -240.5 29t-164 76t-98.5 118.5t-49.5 144 t-12.5 164.5z" />
<glyph unicode="&#x455;" horiz-adv-x="1132" d="M54 69l75 247q228 -71 400 -71q134 0 134 75q0 13 -5 24t-15.5 19.5t-21 14t-29 12t-30 9.5t-33.5 9t-32 9q-173 47 -239 81q-142 71 -159 209q-2 20 -2 42q0 159 122 250t376 91q240 0 420 -88q-3 -4 -21 -61t-37 -118t-19 -62q-165 58 -321 58q-110 0 -110 -68 q0 -24 41.5 -40.5t116.5 -33.5q46 -10 79 -19t79.5 -26t79.5 -34.5t68.5 -46.5t57.5 -62t36 -80t14 -101q0 -156 -133 -242.5t-417 -86.5q-105 0 -237.5 22.5t-237.5 67.5z" />
<glyph unicode="&#x456;" horiz-adv-x="718" d="M131 1368q0 93 57 147.5t169 54.5q115 0 173.5 -54.5t58.5 -147.5q0 -90 -59 -146t-173 -56q-113 0 -169.5 55.5t-56.5 146.5zM152 0v1060h412v-1060h-412z" />
<glyph unicode="&#x457;" horiz-adv-x="718" d="M-66 1374q0 76 45.5 120.5t137.5 44.5q96 0 145.5 -44.5t49.5 -120.5q0 -73 -50 -119t-145 -46q-92 0 -137.5 46t-45.5 119zM152 0v1060h412v-1060h-412zM430 1374q0 76 47.5 120.5t137.5 44.5q97 0 144 -44.5t47 -120.5q0 -73 -47.5 -119t-143.5 -46q-91 0 -138 46 t-47 119z" />
<glyph unicode="&#x458;" horiz-adv-x="728" d="M-111 -228q94 55 142.5 90.5t80.5 84t41 102t9 144.5v867h414q0 -873 -2 -892q-1 -299 -135.5 -454.5t-440.5 -220.5q-2 5 -54 138.5t-55 140.5zM144 1368.5q0 92.5 56.5 147t169.5 54.5q115 0 172.5 -54t57.5 -148q0 -92 -58 -147t-172 -55t-170 55t-56 147.5z" />
<glyph unicode="&#x459;" horiz-adv-x="1933" d="M8 154q34 17 60 34t47 34t37 39.5t27.5 43.5t19.5 53t13 60.5t9.5 75t7 87.5t6.5 104q1 12 1 19l22 361l908 -2v-332h307q72 0 141 -22t128.5 -65t96 -115t36.5 -161q0 -164 -106 -266t-273 -102h-741v798h-162l-6 -101q-7 -104 -12.5 -165.5t-19.5 -147t-33 -137 t-53 -114.5t-80.5 -103t-113 -78t-152.5 -63zM1166 252h182q58 0 89.5 37t31.5 87q0 52 -34 87.5t-93 35.5h-176v-247z" />
<glyph unicode="&#x45a;" horiz-adv-x="1947" d="M94 0v1065h413v-373h278l-3 373h414v-361h306q67 0 131.5 -18t123.5 -56t96 -107t37 -162q0 -159 -103.5 -260t-255.5 -101h-743v437h-281v-437h-413zM1194 252h183q46 0 76.5 29.5t30.5 79.5t-30.5 78.5t-83.5 28.5h-176v-216z" />
<glyph unicode="&#x45b;" horiz-adv-x="1354" d="M10 1170v153h121v224h405v-224h385q0 -26 -1.5 -77.5t-1.5 -75.5h-385q0 -44 -2 -125t-2 -124q114 53 198.5 78t175.5 25q104 0 175 -26.5t109.5 -79.5t54.5 -119t16 -159v-640h-413v559q0 75 -25 113t-98 38q-36 0 -86.5 -17t-91.5 -44v-649h-413v1170h-121z" />
<glyph unicode="&#x45c;" horiz-adv-x="1340" d="M92 0v1063h405v-386h103q133 0 172 129q58 179 80 257h385q-11 -45 -86 -308q-19 -66 -61.5 -116.5t-104.5 -72.5v-7q83 -25 124 -70t67 -119q9 -33 59 -185t60 -185h-409q-42 153 -94 308q-27 76 -69.5 103.5t-115.5 27.5h-110v-439h-405zM486 1288l361 378l191 -225 l-421 -302z" />
<glyph unicode="&#x45e;" horiz-adv-x="1281" d="M24 1063h406q12 -39 69 -267.5t71 -272.5q11 -45 27 -140.5t23 -126.5h16q6 21 28 121.5t35 153.5q11 36 71 259t75 273h419q-34 -107 -208.5 -619.5t-222.5 -650.5q-92 -264 -392 -264q-142 0 -310 45l54 268q25 -3 56 -7.5t49 -6.5t34 -2q80 0 117 25t60 93l28 95h-178 q-13 40 -90 281.5t-148 462.5t-89 280zM181 1488l152 116q70 -94 150.5 -141.5t144.5 -47.5h8q31 0 52.5 3.5t64 17.5t97.5 52.5t120 100.5l120 -107q-52 -84 -114 -147t-124 -98t-119.5 -51t-110.5 -16q-128 0 -241 88.5t-200 229.5z" />
<glyph unicode="&#x45f;" horiz-adv-x="1332" d="M92 0v1063h411v-801h320v801h414v-1063h-402v-349h-326v349h-417z" />
<glyph unicode="&#x490;" horiz-adv-x="1334" d="M154 0v1484h841v281h283q0 -43 1 -284t1 -285h-699v-1196h-427z" />
<glyph unicode="&#x491;" horiz-adv-x="1126" d="M94 0v1063h708v257h273v-516h-570v-804h-411z" />
<glyph unicode="&#x4d9;" horiz-adv-x="1227" d="M90 503v84h657q0 110 -52 164.5t-168 54.5q-156 0 -320 -59l-72 232q218 107 467 107q133 0 232 -30.5t158 -79.5t95.5 -123t49 -148t12.5 -167q0 -85 -17 -162t-58 -151t-103.5 -127.5t-159.5 -86t-220 -32.5q-119 0 -210 32.5t-144.5 83.5t-88 122.5t-46.5 139.5 t-12 146zM449 423q3 -88 34 -134t104 -46q141 0 150 180h-288z" />
<glyph unicode="&#x2013;" horiz-adv-x="1075" d="M99 439v232h877v-232h-877z" />
<glyph unicode="&#x2014;" horiz-adv-x="2150" d="M133 439v230h1882v-230h-1882z" />
<glyph unicode="&#x2018;" horiz-adv-x="620" d="M107 1108q0 137 94 277t227 207q5 -3 48.5 -59.5t48.5 -63.5q-121 -111 -135 -236q129 -21 129 -160q0 -77 -54 -127.5t-145 -50.5q-108 0 -160.5 60t-52.5 153z" />
<glyph unicode="&#x2019;" horiz-adv-x="620" d="M107 1020q120 110 138 234q-131 21 -131 161q0 76 54 126.5t144 50.5q108 0 160.5 -60t52.5 -151q0 -139 -93 -278.5t-227 -207.5z" />
<glyph unicode="&#x201a;" horiz-adv-x="653" d="M107 -238q125 109 141 242q-134 22 -134 166q0 80 55.5 132.5t148.5 52.5q112 0 166 -62t54 -160q0 -142 -96 -286.5t-235 -214.5z" />
<glyph unicode="&#x201c;" horiz-adv-x="1042" d="M94 1108q0 139 93 278t228 206l94 -123q-121 -115 -135 -236q131 -22 131 -160q0 -75 -54.5 -126.5t-144.5 -51.5q-108 0 -160 60.5t-52 152.5zM544 1108q0 138 93.5 277.5t226.5 206.5l97 -123q-123 -113 -138 -236q131 -22 131 -160q0 -77 -54 -127.5t-143 -50.5 q-108 0 -160.5 60t-52.5 153z" />
<glyph unicode="&#x201d;" horiz-adv-x="1042" d="M97 1020q116 108 135 234q-129 21 -129 161q0 77 53.5 127t144.5 50q107 0 159.5 -60t52.5 -151q0 -139 -93 -278.5t-229 -207.5zM546 1020q121 111 135 234q-129 21 -129 161q0 76 54 126.5t145 50.5q108 0 160.5 -60t52.5 -151q0 -139 -94 -278.5t-230 -207.5z" />
<glyph unicode="&#x201e;" horiz-adv-x="1124" d="M107 -238q125 109 141 242q-134 22 -134 166q0 80 55.5 132.5t148.5 52.5q112 0 166 -62t54 -160q0 -142 -96 -286.5t-235 -214.5zM593 -238q121 108 140 242q-67 11 -101.5 54t-34.5 112q0 79 57 132t150 53q113 0 166.5 -62t53.5 -160q0 -142 -96 -286.5t-236 -214.5z " />
<glyph unicode="&#x2020;" horiz-adv-x="1077" d="M74 825v252h298v417h320v-417h312v-252h-312v-989h-320v989h-298z" />
<glyph unicode="&#x2021;" horiz-adv-x="1077" d="M74 205v253h298v367h-298v252h298v417h320v-417h312v-252h-312v-367h312v-253h-312v-369h-320v369h-298z" />
<glyph unicode="&#x2022;" horiz-adv-x="960" d="M168 576.5q0 129.5 92 220.5t222 91q128 0 220 -91t92 -220.5t-92 -222t-220 -92.5q-130 0 -222 92.5t-92 222z" />
<glyph unicode="&#x2026;" horiz-adv-x="1748" d="M123 170q0 82 51.5 131.5t152.5 49.5q102 0 154 -49.5t52 -131.5t-52.5 -133.5t-151.5 -51.5q-102 0 -154 51t-52 134zM669 170q0 82 51.5 131.5t152.5 49.5q102 0 154 -49.5t52 -131.5q0 -83 -53 -134t-153 -51q-102 0 -153 51t-51 134zM1213 170q0 82 52 131.5 t153 49.5q102 0 153.5 -49t51.5 -132t-52.5 -134t-153 -51t-152.5 51t-52 134z" />
<glyph unicode="&#x2030;" horiz-adv-x="2949" d="M78 1002q0 75 12.5 138.5t42.5 122t76 99t118 64t163 23.5q115 0 197 -35.5t127 -100.5t65 -141t20 -170t-22 -171.5t-69 -140.5t-127.5 -98.5t-190.5 -35.5q-113 0 -195.5 35t-128.5 98t-67 140t-21 173zM361 1002q0 -118 28 -178.5t101 -60.5q48 0 76 33.5t37.5 83 t9.5 122.5q0 40 -2.5 72t-10.5 65.5t-21 55.5t-35.5 36t-53.5 14q-129 0 -129 -243zM559 -41l714 1576h241l-714 -1576h-241zM1166 428q0 76 12.5 139.5t42.5 122t76 98.5t118 64t163 24q115 0 196.5 -36t127 -100t65.5 -140.5t20 -171.5q0 -93 -22.5 -170.5t-69 -140.5 t-127.5 -98.5t-190 -35.5q-114 0 -196 34t-128 97t-67 140.5t-21 173.5zM1449 428q0 -117 28 -178t101 -61q47 0 75.5 33t38 83t9.5 123q0 51 -4.5 90.5t-17 76t-38 56.5t-63.5 20q-129 0 -129 -243zM2050 428q0 76 12.5 139.5t42.5 122t76 98.5t118 64t163 24 q115 0 196.5 -36t127 -100t65.5 -140.5t20 -171.5q0 -93 -22 -170.5t-69 -140.5t-128 -98.5t-190 -35.5q-114 0 -196 34t-128 97t-67 140.5t-21 173.5zM2333 428q0 -117 28 -178t101 -61q48 0 76 33t37.5 83t9.5 123q0 51 -4.5 90.5t-16.5 76t-38 56.5t-64 20 q-129 0 -129 -243z" />
<glyph unicode="&#x2039;" horiz-adv-x="799" d="M107 398v80l390 419l161 -109l-228 -349l224 -345l-164 -115z" />
<glyph unicode="&#x203a;" horiz-adv-x="799" d="M107 788l162 109l391 -419v-80l-383 -419l-163 115l224 345z" />
<glyph unicode="&#x2044;" horiz-adv-x="229" d="M-331 -41l714 1576h241l-714 -1576h-241z" />
<glyph unicode="&#x20ac;" d="M54 548v129h937v-129h-417q16 -125 97.5 -188t216.5 -63q160 0 331 34l43 -294q-86 -27 -207 -42.5t-224 -15.5q-601 0 -667 569h-110zM54 759v138h110q12 93 40 173.5t81.5 155t128 127t185.5 83.5t248 31q195 0 380 -57l-51 -285q-144 34 -290 34q-293 0 -318 -262h423 v-138h-937z" />
<glyph unicode="&#x2116;" horiz-adv-x="2530" d="M142 0v1482h430q23 -40 175 -297.5t207 -353.5q21 -36 61.5 -107t61.5 -107h15v865h412v-1482h-431q-31 57 -187 320t-213 366q-72 131 -109 200h-14v-886h-408zM1625 1118q0 162 104 261.5t307 99.5q199 0 300.5 -99.5t101.5 -261.5q0 -164 -101.5 -263.5t-304.5 -99.5 q-202 0 -304.5 99t-102.5 264zM1639 445v230h789v-230h-789zM1918 1118q0 -84 25.5 -131t92.5 -47q112 0 112 178q0 175 -112 175q-118 0 -118 -175z" />
<glyph unicode="&#x2122;" horiz-adv-x="1917" d="M51 1311v173h762v-173h-261v-607h-240v607h-261zM878 704v780h290l92 -202q58 -133 76 -170l12 2l72 174l90 196h302v-780h-234l-2 440h-6l-43 -103l-86 -194h-191l-80 166l-56 126h-8v-435h-228z" />
<glyph unicode="&#x2202;" horiz-adv-x="1145" d="M41 486q0 226 131.5 364.5t330.5 138.5q144 0 250 -80q-26 206 -134 306.5t-277 100.5q-53 0 -116 -9v226q92 16 170 16q164 0 290 -60.5t203.5 -169t116.5 -251.5t39 -315q0 -374 -146 -574t-388 -200q-208 0 -339 133.5t-131 373.5zM316 490q0 -135 57 -201.5 t146 -66.5q81 0 139.5 62t85 152.5t26.5 193.5q-119 129 -253 129q-92 0 -146.5 -82t-54.5 -187z" />
<glyph unicode="&#x220f;" horiz-adv-x="1681" d="M172 -254v1738h1338v-1738h-428v1444h-487l2 -1444h-425z" />
<glyph unicode="&#x2211;" horiz-adv-x="1470" d="M64 -10l388 638q-38 63 -188.5 318.5t-187.5 317.5v220h1244v-290h-688l-10 -20l301 -511v-68l-314 -541l13 -15h732v-291h-1290v242z" />
<glyph unicode="&#x221a;" horiz-adv-x="1210" d="M142 710l314 168q14 -47 86 -277t78 -246h10q24 83 179.5 622.5t179.5 622.5h263l-512 -1709h-237q-13 39 -100.5 318t-101.5 318l-37 -21q-38 -20 -45 -22z" />
<glyph unicode="&#x221e;" horiz-adv-x="1719" d="M76 597q0 158 111.5 266.5t288.5 108.5q94 0 193 -52t185 -130q84 87 176 134.5t211 47.5q171 0 281 -105t110 -267q0 -158 -115.5 -268t-293.5 -110q-176 0 -369 189q-93 -93 -180.5 -141t-207.5 -48q-167 0 -278.5 106t-111.5 269zM355 597q0 -60 36 -102.5t89 -42.5 q89 0 212 141q-121 147 -214 147q-52 0 -87.5 -42t-35.5 -101zM1015 597q72 -75 118.5 -110t93.5 -35q53 0 88 43.5t35 104.5q0 62 -35 101t-85 39q-87 0 -215 -143z" />
<glyph unicode="&#x222b;" horiz-adv-x="712" d="M-56 -331q2 9 19.5 108t19.5 109q86 -11 126 -11q76 0 108.5 37t32.5 123q-2 223 -26 567q-29 455 -29 630.5t92.5 280t260.5 104.5q102 0 213 -25l-30 -218q-82 11 -120 11q-84 0 -114.5 -39.5t-30.5 -136.5q0 -77 3 -160.5t6 -138t9 -146.5t8 -132q31 -331 31 -611 q0 -171 -101.5 -276.5t-257.5 -105.5q-85 0 -220 30z" />
<glyph unicode="&#x2248;" horiz-adv-x="1352" d="M148 415q89 239 269 239q77 0 233 -42t220 -44q88 68 125 95l117 -89q-81 -243 -265 -243q-87 0 -242.5 42t-206.5 42l-129 -88zM148 768q90 238 269 238q77 0 233 -40.5t220 -42.5l125 92l117 -84q-80 -247 -265 -247q-88 0 -244.5 42t-204.5 44q-55 -43 -129 -89z" />
<glyph unicode="&#x2260;" horiz-adv-x="1352" d="M176 123l177 226h-162v223h332q25 32 122 144h-454v226h626q14 18 71.5 88.5t70.5 89.5h204l-139 -178h123v-226h-298q-7 -10 -53.5 -68.5t-58.5 -75.5h410v-223h-583q-13 -17 -86 -108.5t-93 -117.5h-209z" />
<glyph unicode="&#x2264;" horiz-adv-x="1352" d="M90 0v234h1051v-234h-1051zM92 699v196l1052 380v-282l-682 -195q77 -25 340 -114t342 -114v-282z" />
<glyph unicode="&#x2265;" horiz-adv-x="1352" d="M140 290v282l685 226q-7 3 -342 98t-343 97v282l1054 -380v-196zM142 0v234h1056v-234h-1056z" />
<glyph unicode="&#x25ca;" horiz-adv-x="1139" d="M64 684l377 726h191l370 -726l-372 -723h-191zM340 686l200 -393l193 391l-197 395z" />
<glyph unicode="&#x25fc;" horiz-adv-x="1060" d="M0 0v1060h1060v-1060h-1060z" />
</font>
</defs>
</svg>
