<?xml version="1.0" standalone="no"?>
<!DOCTYPE svg PUBLIC "-//W3C//DTD SVG 1.1//EN" "http://www.w3.org/Graphics/SVG/1.1/DTD/svg11.dtd" >
<svg xmlns="http://www.w3.org/2000/svg">
<metadata></metadata>
<defs>
<font id="pf_centro_sans_prolight" horiz-adv-x="1165" >
<font-face units-per-em="2048" ascent="1536" descent="-512" />
<missing-glyph horiz-adv-x="577" />
<glyph unicode="&#xfb01;" horiz-adv-x="1123" d="M63 970v71q17 5 81.5 16.5t72.5 13.5v163q0 100 28 171t81 110t120.5 55.5t155.5 16.5q129 0 303 -33q-13 -55 -20 -97q-165 24 -267 24q-157 0 -221 -55t-64 -209v-150h631v-1067h-123v970h-508v-970h-118v970h-152z" />
<glyph unicode="&#xfb02;" horiz-adv-x="1138" d="M65 970v71q17 5 81.5 16.5t72.5 13.5v152q0 102 27.5 172.5t82 110t123.5 56t163 16.5q154 -7 277 -26q11 1 43.5 7t41.5 7q0 -145 -1 -782.5t-1 -783.5h-118v1451q-158 21 -239 21q-154 0 -217.5 -55.5t-63.5 -209.5v-140h332v-97h-332q0 -86 -1 -484t-1 -486h-118v970 h-152z" />
<glyph horiz-adv-x="2048" />
<glyph horiz-adv-x="2048" />
<glyph unicode="&#xd;" horiz-adv-x="729" />
<glyph unicode=" "  horiz-adv-x="577" />
<glyph unicode="&#x09;" horiz-adv-x="577" />
<glyph unicode="&#xa0;" horiz-adv-x="577" />
<glyph unicode="!" horiz-adv-x="452" d="M138 75q0 37 28.5 63.5t67.5 26.5t66.5 -26.5t27.5 -63.5q0 -40 -28 -68t-66 -28q-39 0 -67.5 27.5t-28.5 68.5zM171 1518h122l-2 -672l-15 -484h-81l-17 484z" />
<glyph unicode="&#x22;" horiz-adv-x="503" d="M92 1499h121l-27 -418h-65zM301 1499h117l-23 -418h-71z" />
<glyph unicode="#" horiz-adv-x="1136" d="M98 441l15 76h163q78 355 86 401h-172l19 75h170q5 31 44 202.5t39 174.5h82l-84 -377h357l84 377h83l-83 -377h166l-15 -75h-167l-88 -401h173l-14 -76h-174q-44 -183 -94 -441h-83l92 441h-356l-94 -441h-82l94 441h-161zM357 517h358q78 355 85 401h-355z" />
<glyph unicode="$" d="M136 111l44 96q146 -80 287 -96v627q-73 27 -125 54.5t-98 68t-69.5 97.5t-23.5 131q0 149 86.5 241.5t229.5 122.5v145h66v-1765h-66v176q-182 17 -331 102zM261 1100q0 -103 51.5 -156.5t154.5 -92.5v499q-93 -25 -149.5 -87t-56.5 -163zM609 -167v1765h68v-139 q157 -11 268 -79l-35 -90q-120 58 -233 69v-575q53 -21 79.5 -33t72 -34.5t70 -41t56.5 -48.5t47.5 -61.5t27 -74.5t11.5 -92q0 -166 -99.5 -261.5t-264.5 -122.5v-182h-68zM677 117q254 41 254 289q0 51 -19 93t-55 74.5t-79 55.5t-101 44v-556z" />
<glyph unicode="%" horiz-adv-x="1752" d="M63 1010q0 64 7.5 121.5t30.5 120.5t60 108t102 74.5t151 29.5q63 0 114 -16t84.5 -42.5t59.5 -65t39.5 -76.5t22.5 -86t11 -85.5t2 -80.5q0 -65 -9.5 -124t-34 -116.5t-61 -100t-96.5 -68.5t-136 -26q-86 0 -149.5 25t-100.5 65t-59.5 99t-30 116t-7.5 128zM171 1008 q0 -63 5 -110.5t20.5 -95.5t41.5 -78t70.5 -48.5t105.5 -18.5q66 0 113.5 31t71 85.5t33.5 112t10 124.5q0 41 -2 73.5t-9 79t-22.5 81.5t-39 67t-64 49.5t-91.5 17.5q-243 0 -243 -370zM515 -50l629 1582h88l-625 -1582h-92zM1004 427q0 64 7.5 121.5t30.5 120.5t59.5 108 t102 74.5t151.5 29.5q63 0 113.5 -16t84.5 -42t59.5 -64.5t39.5 -76.5t22.5 -86t10.5 -85.5t2 -81.5q0 -65 -9.5 -124t-33.5 -117.5t-61 -101t-97 -69t-136 -26.5q-85 0 -149 26t-100.5 66t-59 99.5t-30 116.5t-7.5 128zM1111 425q0 -63 5 -111t20.5 -95t42 -77t71 -48.5 t105.5 -18.5q66 0 113 31t70.5 85t34 111.5t10.5 124.5q0 50 -3 89.5t-16.5 95.5t-36 93t-67 63.5t-105.5 26.5q-244 0 -244 -370z" />
<glyph unicode="&#x26;" horiz-adv-x="1546" d="M63 393q0 143 95 258t281 219q-123 167 -123 305q0 130 79 217t216 87q143 0 219.5 -79.5t76.5 -196.5q0 -107 -79 -196t-236 -177q245 -354 438 -548q115 110 183.5 250t83.5 346h104q-14 -221 -91 -380.5t-208 -282.5q77 -75 166.5 -137t168.5 -95q-7 -16 -50 -88 q-78 37 -184.5 108t-186.5 146q-108 -83 -235.5 -125.5t-254.5 -42.5q-203 0 -333 105.5t-130 306.5zM178 397q0 -158 97 -242t246 -84q215 0 426 146q-95 101 -207 237q-162 206 -247 330q-151 -81 -233 -173t-82 -214zM429 1186q0 -112 112 -270q259 130 259 287 q0 81 -52 131.5t-143 50.5q-48 0 -83.5 -20t-55 -51.5t-28.5 -64t-9 -63.5z" />
<glyph unicode="'" horiz-adv-x="362" d="M123 1499h120l-26 -418h-68z" />
<glyph unicode="(" horiz-adv-x="593" d="M129 627q0 140 26 276.5t60 234t82.5 191t80 141.5t65.5 92l50 -35q-24 -39 -49 -83t-62 -133t-64.5 -182.5t-48 -227.5t-20.5 -272q0 -556 246 -968l-52 -38q-34 46 -64 92.5t-79.5 145.5t-83.5 202.5t-60.5 254.5t-26.5 309z" />
<glyph unicode=")" horiz-adv-x="595" d="M88 -339q245 410 245 968q0 138 -20 272t-47 227.5t-64.5 182.5t-62.5 133t-49 83l52 35q35 -46 65.5 -92.5t79 -141t82 -191t59.5 -233.5t26 -277q0 -158 -26.5 -309t-60.5 -254.5t-83.5 -202.5t-79.5 -145.5t-64 -92.5z" />
<glyph unicode="*" horiz-adv-x="786" d="M94 1232q3 78 42 131l232 -116q-6 48 -21 140.5t-19 115.5q38 7 73 7q46 0 68 -7q-8 -40 -21.5 -126.5t-20.5 -129.5q125 57 232 112q42 -50 42 -132q-50 -6 -142 -20.5t-118 -18.5q35 -33 98 -98.5t84 -85.5q-43 -56 -108 -82q-10 19 -120 233l-115 -231q-66 22 -111 80 q26 27 56.5 59t66.5 69.5t57 57.5q-43 7 -127.5 20.5t-127.5 21.5z" />
<glyph unicode="+" d="M178 605v94h361v357h99v-357h359v-94h-359v-371h-99v371h-361z" />
<glyph unicode="," horiz-adv-x="370" d="M79 -207q37 41 56.5 94t21.5 104q-31 7 -50 30t-19 56q0 39 26.5 65.5t65.5 26.5q45 0 72.5 -31.5t27.5 -82.5q0 -76 -48 -166t-121 -134z" />
<glyph unicode="-" horiz-adv-x="757" d="M113 510v111h531v-111h-531z" />
<glyph unicode="." horiz-adv-x="389" d="M98 79.5q0 37.5 27.5 64.5t65 27t64.5 -27t27 -64.5t-27.5 -65t-64.5 -27.5t-64.5 27.5t-27.5 65z" />
<glyph unicode="/" horiz-adv-x="705" d="M25 -59l565 1591h89l-562 -1591h-92z" />
<glyph unicode="0" d="M65 713q0 73 5.5 143t21 148t40 143.5t66 127t95 105t130.5 69t169 25.5q508 0 508 -755q0 -108 -15 -207.5t-52 -197.5t-93 -169.5t-146 -115.5t-204 -44q-94 0 -170.5 22t-130 59.5t-94 93.5t-65 116.5t-39.5 136.5t-20.5 146.5t-5.5 153.5zM190 708q0 -110 9.5 -196 t36 -169t70 -137.5t116 -87t170.5 -32.5q90 0 159 38t110.5 98t68 145t36 168t9.5 178q0 62 -2.5 111t-11 120.5t-23.5 126.5t-43 114t-67.5 97.5t-100 64t-135.5 25.5q-402 0 -402 -664z" />
<glyph unicode="1" d="M224 1290v86l337 77h118v-1453h-120v1324z" />
<glyph unicode="2" d="M75 0v90l195 184q93 87 163.5 158t147.5 160.5t127.5 165.5t83 158t32.5 153q0 145 -86.5 218.5t-229.5 73.5q-190 0 -374 -119q-18 32 -48 79q201 147 443 147q189 0 306.5 -96.5t117.5 -286.5q0 -91 -38 -189t-93.5 -180.5t-138.5 -176t-152 -159.5t-156 -149.5 t-130 -129.5q2 -3 2 -5q126 0 380.5 -1t380.5 -1v-94h-933z" />
<glyph unicode="3" d="M86 59l33 90q211 -63 368 -63q189 0 300.5 91.5t111.5 271.5q0 153 -112 234.5t-314 81.5q-75 0 -136 -9q-22 68 -28 79l496 504l-10 9h-653v103h820l22 -81q-107 -110 -493 -496l4 -8h57q217 0 345 -105.5t128 -308.5q0 -115 -40.5 -205.5t-111.5 -147t-163 -86.5 t-197 -30q-256 0 -427 76z" />
<glyph unicode="4" d="M55 412v98q101 136 341 453t367 488h129v-943h214v-96h-214q0 -70 1.5 -207.5t1.5 -204.5h-124q0 67 1.5 204.5t1.5 207.5h-719zM173 508h603v782h-11z" />
<glyph unicode="5" d="M103 61l33 90q204 -65 359 -65q199 0 310 91.5t111 276.5q0 164 -107 252.5t-272 88.5q-139 0 -261 -61q-8 3 -41 25t-38 25q3 70 18.5 333t18.5 334h743v-103h-638q-5 -67 -30 -505q7 2 40 14.5t57 19t71.5 13.5t101.5 7q68 0 133 -15t126 -49.5t106 -84.5t72 -125.5 t27 -168.5q0 -94 -26.5 -173t-73.5 -133.5t-111.5 -92.5t-138 -56t-156.5 -18q-255 0 -434 80z" />
<glyph unicode="6" d="M113 664q0 240 60.5 420t187.5 284t308 104q172 0 310 -65l-32 -90q-137 53 -276 53q-72 0 -133.5 -24.5t-104 -62.5t-77 -90.5t-55.5 -105.5t-35.5 -111.5t-20.5 -103t-9 -83.5l9 -7q189 113 395 113q88 0 162.5 -25.5t135.5 -76t96 -139t35 -205.5 q0 -213 -129.5 -338.5t-341.5 -125.5q-113 0 -198.5 36t-139 96t-87.5 148.5t-47 185t-13 213.5zM239 615q0 -532 363 -532q163 0 255 98.5t92 259.5q0 352 -331 352q-217 0 -379 -122v-56z" />
<glyph unicode="7" d="M147 1350v103h859v-98l-607 -1355h-121l609 1350h-740z" />
<glyph unicode="8" d="M92 351q0 135 70 260.5t215 210.5q-111 61 -161.5 131t-50.5 169q0 148 120.5 251.5t310.5 103.5q77 0 149 -20t135.5 -58.5t102 -107t38.5 -156.5q0 -212 -230 -376q263 -133 263 -378q0 -167 -129 -281.5t-353 -114.5q-233 0 -356.5 104.5t-123.5 261.5zM217 366 q0 -56 20.5 -105t62 -90.5t113.5 -65.5t166 -24q169 0 261.5 89t92.5 213q0 50 -13.5 92t-41.5 75t-61.5 60t-86 53t-100 46.5t-116.5 49.5q-28 10 -43 17q-132 -83 -193 -191t-61 -219zM291 1122q0 -25 6.5 -48t15 -42t27 -38.5t32.5 -33t42.5 -30.5t45.5 -27.5t53 -26.5 t53.5 -23.5t58.5 -24.5t57 -23q221 151 221 310q0 45 -17 89t-52.5 83.5t-98.5 64t-145 24.5q-80 0 -141.5 -26.5t-94 -68t-48 -82t-15.5 -77.5z" />
<glyph unicode="9" d="M86 1006q0 215 128 340.5t342 125.5q113 0 198.5 -35.5t139 -96t87 -149.5t47 -184.5t13.5 -213.5q0 -241 -61 -420t-187.5 -282.5t-307.5 -103.5q-103 0 -193.5 19t-140.5 44l33 90q138 -54 301 -54q82 0 150 31t113 84t78 114t51.5 130.5t27.5 122.5t11 101l-9 6 q-179 -116 -392 -116q-89 0 -164 25t-136 77t-95 140t-34 205zM207 1016q0 -355 328 -355q43 0 84 5.5t73.5 13.5t64 18.5t53.5 21.5t42.5 22.5t32.5 19.5t21 15l10 7v55q0 57 -5 108t-17 116t-38 116t-64.5 96t-100 70t-139.5 25q-164 0 -254.5 -97t-90.5 -257z" />
<glyph unicode=":" horiz-adv-x="385" d="M103 83q0 37 27 63.5t64.5 26.5t65 -26.5t27.5 -63.5q0 -38 -26 -66t-64.5 -28t-66 28t-27.5 66zM103 765q0 37 27 63.5t64.5 26.5t65 -26.5t27.5 -63.5q0 -38 -27 -66t-63 -28q-38 0 -66 28.5t-28 65.5z" />
<glyph unicode=";" horiz-adv-x="385" d="M90 -203q76 85 79 194q-32 7 -51.5 30.5t-19.5 55.5q0 39 27 65.5t68 26.5q43 0 71.5 -32t28.5 -82q0 -75 -48.5 -164.5t-121.5 -135.5zM103 765q0 37 27 63.5t64.5 26.5t65 -26.5t27.5 -63.5q0 -38 -27 -66t-63 -28q-38 0 -66 28.5t-28 65.5z" />
<glyph unicode="&#x3c;" d="M173 605v89l831 426v-112l-722 -357l722 -362v-111z" />
<glyph unicode="=" d="M163 456v94h839v-94h-839zM163 767v96h839v-96h-839z" />
<glyph unicode="&#x3e;" d="M173 178v111l722 362l-722 357v112l831 -426v-89z" />
<glyph unicode="?" horiz-adv-x="928" d="M92 1472q193 67 379 67q196 0 297.5 -77t101.5 -218q0 -60 -27 -118.5t-69.5 -108t-94.5 -97.5t-104.5 -94t-95 -91t-69.5 -96t-27 -100q0 -43 20 -162l-108 -20q-25 115 -25 197q0 61 25.5 119t67 105.5t91.5 93.5t99.5 90t91.5 86.5t67.5 92.5t25.5 99q0 100 -73 146.5 t-196 46.5q-164 0 -346 -59zM299 73q0 36 27 63t65 27t66 -27t28 -63q0 -40 -27.5 -65t-64.5 -25q-39 0 -66.5 25.5t-27.5 64.5z" />
<glyph unicode="@" horiz-adv-x="1892" d="M163 728q0 164 66 309t178.5 246.5t264.5 159.5t319 58q349 0 550 -191t201 -513q-1 -109 -33 -196t-84 -139.5t-114 -80.5t-126 -28q-181 0 -233 124q-55 -52 -135 -87t-166 -35q-66 0 -113 22.5t-70 60t-33 74.5t-10 75q0 107 71.5 165t195.5 70l241 17v71 q0 111 -39 153.5t-141 42.5q-122 0 -252 -48q-13 34 -22 73q137 63 298 63q250 0 250 -253v-356q0 -72 42 -111.5t122 -39.5q48 0 93 21t84.5 62.5t63.5 113t24 164.5q0 297 -180 464t-485 167q-201 0 -372 -90.5t-272.5 -250t-101.5 -353.5q0 -197 90 -356.5t246 -249 t348 -89.5q135 0 261 42l22 -73q-130 -48 -277 -48q-223 0 -400 99t-274.5 274.5t-97.5 396.5zM725 594q0 -74 40 -117t120 -43q128 0 248 107v230l-230 -20q-78 -5 -128 -47t-50 -110z" />
<glyph unicode="A" horiz-adv-x="1206" d="M31 0l488 1497h167q92 -279 258 -791.5t229 -705.5h-134l-132 410h-616q-20 -64 -61.5 -201t-64.5 -209h-134zM326 510h550q-103 341 -199 634q-5 20 -72 241h-7l-75 -241z" />
<glyph unicode="B" horiz-adv-x="1279" d="M175 0v1495h498q210 0 319.5 -102t109.5 -273q0 -34 -8 -73t-28 -86.5t-61.5 -93.5t-99.5 -78v-15q56 -20 99.5 -53.5t70 -71.5t43.5 -83.5t23.5 -85.5t6.5 -81q0 -178 -117.5 -288.5t-287.5 -110.5h-568zM303 101h396q83 0 146 25t100 69.5t55.5 99t18.5 119.5 q0 127 -88.5 219t-233.5 92h-394v-624zM303 828h356q145 0 229.5 75.5t84.5 202.5q0 131 -80.5 209.5t-244.5 78.5h-345v-566z" />
<glyph unicode="C" horiz-adv-x="1246" d="M132 738q0 105 16 205.5t59.5 208t111 187t181 130.5t259.5 51q224 0 372 -58l-31 -99q-158 53 -331 53q-253 0 -378.5 -179.5t-125.5 -500.5q0 -111 11.5 -199.5t44.5 -174.5t87.5 -144t146 -93t214.5 -35q71 0 177 13t187 37l26 -92q-73 -29 -190.5 -46t-221.5 -17 q-134 0 -238.5 35t-175 98t-116 157.5t-65.5 208t-20 254.5z" />
<glyph unicode="D" horiz-adv-x="1364" d="M175 0v1499h461q598 0 598 -748q0 -751 -621 -751h-438zM307 105h289q31 0 52.5 1t63.5 7t73.5 16.5t74 33t74 53t64.5 79t54 109.5t34.5 146.5t13.5 185.5q0 132 -20 237.5t-50.5 173t-76.5 117t-86.5 74t-94 39t-86.5 17t-75 2.5h-304v-1291z" />
<glyph unicode="E" horiz-adv-x="1163" d="M175 0v1497h862v-101h-732v-553h626v-100h-626v-640h769v-103h-899z" />
<glyph unicode="F" horiz-adv-x="1102" d="M175 0v1497h858v-103h-728v-557h617v-103h-617v-734h-130z" />
<glyph unicode="G" horiz-adv-x="1334" d="M132 740q0 73 8.5 145t30 150t54 147t85 132t118.5 108t158.5 71.5t202.5 26.5q232 0 379 -58l-26 -97q-173 51 -345 51q-265 0 -398.5 -181t-133.5 -503q0 -108 12 -196t45 -173.5t87.5 -142.5t145 -92.5t210.5 -35.5q66 0 152.5 11t140.5 31v625h123v-711 q-192 -63 -432 -63q-617 0 -617 755z" />
<glyph unicode="H" horiz-adv-x="1371" d="M175 0v1497h134q0 -59 -1 -325.5t-1 -325.5h756v651h133v-1497h-133v736h-756q0 -65 1 -367t1 -369h-134z" />
<glyph unicode="I" horiz-adv-x="521" d="M197 0v1499h127v-1499h-127z" />
<glyph unicode="J" horiz-adv-x="619" d="M-94 -299q105 60 170.5 112.5t112 117t66 141.5t19.5 181v1246h127v-1240q0 -132 -29.5 -234.5t-89 -179.5t-141 -133.5t-196.5 -104.5z" />
<glyph unicode="K" horiz-adv-x="1204" d="M175 0v1499h130v-723l701 723h153l-587 -600l603 -899h-147l-541 809l-182 -184v-625h-130z" />
<glyph unicode="L" horiz-adv-x="1163" d="M199 0v1497h132v-1396h800v-101h-932z" />
<glyph unicode="M" horiz-adv-x="1739" d="M175 0v1495h145q82 -180 236 -529t228 -512l79 -182h11q9 17 82 184q89 202 262 584t206 455h138v-1495h-125q0 207 -1 623.5t-1 625.5h-4l-101 -228q-48 -107 -136 -298.5t-153.5 -336.5t-111.5 -250h-124q-60 136 -174 381q-50 119 -230 511l-96 223h-6v-1251h-124z " />
<glyph unicode="N" horiz-adv-x="1441" d="M175 0v1497h132q76 -115 323 -498t326 -508l175 -272h9v1278h127l-2 -1497h-125q-25 37 -182.5 281.5t-291 452t-181.5 280.5l-176 283q-1 0 -4 -1t-4 -1v-1295h-126z" />
<glyph unicode="O" horiz-adv-x="1480" d="M132 736q0 127 19.5 239t65.5 213.5t116 174t177.5 115t243.5 42.5q137 0 243 -43t172 -114.5t107.5 -174t57.5 -210.5t16 -235q0 -163 -38 -300.5t-111 -239.5t-187.5 -159.5t-259.5 -58.5q-167 0 -287.5 51.5t-193.5 151t-107 234.5t-34 314zM265 732 q0 -322 116.5 -484t365.5 -162q116 0 207 50.5t147.5 140t84.5 206t28 253.5q0 684 -460 684q-489 0 -489 -688z" />
<glyph unicode="P" horiz-adv-x="1150" d="M175 0v1499h463q200 0 324.5 -109.5t124.5 -315.5q0 -58 -11.5 -114.5t-42 -117t-78 -105.5t-124.5 -74.5t-174 -29.5h-352l2 -633h-132zM305 734h337q61 0 113 16t98.5 52.5t73 104t26.5 160.5q0 160 -88.5 244.5t-228.5 84.5h-331v-662z" />
<glyph unicode="Q" horiz-adv-x="1480" d="M132 736q0 129 19 240t65 212.5t116 174t177.5 115t244.5 42.5t242.5 -43t171.5 -115t107.5 -174.5t58 -211t16.5 -236.5q0 -260 -96.5 -449t-276.5 -262q145 -40 359 -92l-43 -121q-19 6 -225.5 73t-258.5 86q-8 1 -28 3t-27 3q-168 5 -288 57t-193.5 150.5t-107 232.5 t-33.5 315zM265 732q0 -322 115.5 -485.5t364.5 -163.5q117 0 208 51t147.5 141.5t85 207t28.5 253.5q0 682 -460 682q-96 0 -173 -27t-129.5 -76t-90 -111.5t-57.5 -142.5t-29.5 -159t-9.5 -170z" />
<glyph unicode="R" horiz-adv-x="1233" d="M175 0v1499h471q221 0 332 -110.5t111 -292.5q0 -89 -27 -166.5t-89.5 -139.5t-152.5 -85q82 -26 126.5 -89.5t74.5 -168.5l129 -447h-131l-122 429q-44 138 -117.5 191t-189.5 53h-285v-673h-130zM305 776h335q139 0 227.5 76t88.5 237q0 152 -88 228.5t-235 76.5h-328 v-618z" />
<glyph unicode="S" horiz-adv-x="1198" d="M101 94l43 96q209 -100 421 -100q199 0 300 73t101 240q0 58 -18 103.5t-46.5 76t-77 55.5t-95 40.5t-116.5 34.5q-67 18 -108.5 29.5t-98.5 32t-92 40.5t-74 50t-60.5 64t-36 80t-14.5 102q0 193 132 302.5t346 109.5q232 0 392 -79l-41 -99q-183 71 -360 71 q-151 0 -243 -78t-92 -225q0 -39 11.5 -71t28 -55.5t47.5 -45.5t56.5 -35.5t70 -28.5t73.5 -23.5t79 -21.5q176 -47 244 -79q176 -81 214 -239q13 -51 13 -111q0 -109 -40 -190.5t-113 -130.5t-167.5 -73t-210.5 -24q-281 0 -468 109z" />
<glyph unicode="T" horiz-adv-x="1173" d="M42 1394v105h1089v-105h-478l-2 -1394h-128v1394h-481z" />
<glyph unicode="U" horiz-adv-x="1432" d="M167 533v966h124l2 -964q0 -221 108 -335t316 -114q206 0 314.5 113t108.5 336v964h129v-966q0 -253 -140.5 -400.5t-413.5 -147.5q-548 0 -548 548z" />
<glyph unicode="V" horiz-adv-x="1156" d="M31 1499h138l322 -1072l86 -293h8l88 297l320 1068h134l-470 -1499h-157z" />
<glyph unicode="W" horiz-adv-x="1767" d="M31 1495h132q204 -879 214 -920l96 -424h10q32 130 94 412q148 641 216 932h136q212 -789 250 -928q5 -17 111 -416h12l94 418l212 926h128q-242 -1002 -364 -1495h-155q-40 151 -122 451t-125 461q-75 296 -102 390h-13q-15 -69 -46.5 -204.5t-45.5 -205.5 q-106 -443 -207 -892h-161z" />
<glyph unicode="X" horiz-adv-x="1156" d="M29 0q441 724 471 776q-229 379 -441 721h144q133 -226 378 -631l379 631h142q-86 -139 -243.5 -393t-205.5 -333l474 -771h-145l-407 679l-406 -679h-140z" />
<glyph unicode="Y" horiz-adv-x="1095" d="M27 1499h138l234 -445l138 -274h9l142 272l243 447h136l-458 -824v-675h-136v667z" />
<glyph unicode="Z" horiz-adv-x="1099" d="M42 0v105l824 1286h-772v108h927v-105l-824 -1287h861v-107h-1016z" />
<glyph unicode="[" horiz-adv-x="533" d="M127 -351v1876h329v-92h-211v-1690h211v-94h-329z" />
<glyph unicode="\" horiz-adv-x="705" d="M25 1532h88l566 -1591h-92z" />
<glyph unicode="]" horiz-adv-x="533" d="M81 -257h210v1690h-210v92h327v-1876h-327v94z" />
<glyph unicode="^" horiz-adv-x="941" d="M55 857q216 366 372 638h90l364 -638h-103l-309 537l-306 -537h-108z" />
<glyph unicode="_" horiz-adv-x="1095" d="M0 -193h1096v-79h-1096v79z" />
<glyph unicode="`" horiz-adv-x="1046" d="M291 1488l100 90l247 -336l-61 -52z" />
<glyph unicode="a" horiz-adv-x="1108" d="M88 280q0 142 95 223t254 91l334 17v88q0 153 -51.5 215.5t-193.5 62.5q-153 0 -333 -63l-30 85q190 82 389 82q169 0 254.5 -82t85.5 -267v-636h145q0 -2 6 -71q-71 -36 -160 -36q-63 0 -89 30q-24 27 -23 88v14q-2 2 -4 2q-60 -47 -117.5 -77t-108 -41.5t-79 -14.5 t-65.5 -3q-70 0 -124.5 18.5t-88.5 47.5t-56.5 68t-31 78.5t-8.5 80.5zM219 293q0 -107 54.5 -159.5t169.5 -52.5q145 0 328 151v291l-304 -17q-121 -4 -184.5 -60.5t-63.5 -152.5z" />
<glyph unicode="b" horiz-adv-x="1088" d="M129 75v1481h124v-349q0 -14 -3 -106t-3 -108l8 -4q187 98 337 98q89 0 156.5 -28t111.5 -76.5t72 -120t39 -153.5t11 -183q0 -93 -13 -171t-46 -147t-82 -117t-125 -76t-172 -28q-217 0 -415 88zM253 142q130 -56 282 -56q157 0 239.5 101.5t82.5 333.5q0 133 -20 225 t-58.5 143.5t-88 73t-115.5 21.5q-142 0 -322 -103v-739z" />
<glyph unicode="c" horiz-adv-x="974" d="M107 517q0 74 10.5 145t42.5 150.5t81 138t135 97.5t199 39q173 0 299 -54l-33 -92q-123 43 -258 43q-171 0 -260 -123t-89 -335q0 -440 331 -440q82 0 154 17t164 54l33 -84q-160 -88 -357 -88q-99 0 -176 26t-128.5 72t-85 113.5t-48 146.5t-14.5 174z" />
<glyph unicode="d" horiz-adv-x="1090" d="M107 510q0 126 23 227.5t71.5 181t131 123t193.5 43.5q172 0 311 -83v552h123v-1554h-121v109q-1 0 -2 1t-2 1q-71 -57 -161 -90.5t-179 -33.5q-85 0 -152 27t-111 74t-72.5 114t-40.5 143t-12 165zM234 508q0 -230 76 -326t219 -96q70 0 163 39.5t145 89.5v682 q-52 34 -136 59.5t-160 25.5q-66 0 -119.5 -24t-97 -77t-67 -147.5t-23.5 -225.5z" />
<glyph unicode="e" horiz-adv-x="1064" d="M107 529q0 42 3.5 86t16 101t32.5 106.5t54.5 98.5t80 84.5t112.5 57.5t148 22q68 0 124 -14.5t95.5 -36t71.5 -57t51.5 -66.5t33.5 -77t20.5 -75.5t10 -74.5t3.5 -61v-48v-65h-730v-10q0 -417 329 -417q92 0 168.5 19.5t171.5 62.5l32 -84q-182 -96 -376 -96 q-106 0 -186.5 29t-130 77t-80.5 119t-43 147.5t-12 171.5zM236 598h610q0 90 -14.5 159.5t-47 123.5t-89.5 83t-139 29q-286 0 -320 -395z" />
<glyph unicode="f" horiz-adv-x="738" d="M81 973v70l151 31v189q0 156 82.5 234.5t239.5 78.5q94 0 193 -22l-15 -92q-88 15 -153 15q-116 0 -171 -49t-55 -161v-198h318v-96h-318l-2 -973h-119v973h-151z" />
<glyph unicode="g" horiz-adv-x="1143" d="M98 -165q0 88 42 160.5t99 107.5q-134 19 -134 146q0 45 17 79t46.5 52t59 27.5t63.5 13.5l2 6q-66 32 -109.5 106.5t-43.5 181.5q0 78 23.5 141.5t62.5 106t91.5 71.5t109 41t114.5 12q117 0 195 -24h329v-88h-184l-5 -7q97 -81 97 -247q0 -169 -118 -265t-314 -96h-125 q-94 0 -143 -19t-49 -73q0 -41 34 -63.5t95 -22.5h293q193 0 290 -81.5t97 -229.5q0 -161 -136 -253.5t-360 -92.5q-439 0 -439 310zM219 -140q0 -52 14.5 -92t50 -75t104.5 -54.5t168 -19.5q160 0 257 67.5t97 181.5q0 220 -283 220h-261q-62 -25 -104.5 -92.5 t-42.5 -135.5zM263 719q0 -120 74.5 -193.5t191.5 -73.5q147 0 234.5 69t87.5 200q0 49 -15 94t-48 86.5t-93 66.5t-141 25q-140 0 -215.5 -73t-75.5 -201z" />
<glyph unicode="h" horiz-adv-x="1073" d="M129 0v1556h120v-327q0 -171 -4 -259l14 -6q106 57 211 90t178 33q59 0 106 -11t77.5 -28.5t52.5 -45.5t34 -54t18 -63.5t7.5 -64t1.5 -64.5v-756h-123v719q0 54 -4 89.5t-15.5 71.5t-33.5 56.5t-60.5 33t-93.5 12.5q-78 0 -176.5 -34t-185.5 -82v-866h-124z" />
<glyph unicode="i" horiz-adv-x="492" d="M157 1341q0 37 26 64.5t62 27.5q37 0 63.5 -27.5t26.5 -64.5q0 -36 -26.5 -62t-63.5 -26q-35 0 -61.5 26t-26.5 62zM184 0v1067h123v-1067h-123z" />
<glyph unicode="j" horiz-adv-x="512" d="M-55 -387q155 85 205.5 163t50.5 218l-2 1073h123v-1071q-3 -128 -33.5 -209.5t-102.5 -143.5t-203 -116zM175 1341q0 37 26 64.5t62.5 27.5t63 -27.5t26.5 -64.5q0 -35 -26.5 -61.5t-63.5 -26.5q-35 0 -61.5 26t-26.5 62z" />
<glyph unicode="k" horiz-adv-x="939" d="M127 0v1552h122v-703l-4 -268q3 0 12 -4l128 131l362 357h142l-418 -417q8 -11 32.5 -40.5t35.5 -46.5q13 -19 172.5 -256.5t206.5 -304.5h-138q-74 107 -206.5 305t-180.5 270q-24 -25 -72 -72.5t-72 -71.5v-431h-122z" />
<glyph unicode="l" horiz-adv-x="448" d="M163 0v1556h122v-1556h-122z" />
<glyph unicode="m" horiz-adv-x="1725" d="M129 0v1067h118q0 -8 1 -50.5t1 -50.5q1 0 5 -2t5 -2q201 123 374 123q191 0 259 -134q103 63 207.5 98.5t188.5 35.5q82 0 141 -21t91 -51t49.5 -76.5t21.5 -84.5t4 -89v-763h-123v717q0 54 -3.5 90.5t-16 72.5t-35 56.5t-61 33t-93.5 12.5q-76 0 -174 -34t-175 -80 q8 -56 8 -123v-745h-122v736q0 124 -43 183.5t-155 59.5q-155 0 -349 -116v-863h-124z" />
<glyph unicode="n" horiz-adv-x="1073" d="M129 0v1067h120q0 -8 2 -49t2 -50q4 -2 6 -4q94 58 200.5 90.5t187 32.5t137.5 -19.5t87.5 -48.5t47.5 -75t21.5 -84t4.5 -91v-769h-123v717q0 66 -8 110.5t-29.5 82t-63.5 55t-106 17.5q-77 0 -176 -34t-186 -82v-866h-124z" />
<glyph unicode="o" horiz-adv-x="1106" d="M107 523q0 87 15 165.5t49 152t86 127t130 85.5t176 32q99 0 177.5 -32t126.5 -84.5t79 -126.5t43.5 -150.5t12.5 -162.5q0 -85 -12.5 -159.5t-44.5 -146.5t-82.5 -123.5t-130.5 -83t-184 -31.5q-100 0 -177 29.5t-126 78.5t-80.5 119t-44.5 146t-13 165zM234 521 q0 -94 13 -165t46.5 -136.5t101.5 -101t168 -35.5q311 0 311 440q0 68 -7 127t-27 123.5t-53.5 109.5t-90.5 74.5t-133 29.5t-135 -28t-95 -72.5t-59 -106.5t-31.5 -124.5t-8.5 -134.5z" />
<glyph unicode="p" horiz-adv-x="1088" d="M129 -460v1527h114q0 -9 2 -53t2 -52l10 -6q73 57 160.5 91t174.5 34q85 0 152 -27.5t111 -74.5t72.5 -115t40 -144.5t11.5 -167.5q0 -123 -23 -223t-70.5 -178.5t-130 -122t-194.5 -43.5q-183 0 -312 80v-525h-120zM249 169q51 -35 135.5 -61.5t161.5 -26.5 q141 0 225 112t84 363q0 228 -76.5 324.5t-219.5 96.5q-71 0 -164.5 -39t-145.5 -89v-680z" />
<glyph unicode="q" horiz-adv-x="1090" d="M109 514.5q0 97.5 13.5 179.5t45.5 155t82.5 124t127 80.5t174.5 29.5q213 0 408 -88v-1455h-121v282q0 164 2 245l-13 10q-180 -96 -324 -96q-89 0 -157.5 26t-113 71.5t-72.5 114t-40 146.5t-12 175.5zM232 539q0 -130 20 -220.5t58 -142t87.5 -73.5t117.5 -22 q139 0 322 101v747q-132 55 -276 55q-322 0 -329 -445z" />
<glyph unicode="r" horiz-adv-x="688" d="M153 0v1067h123q0 -10 -3 -70.5t-3 -69.5l10 -5q74 65 179 117t172 52q44 0 44 -41q0 -21 -13 -60t-29 -61q-36 -3 -180.5 -33t-174.5 -35v-861h-125z" />
<glyph unicode="s" horiz-adv-x="937" d="M92 65l42 88q147 -72 315 -72q126 0 202.5 49t76.5 150q0 37 -15 68t-36 51t-59.5 40t-67 31.5t-77.5 27.5t-76.5 25.5t-70 27t-67.5 32.5t-54.5 38t-45 48t-26 59t-10.5 72q0 143 102 214t260 71q68 0 150.5 -16t146.5 -50q-32 -81 -37 -90q-140 55 -262 55 q-107 0 -174.5 -46t-67.5 -141q0 -38 23 -70.5t65 -56t76 -37t82 -28.5q156 -51 215 -83q138 -78 144 -223v-17q0 -148 -110.5 -222.5t-286.5 -74.5q-98 0 -194.5 20.5t-162.5 59.5z" />
<glyph unicode="t" horiz-adv-x="728" d="M57 973v68l158 38l40 214l78 13v-239h315v-94h-317v-703q0 -88 34 -133t126 -45q76 0 203 37l21 -83q-120 -55 -248 -55q-256 0 -256 241v741h-154z" />
<glyph unicode="u" horiz-adv-x="1053" d="M129 307v760h124v-722q0 -56 3 -92t14.5 -72.5t33 -56t59.5 -32.5t93 -13q73 0 169.5 40t179.5 113l-3 835q17 0 61 1t61 1v-1069h-119v129l-8 5q-103 -90 -200 -122.5t-170 -32.5q-61 0 -108 11t-78 27.5t-53 45.5t-33.5 53.5t-17 63t-7 63.5t-1.5 64z" />
<glyph unicode="v" horiz-adv-x="926" d="M27 1065h124q24 -77 98 -301t113 -350q93 -303 96 -311h11q5 17 22 74t38 125t40 127q22 67 101 307t106 329h127q-44 -127 -119 -343.5t-136 -392.5t-115 -329h-150q-36 107 -160.5 480.5t-195.5 584.5z" />
<glyph unicode="w" horiz-adv-x="1502" d="M27 1067h122l169 -615l83 -331h9l94 348l173 598h123l204 -646l87 -300h11l77 306l173 640h125l-306 -1067h-141l-193 602l-94 322h-9l-83 -309l-180 -615h-143z" />
<glyph unicode="x" horiz-adv-x="889" d="M15 0q41 64 164 259.5t191 301.5q-19 31 -320 506h138l255 -423q44 71 128 212t128 211h136q-50 -78 -158.5 -245.5t-163.5 -256.5q71 -110 201 -314t160 -251h-140l-291 483q-170 -282 -296 -483h-132z" />
<glyph unicode="y" horiz-adv-x="950" d="M-2 -443l19 92q118 -23 176 -23q69 0 109 29t72 128l73 221h-64q-35 115 -181 558t-167 505h120q17 -56 109 -342.5t110 -350.5l93 -293h8q3 11 16 52t35 113t41 133q35 108 112 352.5t107 335.5h126q-24 -71 -119.5 -366t-182.5 -560t-121 -365q-39 -124 -101.5 -187.5 t-168.5 -63.5q-4 0 -21.5 1t-28.5 1.5t-33 2.5t-40.5 5.5t-44.5 9t-53 12.5z" />
<glyph unicode="z" horiz-adv-x="880" d="M31 0v86l638 876l-8 8h-571v97h732v-92l-634 -870l5 -11l650 2v-96h-812z" />
<glyph unicode="{" horiz-adv-x="540" d="M65 613v75q150 27 150 245v320q0 281 168 281h104v-94h-50q-106 0 -106 -141v-372q0 -231 -124 -274q35 -18 58.5 -43t36.5 -49.5t19 -63.5t8 -70.5t2 -87.5v-471q0 -68 18.5 -103t77.5 -35h60v-92h-100q-172 0 -172 226v506q0 42 -5 74.5t-18.5 70t-46 63t-80.5 35.5z " />
<glyph unicode="|" horiz-adv-x="485" d="M190 -301v1831h97v-1831h-97z" />
<glyph unicode="}" horiz-adv-x="540" d="M61 -270h60q57 0 75.5 35t18.5 103v471q0 136 21.5 203t104.5 111q-126 43 -126 274v372q0 141 -106 141h-48v94h102q168 0 168 -281v-320q0 -218 149 -245v-75q-48 -10 -80 -35.5t-46 -63t-18.5 -70t-4.5 -74.5v-506q0 -226 -174 -226h-96v92z" />
<glyph unicode="~" d="M155 581q74 157 200 157q70 0 257.5 -46t240.5 -46l124 94l53 -39q-68 -157 -193 -157q-86 0 -262 46t-234 46l-130 -97z" />
<glyph unicode="&#xa1;" horiz-adv-x="452" d="M138 989q0 39 28.5 67.5t67.5 28.5q37 0 64.5 -29t27.5 -67t-27 -65t-67 -27q-37 0 -65.5 27t-28.5 65zM171 -458l7 625l17 532h79q11 -321 15 -601q0 -16 2 -278.5t2 -277.5h-122z" />
<glyph unicode="&#xa2;" d="M180 517q0 69 9.5 136t37 143.5t71 135t119 101t173.5 52.5v178h77v-176q158 -3 280 -54l-33 -92q-122 43 -247 43v-898q124 2 289 71l33 -84q-142 -76 -322 -86v-177h-77v177q-410 24 -410 530zM307 526q0 -91 14 -163t45 -132.5t87 -97.5t137 -45v889 q-141 -23 -212 -141.5t-71 -309.5z" />
<glyph unicode="&#xa3;" d="M113 0l4 98q160 68 174 397l12 202h-154v87h158q11 188 11 255q5 92 28.5 166.5t69 134.5t123.5 93t184 33q91 0 186 -17.5t156 -45.5l-37 -97q-141 55 -298 55q-85 0 -142 -23.5t-88 -70.5t-45 -102t-18 -135l-12 -246h428v-87h-435q0 -80 -8 -204q-13 -303 -130 -395 h770v-98h-937z" />
<glyph unicode="&#xa5;" d="M96 1453h132q15 -32 215 -445l134 -272h6q13 23 40.5 77t59 117t38.5 78l222 445h128q-21 -43 -189 -361t-207 -398h335v-69h-859v69h332q-35 69 -193.5 379.5t-193.5 379.5zM151 449v70h859v-70h-370v-449h-125v449h-364z" />
<glyph unicode="&#xa7;" horiz-adv-x="998" d="M129 701q0 174 172 294q-76 53 -110 108t-34 124q0 153 106 236.5t278 83.5q157 0 305 -50l-31 -90q-142 46 -276 46q-70 0 -129 -21t-99.5 -72t-40.5 -126q0 -24 8.5 -47t20.5 -40.5t35.5 -37t43 -32.5t52.5 -31t54 -27.5t59.5 -27.5t56.5 -27q142 -68 207 -139.5 t65 -169.5q0 -152 -151 -285q98 -62 133 -133.5t35 -131.5q0 -111 -60 -189t-152 -112t-206 -34q-156 0 -320 52l27 88q161 -50 295 -50q135 0 218 61.5t83 170.5q0 86 -60.5 143.5t-172.5 105.5q-24 12 -69.5 32t-73.5 31.5t-68 32.5t-65 38t-53.5 43t-44.5 51.5t-27 59 t-11 72.5zM241 725q0 -50 22.5 -89.5t67.5 -69.5t88 -51t111 -49.5t110 -51.5q61 57 93 117.5t32 108.5q0 22 -6 42.5t-13 37t-24 35t-30 31t-39.5 29.5t-42.5 27.5t-52 28t-54 26.5t-60.5 29t-62.5 30q-62 -51 -101 -113.5t-39 -117.5z" />
<glyph unicode="&#xa8;" horiz-adv-x="1025" d="M236 1326q0 32 24 55.5t56 23.5q36 0 59.5 -22.5t23.5 -56.5q0 -33 -23.5 -55t-59.5 -22q-34 0 -57 22t-23 55zM596 1326q0 33 23 56t54 23q35 0 59 -22.5t24 -56.5q0 -33 -24.5 -55t-58.5 -22q-33 0 -55 22t-22 55z" />
<glyph unicode="&#xa9;" horiz-adv-x="1813" d="M119 732q0 159 62.5 304t168.5 250t253 167.5t309 62.5q215 0 399 -105.5t292 -286t108 -392.5q0 -214 -108 -396t-292 -287.5t-399 -105.5q-162 0 -309 62t-253 168t-168.5 252t-62.5 307zM190 732q0 -194 97.5 -358t263.5 -259.5t361 -95.5q148 0 282 56.5t230 151.5 t152.5 227t56.5 277.5t-56.5 278t-152.5 227.5t-230 151t-282 56q-195 0 -361 -95t-263.5 -259t-97.5 -358zM473 715q0 74 11.5 145.5t44.5 149t82.5 136t133 96.5t190.5 38q153 0 268 -42l-22 -81q-112 39 -238 39q-180 0 -274 -129t-94 -354q0 -103 16 -180.5t55.5 -144.5 t114.5 -103t184 -36q142 0 256 38l20 -74q-49 -21 -133.5 -34.5t-160.5 -13.5q-454 0 -454 550z" />
<glyph unicode="&#xaa;" horiz-adv-x="726" d="M42 776q0 96 64.5 146t171.5 60q71 9 222 13v48q0 94 -33 131.5t-122 37.5q-105 0 -232 -46l-8 24t-9.5 27t-7.5 23q136 57 278 57q119 0 177.5 -54t58.5 -180v-392h101l7 -71q-58 -23 -125 -23q-39 0 -59 19t-26 61q-116 -85 -241 -85q-62 0 -106.5 19t-67.5 50t-33 64 t-10 71zM149 784q0 -129 140 -129q45 0 102 23.5t109 61.5v182q-70 -2 -184 -10q-80 -7 -123.5 -39t-43.5 -89z" />
<glyph unicode="&#xab;" horiz-adv-x="882" d="M140 364v79l309 331l53 -44l-234 -327l236 -326l-52 -42zM416 364v79l309 331l55 -44l-236 -327l238 -326l-54 -42z" />
<glyph unicode="&#xac;" d="M178 605v94h819v-465h-98v371h-721z" />
<glyph unicode="&#xae;" horiz-adv-x="1255" d="M98 1037q0 140 69 258t189 187.5t262 69.5q141 0 260 -69.5t189 -187.5t70 -258t-70 -258t-189 -185.5t-260 -67.5q-142 0 -261 66.5t-189 183.5t-70 261zM163 1037q0 -190 131.5 -321t324 -131t324 129.5t131.5 322.5q0 123 -60.5 228t-165 166.5t-230.5 61.5 q-188 0 -321.5 -134.5t-133.5 -321.5zM441 723v638h203q91 0 144 -44t53 -131q0 -53 -30 -102t-94 -72l134 -289h-82l-127 281h-127v-281h-74zM515 1063h127q123 0 123 120q0 62 -34.5 90.5t-88.5 28.5h-127v-239z" />
<glyph unicode="&#xaf;" horiz-adv-x="1066" d="M186 1306v103h680v-103h-680z" />
<glyph unicode="&#xb0;" horiz-adv-x="742" d="M98 1188q0 111 82.5 194.5t196.5 83.5q112 0 191.5 -83.5t79.5 -194.5q0 -115 -79 -193.5t-192 -78.5q-128 0 -203.5 77t-75.5 195zM180 1186q0 -77 57 -134t135 -57q77 0 136 57t59 134q0 80 -59 139.5t-136 59.5q-78 0 -135 -59.5t-57 -139.5z" />
<glyph unicode="&#xb1;" d="M171 19v90h831v-90h-831zM178 600v99h361v351h99v-351h359v-99h-359v-361h-99v361h-361z" />
<glyph unicode="&#xb4;" horiz-adv-x="1051" d="M368 1238l245 338l100 -88l-288 -298z" />
<glyph unicode="&#xb6;" horiz-adv-x="1075" d="M111 1140q0 156 107.5 268t264.5 112h395v-1917h-96v1821h-161l2 -1821h-102v1168h-38q-160 0 -266 106.5t-106 262.5z" />
<glyph unicode="&#xb7;" horiz-adv-x="393" d="M105 620.5q0 38.5 29.5 66.5t68.5 28t68.5 -28t29.5 -66.5t-30.5 -69t-67.5 -30.5q-38 0 -68 30.5t-30 69z" />
<glyph unicode="&#xb8;" horiz-adv-x="1062" d="M408 -467q138 11 206 49t68 98q0 46 -46 70t-119 26q-25 3 -65 3l-25 35q21 27 60 77t71.5 89.5t62.5 74.5l50 -34q-84 -99 -136 -170q116 -2 183.5 -41.5t67.5 -120.5q0 -95 -95 -156.5t-281 -61.5q0 10 -1 31t-1 31z" />
<glyph unicode="&#xba;" horiz-adv-x="755" d="M65 931q0 73 17.5 136.5t52.5 117.5t98.5 85.5t149.5 31.5q70 0 124.5 -21.5t88 -56t55.5 -83.5t30.5 -99.5t8.5 -108.5q0 -72 -15 -131t-48.5 -112.5t-98.5 -84t-156 -30.5q-85 0 -147 28.5t-96 80.5t-49 112.5t-15 134.5zM171 931q0 -59 8 -103t29.5 -84.5t65.5 -62.5 t109 -22q202 0 202 272q0 53 -8 98.5t-28 91.5t-62.5 73t-103.5 27t-105 -25.5t-66 -70t-31.5 -91.5t-9.5 -103z" />
<glyph unicode="&#xbb;" horiz-adv-x="882" d="M121 77l236 326l-234 327l55 44l309 -331v-79l-312 -329zM399 77l237 326l-237 327l55 44l309 -331v-79l-311 -329z" />
<glyph unicode="&#xbf;" horiz-adv-x="928" d="M79 -190q0 170 197 326q159 125 224 209t65 178q0 63 -17 161l103 17q24 -123 24 -193q0 -106 -67 -201.5t-215 -220.5q-93 -72 -136.5 -130.5t-43.5 -133.5q0 -99 72 -145.5t195 -46.5q163 0 350 59l27 -95q-194 -69 -380 -69q-192 0 -293.5 74.5t-104.5 210.5zM464 991 q0 38 28 66t64 28q40 0 68.5 -27.5t28.5 -66.5q0 -38 -28.5 -65t-66 -27t-66 27t-28.5 65z" />
<glyph unicode="&#xc0;" horiz-adv-x="1206" d="M31 0l488 1497h167q92 -279 258 -791.5t229 -705.5h-134l-132 410h-616q-20 -64 -61.5 -201t-64.5 -209h-134zM324 1878l97 90l248 -335l-62 -50zM326 510h550q-103 341 -199 634q-5 20 -72 241h-7l-75 -241z" />
<glyph unicode="&#xc1;" horiz-adv-x="1206" d="M31 0l488 1497h167q92 -279 258 -791.5t229 -705.5h-134l-132 410h-616q-20 -64 -61.5 -201t-64.5 -209h-134zM326 510h550q-103 341 -199 634q-5 20 -72 241h-7l-75 -241zM548 1631l247 335l100 -88l-286 -295z" />
<glyph unicode="&#xc2;" horiz-adv-x="1206" d="M31 0l488 1497h167q92 -279 258 -791.5t229 -705.5h-134l-132 410h-616q-20 -64 -61.5 -201t-64.5 -209h-134zM245 1617l309 288h94l312 -283l-42 -49l-318 209l-315 -211zM326 510h550q-103 341 -199 634q-5 20 -72 241h-7l-75 -241z" />
<glyph unicode="&#xc3;" horiz-adv-x="1206" d="M31 0l488 1497h167q92 -279 258 -791.5t229 -705.5h-134l-132 410h-616q-20 -64 -61.5 -201t-64.5 -209h-134zM276 1681q24 66 70 106.5t101 40.5q52 0 166 -41t152 -41l113 88l46 -35q-24 -67 -67 -108t-96 -41q-59 0 -171.5 43t-148.5 43l-117 -88zM326 510h550 q-103 341 -199 634q-5 20 -72 241h-7l-75 -241z" />
<glyph unicode="&#xc4;" horiz-adv-x="1206" d="M31 0l488 1497h167q92 -279 258 -791.5t229 -705.5h-134l-132 410h-616q-20 -64 -61.5 -201t-64.5 -209h-134zM326 510h550q-103 341 -199 634q-5 20 -72 241h-7l-75 -241zM341 1675q0 31 23.5 53.5t56.5 22.5q35 0 59 -22t24 -54q0 -35 -24 -57.5t-59 -22.5 q-34 0 -57 22.5t-23 57.5zM701 1675q0 31 22.5 53.5t52.5 22.5q36 0 60.5 -21.5t24.5 -54.5q0 -35 -24.5 -57.5t-60.5 -22.5q-32 0 -53.5 22.5t-21.5 57.5z" />
<glyph unicode="&#xc5;" horiz-adv-x="1206" d="M31 0l488 1497h167q92 -279 258 -791.5t229 -705.5h-134l-132 410h-616q-20 -64 -61.5 -201t-64.5 -209h-134zM326 510h550q-103 341 -199 634q-5 20 -72 241h-7l-75 -241zM387 1753q0 84 62 146t153 62q90 0 149.5 -61t59.5 -147q0 -88 -60 -148t-149 -60 q-94 0 -154.5 60.5t-60.5 147.5zM467 1746q0 -59 36 -95t99 -36q59 0 95.5 36.5t36.5 94.5q0 60 -36.5 100t-95.5 40q-62 0 -98.5 -39t-36.5 -101z" />
<glyph unicode="&#xc6;" horiz-adv-x="1984" d="M21 0l947 1497h888v-99h-685v-557h584v-98h-584v-642h722v-101h-852v441h-600l-278 -441h-142zM500 546h541v841h-8z" />
<glyph unicode="&#xc7;" horiz-adv-x="1246" d="M132 738q0 105 16 205.5t59.5 208t111 187t181 130.5t259.5 51q224 0 372 -58l-31 -99q-158 53 -331 53q-253 0 -378.5 -179.5t-125.5 -500.5q0 -111 11.5 -199.5t44.5 -174.5t87.5 -144t146 -93t214.5 -35q71 0 177 13t187 37l26 -92q-70 -27 -179.5 -44t-210.5 -19 q-55 -68 -121 -154q116 -2 184.5 -41t68.5 -121q0 -94 -96 -155.5t-282 -61.5q0 10 -1 30t-1 31q138 11 206 49.5t68 98.5q0 46 -45.5 70t-118.5 26q-24 2 -66 2l-24 34q20 25 70.5 92.5t80.5 101.5q-122 7 -216.5 45t-158.5 102t-106 156t-60.5 202t-18.5 246z" />
<glyph unicode="&#xc8;" horiz-adv-x="1163" d="M175 0v1497h862v-101h-732v-553h626v-100h-626v-640h769v-103h-899zM385 1878l98 90l247 -335l-61 -50z" />
<glyph unicode="&#xc9;" horiz-adv-x="1163" d="M175 0v1497h862v-101h-732v-553h626v-100h-626v-640h769v-103h-899zM537 1631l247 335l99 -88l-285 -295z" />
<glyph unicode="&#xca;" horiz-adv-x="1163" d="M175 0v1497h862v-101h-732v-553h626v-100h-626v-640h769v-103h-899zM247 1631l309 286h95l311 -282l-42 -48l-318 207l-315 -209z" />
<glyph unicode="&#xcb;" horiz-adv-x="1163" d="M175 0v1497h862v-101h-732v-553h626v-100h-626v-640h769v-103h-899zM360 1681q0 31 23.5 53.5t55.5 22.5q35 0 58.5 -21.5t23.5 -54.5q0 -34 -23.5 -56.5t-58.5 -22.5q-33 0 -56 22.5t-23 56.5zM719 1681q0 31 22 53.5t52 22.5q36 0 60.5 -21.5t24.5 -54.5 q0 -34 -24.5 -56.5t-60.5 -22.5q-31 0 -52.5 22.5t-21.5 56.5z" />
<glyph unicode="&#xcc;" horiz-adv-x="521" d="M-15 1878l96 90l247 -335l-60 -50zM197 0v1499h127v-1499h-127z" />
<glyph unicode="&#xcd;" horiz-adv-x="521" d="M197 0v1499h127v-1499h-127zM197 1631l248 335l99 -88l-285 -295z" />
<glyph unicode="&#xce;" horiz-adv-x="521" d="M-94 1619l309 288h94l312 -283l-42 -48l-318 208l-316 -211zM197 0v1499h127v-1499h-127z" />
<glyph unicode="&#xcf;" horiz-adv-x="521" d="M6 1683q0 31 24.5 54t55.5 23q34 0 58.5 -22t24.5 -55q0 -34 -24 -56.5t-59 -22.5q-34 0 -57 22.5t-23 56.5zM197 0v1499h127v-1499h-127zM366 1683q0 31 22.5 54t52.5 23q36 0 60.5 -22t24.5 -55q0 -34 -24.5 -56.5t-60.5 -22.5q-32 0 -53.5 22.5t-21.5 56.5z" />
<glyph unicode="&#xd0;" horiz-adv-x="1364" d="M35 738v97h140v664h461q598 0 598 -748q0 -751 -621 -751h-438v738h-140zM307 105h289q31 0 52.5 1t63.5 7t73.5 16.5t74 33t74 53t64.5 79t54 109.5t34.5 146.5t13.5 185.5q0 132 -20 237.5t-50.5 173t-76.5 117t-86.5 74t-94 39t-86.5 17t-75 2.5h-304v-561h396v-97 h-396v-633z" />
<glyph unicode="&#xd1;" horiz-adv-x="1441" d="M175 0v1497h132q76 -115 323 -498t326 -508l175 -272h9v1278h127l-2 -1497h-125q-25 37 -182.5 281.5t-291 452t-181.5 280.5l-176 283q-1 0 -4 -1t-4 -1v-1295h-126zM401 1679q24 66 70 106t101 40q52 0 165.5 -40.5t151.5 -40.5l115 88l46 -35q-25 -67 -68.5 -108 t-96.5 -41q-59 0 -171.5 42.5t-148.5 42.5l-116 -87z" />
<glyph unicode="&#xd2;" horiz-adv-x="1480" d="M132 736q0 127 19.5 239t65.5 213.5t116 174t177.5 115t243.5 42.5q137 0 243 -43t172 -114.5t107.5 -174t57.5 -210.5t16 -235q0 -163 -38 -300.5t-111 -239.5t-187.5 -159.5t-259.5 -58.5q-167 0 -287.5 51.5t-193.5 151t-107 234.5t-34 314zM265 732 q0 -322 116.5 -484t365.5 -162q116 0 207 50.5t147.5 140t84.5 206t28 253.5q0 684 -460 684q-489 0 -489 -688zM477 1878l98 90l247 -335l-61 -50z" />
<glyph unicode="&#xd3;" horiz-adv-x="1480" d="M132 736q0 127 19.5 239t65.5 213.5t116 174t177.5 115t243.5 42.5q137 0 243 -43t172 -114.5t107.5 -174t57.5 -210.5t16 -235q0 -163 -38 -300.5t-111 -239.5t-187.5 -159.5t-259.5 -58.5q-167 0 -287.5 51.5t-193.5 151t-107 234.5t-34 314zM265 732 q0 -322 116.5 -484t365.5 -162q116 0 207 50.5t147.5 140t84.5 206t28 253.5q0 684 -460 684q-489 0 -489 -688zM675 1631l247 335l99 -88l-285 -295z" />
<glyph unicode="&#xd4;" horiz-adv-x="1480" d="M132 736q0 127 19.5 239t65.5 213.5t116 174t177.5 115t243.5 42.5q137 0 243 -43t172 -114.5t107.5 -174t57.5 -210.5t16 -235q0 -163 -38 -300.5t-111 -239.5t-187.5 -159.5t-259.5 -58.5q-167 0 -287.5 51.5t-193.5 151t-107 234.5t-34 314zM265 732 q0 -322 116.5 -484t365.5 -162q116 0 207 50.5t147.5 140t84.5 206t28 253.5q0 684 -460 684q-489 0 -489 -688zM401 1631l309 286h95l310 -282l-41 -48l-318 207l-315 -209z" />
<glyph unicode="&#xd5;" horiz-adv-x="1480" d="M132 736q0 127 19.5 239t65.5 213.5t116 174t177.5 115t243.5 42.5q137 0 243 -43t172 -114.5t107.5 -174t57.5 -210.5t16 -235q0 -163 -38 -300.5t-111 -239.5t-187.5 -159.5t-259.5 -58.5q-167 0 -287.5 51.5t-193.5 151t-107 234.5t-34 314zM265 732 q0 -322 116.5 -484t365.5 -162q116 0 207 50.5t147.5 140t84.5 206t28 253.5q0 684 -460 684q-489 0 -489 -688zM429 1707q24 66 70 106.5t101 40.5q52 0 166 -40.5t152 -40.5l115 88l46 -36q-25 -66 -68.5 -107t-96.5 -41q-59 0 -172 42.5t-148 42.5l-117 -87z" />
<glyph unicode="&#xd6;" horiz-adv-x="1480" d="M132 736q0 127 19.5 239t65.5 213.5t116 174t177.5 115t243.5 42.5q137 0 243 -43t172 -114.5t107.5 -174t57.5 -210.5t16 -235q0 -163 -38 -300.5t-111 -239.5t-187.5 -159.5t-259.5 -58.5q-167 0 -287.5 51.5t-193.5 151t-107 234.5t-34 314zM265 732 q0 -322 116.5 -484t365.5 -162q116 0 207 50.5t147.5 140t84.5 206t28 253.5q0 684 -460 684q-489 0 -489 -688zM493 1705q0 31 24 54t55 23q35 0 59 -22t24 -55q0 -35 -23.5 -57t-59.5 -22q-33 0 -56 22t-23 57zM853 1705q0 31 22 54t52 23q36 0 60.5 -22t24.5 -55 q0 -35 -24.5 -57t-60.5 -22q-32 0 -53 22t-21 57z" />
<glyph unicode="&#xd8;" horiz-adv-x="1437" d="M107 -11l146 193q-144 184 -144 554q0 127 20 239t66 213.5t116 174t177.5 115t243.5 42.5q256 0 401 -148l111 151h92l-153 -206q145 -198 145 -574q0 -163 -38 -300.5t-111.5 -239.5t-188 -159.5t-258.5 -58.5q-284 0 -433 147l-106 -143h-86zM243 732q0 -291 92 -441 l723 982q-117 147 -326 147q-489 0 -489 -688zM374 228q114 -142 351 -142q117 0 207.5 50.5t146.5 140t84.5 206t28.5 253.5q0 303 -96 473z" />
<glyph unicode="&#xd9;" horiz-adv-x="1432" d="M167 533v966h124l2 -964q0 -221 108 -335t316 -114q206 0 314.5 113t108.5 336v964h129v-966q0 -253 -140.5 -400.5t-413.5 -147.5q-548 0 -548 548zM467 1878l96 90l248 -335l-62 -50z" />
<glyph unicode="&#xda;" horiz-adv-x="1432" d="M167 533v966h124l2 -964q0 -221 108 -335t316 -114q206 0 314.5 113t108.5 336v964h129v-966q0 -253 -140.5 -400.5t-413.5 -147.5q-548 0 -548 548zM623 1631l247 335l98 -88l-284 -295z" />
<glyph unicode="&#xdb;" horiz-adv-x="1432" d="M167 533v966h124l2 -964q0 -221 108 -335t316 -114q206 0 314.5 113t108.5 336v964h129v-966q0 -253 -140.5 -400.5t-413.5 -147.5q-548 0 -548 548zM341 1629l323 282h97l324 -278l-44 -46l-328 203l-330 -205z" />
<glyph unicode="&#xdc;" horiz-adv-x="1432" d="M167 533v966h124l2 -964q0 -221 108 -335t316 -114q206 0 314.5 113t108.5 336v964h129v-966q0 -253 -140.5 -400.5t-413.5 -147.5q-548 0 -548 548zM458 1685q0 31 24 54t55 23q34 0 59 -22t25 -55q0 -34 -24.5 -56.5t-59.5 -22.5q-33 0 -56 22.5t-23 56.5zM817 1685 q0 31 22.5 54t52.5 23q37 0 61 -22t24 -55q0 -34 -24 -56.5t-61 -22.5q-32 0 -53.5 22.5t-21.5 56.5z" />
<glyph unicode="&#xdd;" horiz-adv-x="1095" d="M27 1499h138l234 -445l138 -274h9l142 272l243 447h136l-458 -824v-675h-136v667zM464 1608l249 336l98 -88l-285 -296z" />
<glyph unicode="&#xde;" horiz-adv-x="1150" d="M175 0v1499h130v-294h333q200 0 324.5 -109t124.5 -316q0 -58 -11.5 -114.5t-42 -117t-78 -105.5t-124.5 -74.5t-174 -29.5h-352v-339h-130zM305 441h337q61 0 113 16t98.5 52.5t73 104t26.5 160.5q0 160 -88.5 244t-228.5 84h-331v-661z" />
<glyph unicode="&#xdf;" horiz-adv-x="1230" d="M61 853v90h160v251q0 45 9.5 90.5t35 98.5t66 93.5t111.5 67.5t162 27q78 0 141 -18t101.5 -45.5t64 -64t36 -70.5t10.5 -69q0 -59 -25 -112.5t-60.5 -92.5t-71 -74t-60 -73t-24.5 -76q0 -53 51.5 -114.5t143.5 -134.5q42 -34 60.5 -49.5t55 -49t53.5 -58.5t38 -61.5 t29.5 -77t8.5 -86.5q-2 -51 -22 -97.5t-58 -87.5t-105.5 -65t-156.5 -24q-76 0 -160 14.5t-140 35.5l31 98q158 -56 269 -56q102 0 160 51t58 127q0 20 -4 40t-7.5 35.5t-14.5 34t-17 30.5t-22 30.5t-21.5 26.5t-25.5 27t-25.5 23.5t-27.5 24t-25 22.5q-8 7 -41.5 37 t-45.5 41t-40.5 38.5t-41 43t-32 41.5t-28 45t-15.5 44t-7 47q0 45 24.5 90.5t60.5 83.5t71 75.5t59.5 79.5t24.5 83q0 19 -1.5 34.5t-14 46t-35 51.5t-71 37.5t-114.5 16.5q-124 0 -189.5 -78t-65.5 -196v-1196h-120v853h-160z" />
<glyph unicode="&#xe0;" horiz-adv-x="1108" d="M88 280q0 142 95 223t254 91l334 17v88q0 153 -51.5 215.5t-193.5 62.5q-153 0 -333 -63l-30 85q190 82 389 82q169 0 254.5 -82t85.5 -267v-636h145q0 -2 6 -71q-71 -36 -160 -36q-62 0 -88.5 30t-23.5 102q-2 2 -4 2q-60 -47 -117.5 -77t-108 -41.5t-79 -14.5t-65.5 -3 q-70 0 -124.5 18.5t-88.5 47.5t-56.5 68t-31 78.5t-8.5 80.5zM219 293q0 -107 54.5 -159.5t169.5 -52.5q145 0 328 151v291l-304 -17q-121 -4 -184.5 -60.5t-63.5 -152.5zM287 1488l98 90l248 -336l-61 -52z" />
<glyph unicode="&#xe1;" horiz-adv-x="1108" d="M88 280q0 142 95 223t254 91l334 17v88q0 153 -51.5 215.5t-193.5 62.5q-153 0 -333 -63l-30 85q190 82 389 82q169 0 254.5 -82t85.5 -267v-636h145q0 -2 6 -71q-71 -36 -160 -36q-62 0 -88.5 30t-23.5 102q-2 2 -4 2q-60 -47 -117.5 -77t-108 -41.5t-79 -14.5t-65.5 -3 q-70 0 -124.5 18.5t-88.5 47.5t-56.5 68t-31 78.5t-8.5 80.5zM219 293q0 -107 54.5 -159.5t169.5 -52.5q145 0 328 151v291l-304 -17q-121 -4 -184.5 -60.5t-63.5 -152.5zM441 1238l245 338l98 -88l-286 -298z" />
<glyph unicode="&#xe2;" horiz-adv-x="1108" d="M88 280q0 142 95 223t254 91l334 17v88q0 153 -51.5 215.5t-193.5 62.5q-153 0 -333 -63l-30 85q190 82 389 82q169 0 254.5 -82t85.5 -267v-636h145q0 -2 6 -71q-71 -36 -160 -36q-62 0 -88.5 30t-23.5 102q-2 2 -4 2q-60 -47 -117.5 -77t-108 -41.5t-79 -14.5t-65.5 -3 q-70 0 -124.5 18.5t-88.5 47.5t-56.5 68t-31 78.5t-8.5 80.5zM184 1227l307 293h94l312 -288l-40 -49l-318 215l-318 -217zM219 293q0 -107 54.5 -159.5t169.5 -52.5q145 0 328 151v291l-304 -17q-121 -4 -184.5 -60.5t-63.5 -152.5z" />
<glyph unicode="&#xe3;" horiz-adv-x="1108" d="M88 280q0 142 95 223t254 91l334 17v88q0 153 -51.5 215.5t-193.5 62.5q-153 0 -333 -63l-30 85q190 82 389 82q169 0 254.5 -82t85.5 -267v-636h145q0 -2 6 -71q-71 -36 -160 -36q-62 0 -88.5 30t-23.5 102q-2 2 -4 2q-60 -47 -117.5 -77t-108 -41.5t-79 -14.5t-65.5 -3 q-70 0 -124.5 18.5t-88.5 47.5t-56.5 68t-31 78.5t-8.5 80.5zM211 1295q23 67 68.5 107t101.5 40q51 0 165 -40.5t153 -40.5l114 88l46 -36q-24 -66 -67.5 -107t-97.5 -41q-58 0 -170.5 42.5t-149.5 42.5l-115 -87zM219 293q0 -107 54.5 -159.5t169.5 -52.5q145 0 328 151 v291l-304 -17q-121 -4 -184.5 -60.5t-63.5 -152.5z" />
<glyph unicode="&#xe4;" horiz-adv-x="1108" d="M88 280q0 142 95 223t254 91l334 17v88q0 153 -51.5 215.5t-193.5 62.5q-153 0 -333 -63l-30 85q190 82 389 82q169 0 254.5 -82t85.5 -267v-636h145q0 -2 6 -71q-71 -36 -160 -36q-62 0 -88.5 30t-23.5 102q-2 2 -4 2q-60 -47 -117.5 -77t-108 -41.5t-79 -14.5t-65.5 -3 q-70 0 -124.5 18.5t-88.5 47.5t-56.5 68t-31 78.5t-8.5 80.5zM219 293q0 -107 54.5 -159.5t169.5 -52.5q145 0 328 151v291l-304 -17q-121 -4 -184.5 -60.5t-63.5 -152.5zM287 1326q0 32 23.5 55.5t55.5 23.5q36 0 59.5 -22.5t23.5 -56.5q0 -33 -23.5 -55t-59.5 -22 q-33 0 -56 22t-23 55zM646 1326q0 33 23 56t54 23q36 0 60 -22.5t24 -56.5q0 -33 -24.5 -55t-59.5 -22q-33 0 -55 22t-22 55z" />
<glyph unicode="&#xe5;" horiz-adv-x="1108" d="M88 280q0 142 95 223t254 91l334 17v88q0 153 -51.5 215.5t-193.5 62.5q-153 0 -333 -63l-30 85q190 82 389 82q169 0 254.5 -82t85.5 -267v-636h145q0 -2 6 -71q-71 -36 -160 -36q-62 0 -88.5 30t-23.5 102q-2 2 -4 2q-60 -47 -117.5 -77t-108 -41.5t-79 -14.5t-65.5 -3 q-70 0 -124.5 18.5t-88.5 47.5t-56.5 68t-31 78.5t-8.5 80.5zM219 293q0 -107 54.5 -159.5t169.5 -52.5q145 0 328 151v291l-304 -17q-121 -4 -184.5 -60.5t-63.5 -152.5zM347 1409q0 85 61.5 146.5t152.5 61.5q90 0 149 -60.5t59 -147.5q0 -88 -60 -148t-148 -60 q-93 0 -153.5 61t-60.5 147zM425 1403q0 -59 36.5 -95.5t99.5 -36.5q59 0 95 37t36 95q0 60 -36 100t-95 40q-62 0 -99 -39t-37 -101z" />
<glyph unicode="&#xe6;" horiz-adv-x="1702" d="M79 282q0 145 99.5 229.5t266.5 84.5h326v105q0 155 -57 218t-199 63q-147 0 -333 -66l-31 86q190 81 390 81q260 0 316 -211q111 213 362 213q83 0 150 -23.5t108 -56.5t71 -86t44 -94.5t21.5 -101t8 -84t0.5 -64.5v-65h-725q-5 -424 326 -424q92 0 167.5 18t169.5 61 l33 -84q-178 -96 -372 -96q-257 0 -366 166q-77 -59 -151.5 -96t-140 -50.5t-99.5 -16.5t-81 -3q-69 0 -124.5 19.5t-88 49t-54 70.5t-29.5 79.5t-8 78.5zM209 299q0 -220 225 -220q82 0 192 37.5t194 107.5q-49 111 -49 286h-307q-124 0 -189.5 -57t-65.5 -154zM899 596 h604q0 186 -65 289.5t-219 103.5q-287 0 -320 -393z" />
<glyph unicode="&#xe7;" horiz-adv-x="974" d="M107 517q0 74 10.5 145t42.5 150.5t81 138t135 97.5t199 39q173 0 299 -54l-33 -92q-123 43 -258 43q-171 0 -260 -123t-89 -335q0 -440 331 -440q82 0 154 17t164 54l33 -84q-148 -82 -337 -88q-50 -59 -104 -134q116 -2 184.5 -41.5t68.5 -120.5q0 -95 -95.5 -156.5 t-281.5 -61.5q0 10 -1 31t-1 31q138 11 206 49t68 98q0 46 -46 70t-119 26q-25 3 -65 3l-25 35l136 173q-397 33 -397 530z" />
<glyph unicode="&#xe8;" horiz-adv-x="1064" d="M107 529q0 42 3.5 86t16 101t32.5 106.5t54.5 98.5t80 84.5t112.5 57.5t148 22q68 0 124 -14.5t95.5 -36t71.5 -57t51.5 -66.5t33.5 -77t20.5 -75.5t10 -74.5t3.5 -61v-48v-65h-730q-4 -427 329 -427q92 0 168.5 19.5t171.5 62.5l32 -84q-182 -96 -376 -96 q-106 0 -186.5 29t-130 77t-80.5 119t-43 147.5t-12 171.5zM236 598h610q0 90 -14.5 159.5t-47 123.5t-89.5 83t-139 29q-286 0 -320 -395zM291 1488l100 90l247 -336l-61 -52z" />
<glyph unicode="&#xe9;" horiz-adv-x="1064" d="M107 529q0 42 3.5 86t16 101t32.5 106.5t54.5 98.5t80 84.5t112.5 57.5t148 22q68 0 124 -14.5t95.5 -36t71.5 -57t51.5 -66.5t33.5 -77t20.5 -75.5t10 -74.5t3.5 -61v-48v-65h-730q-4 -427 329 -427q92 0 168.5 19.5t171.5 62.5l32 -84q-182 -96 -376 -96 q-106 0 -186.5 29t-130 77t-80.5 119t-43 147.5t-12 171.5zM236 598h610q0 90 -14.5 159.5t-47 123.5t-89.5 83t-139 29q-286 0 -320 -395zM462 1238l246 338l99 -88l-288 -298z" />
<glyph unicode="&#xea;" horiz-adv-x="1064" d="M107 529q0 42 3.5 86t16 101t32.5 106.5t54.5 98.5t80 84.5t112.5 57.5t148 22q68 0 124 -14.5t95.5 -36t71.5 -57t51.5 -66.5t33.5 -77t20.5 -75.5t10 -74.5t3.5 -61v-48v-65h-730q-4 -427 329 -427q92 0 168.5 19.5t171.5 62.5l32 -84q-182 -96 -376 -96 q-106 0 -186.5 29t-130 77t-80.5 119t-43 147.5t-12 171.5zM211 1212l306 293h94l311 -288l-39 -49l-318 214l-318 -216zM236 598h610q0 90 -14.5 159.5t-47 123.5t-89.5 83t-139 29q-286 0 -320 -395z" />
<glyph unicode="&#xeb;" horiz-adv-x="1064" d="M107 529q0 42 3.5 86t16 101t32.5 106.5t54.5 98.5t80 84.5t112.5 57.5t148 22q68 0 124 -14.5t95.5 -36t71.5 -57t51.5 -66.5t33.5 -77t20.5 -75.5t10 -74.5t3.5 -61v-48v-65h-730q-4 -427 329 -427q92 0 168.5 19.5t171.5 62.5l32 -84q-182 -96 -376 -96 q-106 0 -186.5 29t-130 77t-80.5 119t-43 147.5t-12 171.5zM236 598h610q0 90 -14.5 159.5t-47 123.5t-89.5 83t-139 29q-286 0 -320 -395zM309 1326q0 33 23 56t55 23q37 0 60.5 -22.5t23.5 -56.5q0 -33 -23.5 -55t-60.5 -22q-33 0 -55.5 22t-22.5 55zM669 1326 q0 33 22.5 56t53.5 23q35 0 59 -22.5t24 -56.5q0 -33 -24.5 -55t-58.5 -22q-33 0 -54.5 22t-21.5 55z" />
<glyph unicode="&#xec;" horiz-adv-x="492" d="M-19 1488l98 90l247 -336l-61 -52zM184 0v1067h123v-1067h-123z" />
<glyph unicode="&#xed;" horiz-adv-x="492" d="M184 0v1067h123v-1067h-123zM188 1238l246 338l99 -88l-288 -298z" />
<glyph unicode="&#xee;" horiz-adv-x="492" d="M-111 1227l306 293h94l311 -288l-39 -49l-318 215l-318 -217zM184 0v1067h123v-1067h-123z" />
<glyph unicode="&#xef;" horiz-adv-x="492" d="M-15 1326q0 33 23.5 56t54.5 23q37 0 60.5 -22.5t23.5 -56.5q0 -33 -23.5 -55t-60.5 -22q-33 0 -55.5 22t-22.5 55zM184 0v1067h123v-1067h-123zM345 1326q0 33 22 56t54 23q35 0 59 -22.5t24 -56.5q0 -33 -24.5 -55t-58.5 -22t-55 22t-21 55z" />
<glyph unicode="&#xf0;" horiz-adv-x="1064" d="M90 469q0 71 15.5 142.5t50 139.5t85 119t125.5 82.5t165 31.5q160 0 295 -95q-59 200 -182 343l-201 -136l-42 56l195 132q-114 118 -265 204l41 74q180 -89 307 -219l184 123l42 -57l-175 -119q259 -295 252 -718q0 -51 -5 -100t-18.5 -109t-34.5 -112t-57 -102.5 t-82.5 -85.5t-113 -56.5t-148.5 -21.5q-99 0 -177 30.5t-125.5 79t-78 114.5t-41.5 129t-11 131zM213 473q0 -57 7.5 -107.5t29.5 -104.5t56.5 -92t93.5 -63t137 -25q69 0 123 23.5t88 65.5t57.5 90t35.5 106.5t16 105.5t4 95q0 89 -20 200q-132 122 -302 122 q-87 0 -153.5 -39t-102.5 -102.5t-53 -132.5t-17 -142z" />
<glyph unicode="&#xf1;" horiz-adv-x="1073" d="M129 0v1067h120q0 -8 2 -49t2 -50q4 -2 6 -4q94 58 200.5 90.5t187 32.5t137.5 -19.5t87.5 -48.5t47.5 -75t21.5 -84t4.5 -91v-769h-123v717q0 66 -8 110.5t-29.5 82t-63.5 55t-106 17.5q-77 0 -176 -34t-186 -82v-866h-124zM188 1324q24 66 70 106t102 40 q51 0 165 -40.5t152 -40.5l114 88l46 -35q-25 -66 -67.5 -107.5t-96.5 -41.5q-59 0 -171.5 42.5t-148.5 42.5l-117 -88z" />
<glyph unicode="&#xf2;" horiz-adv-x="1106" d="M107 523q0 87 15 165.5t49 152t86 127t130 85.5t176 32q99 0 177.5 -32t126.5 -84.5t79 -126.5t43.5 -150.5t12.5 -162.5q0 -85 -12.5 -159.5t-44.5 -146.5t-82.5 -123.5t-130.5 -83t-184 -31.5q-100 0 -177 29.5t-126 78.5t-80.5 119t-44.5 146t-13 165zM234 521 q0 -94 13 -165t46.5 -136.5t101.5 -101t168 -35.5q311 0 311 440q0 68 -7 127t-27 123.5t-53.5 109.5t-90.5 74.5t-133 29.5t-135 -28t-95 -72.5t-59 -106.5t-31.5 -124.5t-8.5 -134.5zM301 1488l98 90l247 -336l-61 -52z" />
<glyph unicode="&#xf3;" horiz-adv-x="1106" d="M107 523q0 87 15 165.5t49 152t86 127t130 85.5t176 32q99 0 177.5 -32t126.5 -84.5t79 -126.5t43.5 -150.5t12.5 -162.5q0 -85 -12.5 -159.5t-44.5 -146.5t-82.5 -123.5t-130.5 -83t-184 -31.5q-100 0 -177 29.5t-126 78.5t-80.5 119t-44.5 146t-13 165zM234 521 q0 -94 13 -165t46.5 -136.5t101.5 -101t168 -35.5q311 0 311 440q0 68 -7 127t-27 123.5t-53.5 109.5t-90.5 74.5t-133 29.5t-135 -28t-95 -72.5t-59 -106.5t-31.5 -124.5t-8.5 -134.5zM489 1238l245 338l98 -88l-286 -298z" />
<glyph unicode="&#xf4;" horiz-adv-x="1106" d="M107 523q0 87 15 165.5t49 152t86 127t130 85.5t176 32q99 0 177.5 -32t126.5 -84.5t79 -126.5t43.5 -150.5t12.5 -162.5q0 -85 -12.5 -159.5t-44.5 -146.5t-82.5 -123.5t-130.5 -83t-184 -31.5q-100 0 -177 29.5t-126 78.5t-80.5 119t-44.5 146t-13 165zM213 1227 l306 293h94l311 -288l-39 -49l-318 215l-318 -217zM234 521q0 -94 13 -165t46.5 -136.5t101.5 -101t168 -35.5q311 0 311 440q0 68 -7 127t-27 123.5t-53.5 109.5t-90.5 74.5t-133 29.5t-135 -28t-95 -72.5t-59 -106.5t-31.5 -124.5t-8.5 -134.5z" />
<glyph unicode="&#xf5;" horiz-adv-x="1106" d="M107 523q0 87 15 165.5t49 152t86 127t130 85.5t176 32q99 0 177.5 -32t126.5 -84.5t79 -126.5t43.5 -150.5t12.5 -162.5q0 -85 -12.5 -159.5t-44.5 -146.5t-82.5 -123.5t-130.5 -83t-184 -31.5q-100 0 -177 29.5t-126 78.5t-80.5 119t-44.5 146t-13 165zM234 521 q0 -94 13 -165t46.5 -136.5t101.5 -101t168 -35.5q311 0 311 440q0 68 -7 127t-27 123.5t-53.5 109.5t-90.5 74.5t-133 29.5t-135 -28t-95 -72.5t-59 -106.5t-31.5 -124.5t-8.5 -134.5zM241 1295q23 66 69 106.5t102 40.5q51 0 165 -40.5t153 -40.5l113 88l46 -36 q-24 -66 -67 -107t-97 -41q-57 0 -170 42.5t-149 42.5l-117 -87z" />
<glyph unicode="&#xf6;" horiz-adv-x="1106" d="M107 523q0 87 15 165.5t49 152t86 127t130 85.5t176 32q99 0 177.5 -32t126.5 -84.5t79 -126.5t43.5 -150.5t12.5 -162.5q0 -85 -12.5 -159.5t-44.5 -146.5t-82.5 -123.5t-130.5 -83t-184 -31.5q-100 0 -177 29.5t-126 78.5t-80.5 119t-44.5 146t-13 165zM234 521 q0 -94 13 -165t46.5 -136.5t101.5 -101t168 -35.5q311 0 311 440q0 68 -7 127t-27 123.5t-53.5 109.5t-90.5 74.5t-133 29.5t-135 -28t-95 -72.5t-59 -106.5t-31.5 -124.5t-8.5 -134.5zM309 1326q0 33 23 56t55 23q37 0 60.5 -22.5t23.5 -56.5q0 -33 -23.5 -55t-60.5 -22 q-33 0 -55.5 22t-22.5 55zM669 1326q0 33 22.5 56t53.5 23q35 0 59 -22.5t24 -56.5q0 -33 -24.5 -55t-58.5 -22q-33 0 -54.5 22t-21.5 55z" />
<glyph unicode="&#xf7;" d="M173 605v94h822v-94h-822zM495 328q0 37 27.5 62.5t64.5 25.5t63.5 -25.5t26.5 -62.5t-26.5 -64.5t-63.5 -27.5t-64.5 27.5t-27.5 64.5zM495 973q0 37 27.5 63.5t64.5 26.5t63.5 -26.5t26.5 -64t-26.5 -64.5t-63.5 -27t-64.5 27.5t-27.5 64.5z" />
<glyph unicode="&#xf8;" horiz-adv-x="1066" d="M86 -13q8 11 50.5 68.5t56.5 73.5q-105 133 -105 394q0 87 15 165.5t49 152t86 127t130 85.5t176 32q180 0 288 -108l82 106q7 0 35.5 1t37.5 1q-100 -135 -115 -152q107 -144 107 -404q0 -85 -12.5 -159.5t-44.5 -146.5t-81 -123.5t-129.5 -83t-182.5 -31.5 q-193 0 -297 101l-72 -97q-10 0 -38.5 -1t-35.5 -1zM215 526q0 -195 57 -298q45 57 247 333t242 326q-82 100 -217 100q-76 0 -134.5 -27.5t-94.5 -71.5t-59 -105.5t-31.5 -123.5t-9.5 -133zM305 173q79 -90 239 -90q309 0 309 440q0 196 -62 312q-35 -46 -237.5 -324 t-248.5 -338z" />
<glyph unicode="&#xf9;" horiz-adv-x="1053" d="M129 307v760h124v-722q0 -56 3 -92t14.5 -72.5t33 -56t59.5 -32.5t93 -13q73 0 169.5 40t179.5 113l-3 835q17 0 61 1t61 1v-1069h-119v129l-8 5q-103 -90 -200 -122.5t-170 -32.5q-61 0 -108 11t-78 27.5t-53 45.5t-33.5 53.5t-17 63t-7 63.5t-1.5 64zM280 1488l99 90 l248 -336l-62 -52z" />
<glyph unicode="&#xfa;" horiz-adv-x="1053" d="M129 307v760h124v-722q0 -56 3 -92t14.5 -72.5t33 -56t59.5 -32.5t93 -13q73 0 169.5 40t179.5 113l-3 835q17 0 61 1t61 1v-1069h-119v129l-8 5q-103 -90 -200 -122.5t-170 -32.5q-61 0 -108 11t-78 27.5t-53 45.5t-33.5 53.5t-17 63t-7 63.5t-1.5 64zM445 1238l245 338 l99 -88l-287 -298z" />
<glyph unicode="&#xfb;" horiz-adv-x="1053" d="M129 307v760h124v-722q0 -56 3 -92t14.5 -72.5t33 -56t59.5 -32.5t93 -13q73 0 169.5 40t179.5 113l-3 835q17 0 61 1t61 1v-1069h-119v129l-8 5q-103 -90 -200 -122.5t-170 -32.5q-61 0 -108 11t-78 27.5t-53 45.5t-33.5 53.5t-17 63t-7 63.5t-1.5 64zM169 1227l306 293 h94l312 -288l-40 -49l-318 215l-316 -217z" />
<glyph unicode="&#xfc;" horiz-adv-x="1053" d="M129 307v760h124v-722q0 -56 3 -92t14.5 -72.5t33 -56t59.5 -32.5t93 -13q73 0 169.5 40t179.5 113l-3 835q17 0 61 1t61 1v-1069h-119v129l-8 5q-103 -90 -200 -122.5t-170 -32.5q-61 0 -108 11t-78 27.5t-53 45.5t-33.5 53.5t-17 63t-7 63.5t-1.5 64zM270 1326 q0 32 23.5 55.5t55.5 23.5q36 0 59 -22.5t23 -56.5q0 -33 -23 -55t-59 -22q-33 0 -56 22t-23 55zM629 1326q0 33 22.5 56t53.5 23q35 0 59.5 -22.5t24.5 -56.5q0 -33 -25 -55t-59 -22q-33 0 -54.5 22t-21.5 55z" />
<glyph unicode="&#xfd;" horiz-adv-x="950" d="M-2 -443l19 92q118 -23 176 -23q69 0 109 29t72 128l73 221h-64q-35 115 -181 558t-167 505h120q17 -56 109 -342.5t110 -350.5l93 -293h8q3 11 16 52t35 113t41 133q35 108 112 352.5t107 335.5h126q-24 -71 -119.5 -366t-182.5 -560t-121 -365q-39 -124 -101.5 -187.5 t-168.5 -63.5q-4 0 -21.5 1t-28.5 1.5t-33 2.5t-40.5 5.5t-44.5 9t-53 12.5zM383 1238l246 338l99 -88l-287 -298z" />
<glyph unicode="&#xfe;" horiz-adv-x="1088" d="M127 -458v1981h120v-572h2q71 58 162.5 93t178.5 35q107 0 184 -41t120.5 -114t64 -164.5t20.5 -205.5q0 -126 -23 -227t-71.5 -179t-131 -120.5t-194.5 -42.5q-179 0 -310 80q0 -86 -1 -261t-1 -262h-120zM249 169q51 -35 135 -61.5t162 -26.5q66 0 119.5 25t97 78.5 t67 148t23.5 223.5q0 228 -76 325.5t-218 97.5q-73 0 -166.5 -39.5t-143.5 -88.5v-682z" />
<glyph unicode="&#xff;" horiz-adv-x="950" d="M-2 -443l19 92q118 -23 176 -23q69 0 109 29t72 128l73 221h-64q-35 115 -181 558t-167 505h120q17 -56 109 -342.5t110 -350.5l93 -293h8q3 11 16 52t35 113t41 133q35 108 112 352.5t107 335.5h126q-24 -71 -119.5 -366t-182.5 -560t-121 -365q-39 -124 -101.5 -187.5 t-168.5 -63.5q-4 0 -21.5 1t-28.5 1.5t-33 2.5t-40.5 5.5t-44.5 9t-53 12.5zM230 1326q0 32 23.5 55.5t55.5 23.5q37 0 60.5 -22.5t23.5 -56.5q0 -33 -23.5 -55t-60.5 -22q-33 0 -56 22t-23 55zM590 1326q0 33 23 56t54 23q35 0 58.5 -22.5t23.5 -56.5q0 -33 -24 -55 t-58 -22t-55.5 22t-21.5 55z" />
<glyph unicode="&#x131;" horiz-adv-x="492" d="M184 0v1067h123v-1067h-123z" />
<glyph unicode="&#x152;" horiz-adv-x="1710" d="M109 736q0 127 20 239t66 213.5t116 174t177.5 115t243.5 42.5q120 0 201 -25h673v-99h-684v-557h581v-99h-581v-642h722v-98h-770q-62 -12 -142 -15q-167 0 -288 51.5t-193.5 151t-107 234.5t-34.5 314zM243 732q0 -322 116.5 -485.5t365.5 -163.5q25 0 68 5v1325 q-9 0 -29.5 2.5t-33.5 2.5q-114 0 -200.5 -39t-140 -103.5t-87 -156t-46.5 -185t-13 -202.5z" />
<glyph unicode="&#x153;" horiz-adv-x="1796" d="M92 523q0 87 15 165.5t49 152t85.5 127t129.5 85.5t175 32q280 0 376 -265q105 265 389 265q405 0 405 -508v-62h-727q-5 -429 326 -429q92 0 167.5 18t169.5 61l33 -84q-184 -94 -374 -94q-298 0 -393 245q-104 -247 -385 -247q-100 0 -177 29.5t-126 78.5t-80.5 119 t-44.5 146t-13 165zM219 521q0 -74 7 -132.5t28.5 -118t57 -98.5t94.5 -64t140 -25q311 0 311 440q0 464 -311 464q-76 0 -134.5 -28t-94 -72.5t-58.5 -106.5t-31.5 -124.5t-8.5 -134.5zM991 596h607q0 91 -14.5 160t-47.5 122.5t-90 82t-137 28.5q-289 0 -318 -393z" />
<glyph unicode="&#x178;" horiz-adv-x="1095" d="M27 1499h138l234 -445l138 -274h9l142 272l243 447h136l-458 -824v-675h-136v667zM282 1665q0 31 24.5 54t55.5 23q34 0 58.5 -22t24.5 -55q0 -34 -24 -56t-59 -22q-34 0 -57 22t-23 56zM642 1665q0 31 22.5 54t52.5 23q36 0 60.5 -22t24.5 -55q0 -34 -24.5 -56 t-60.5 -22q-32 0 -53.5 22t-21.5 56z" />
<glyph unicode="&#x192;" d="M71 -234l32 83q74 -20 123 -20q106 0 155.5 71.5t82.5 239.5q13 65 28 180t31 256.5t23 192.5h-205v90h215q7 60 29 215q13 90 35 158.5t60 125.5t98.5 86.5t141.5 29.5q92 0 178 -25l-27 -88q-72 17 -140 17q-105 0 -159 -76.5t-73 -225.5q-14 -106 -26 -217h228v-90 h-240q-7 -52 -40 -319t-40 -312q-33 -203 -112.5 -305.5t-225.5 -102.5q-101 0 -172 36z" />
<glyph unicode="&#x2c6;" horiz-adv-x="1066" d="M165 1227l306 293h94l311 -288l-39 -49l-318 215l-318 -217z" />
<glyph unicode="&#x2c7;" horiz-adv-x="1066" d="M173 1503l40 46l318 -219l315 217l39 -48l-308 -292h-94z" />
<glyph unicode="&#x2d8;" horiz-adv-x="1117" d="M211 1447l78 54q58 -81 126 -128t133 -47q138 0 303 162l46 -39q-163 -228 -356 -228q-177 0 -330 226z" />
<glyph unicode="&#x2d9;" horiz-adv-x="1066" d="M445 1345q0 39 27.5 67t65 28t65.5 -29t28 -66t-28 -65.5t-65.5 -28.5t-65 28.5t-27.5 65.5z" />
<glyph unicode="&#x2da;" horiz-adv-x="1066" d="M322 1409q0 85 62 146.5t153 61.5q90 0 149 -60.5t59 -147.5q0 -88 -59.5 -148t-148.5 -60q-94 0 -154.5 61t-60.5 147zM401 1403q0 -59 36.5 -95.5t99.5 -36.5q59 0 95.5 37t36.5 95q0 60 -36.5 100t-95.5 40q-62 0 -99 -39t-37 -101z" />
<glyph unicode="&#x2db;" horiz-adv-x="1121" d="M590 -293q0 186 232 352l29 -28q-74 -70 -112 -147.5t-38 -136.5q0 -111 134 -111q63 0 154 25l13 -54q-98 -52 -216 -52q-96 0 -146 41t-50 111z" />
<glyph unicode="&#x2dc;" horiz-adv-x="1066" d="M209 1295q23 67 68.5 107t101.5 40q51 0 165 -40.5t153 -40.5l114 88l46 -36q-25 -66 -68 -107t-97 -41q-59 0 -171 42.5t-149 42.5l-115 -87z" />
<glyph unicode="&#x2dd;" horiz-adv-x="1066" d="M293 1234l240 344l98 -83l-280 -305zM537 1234l239 344l98 -83l-280 -305z" />
<glyph unicode="&#x3a9;" horiz-adv-x="1483" d="M88 0v96h276l2 2q-60 36 -104 93.5t-68.5 121t-39 146t-18.5 153.5t-4 157q0 120 19.5 227t66 204.5t115.5 167.5t174.5 111t237.5 41q137 0 243.5 -41.5t173.5 -111t111 -167.5t61.5 -201.5t17.5 -222.5q0 -145 -23 -268.5t-82.5 -234.5t-152.5 -175q2 0 4 -2h293v-96 h-508v103q94 28 160.5 90.5t102.5 153.5t52 194t16 230q0 82 -8 153.5t-26.5 147.5t-54 136t-85 108.5t-125.5 75t-170 26.5q-105 0 -188 -35t-137 -94t-89.5 -141.5t-50.5 -174t-15 -197.5q0 -137 13.5 -240t47.5 -195t97.5 -151t157.5 -85v-105h-493z" />
<glyph unicode="&#x3c0;" horiz-adv-x="1075" d="M129 0v1065h816v-1065h-123v968h-569v-968h-124z" />
<glyph unicode="&#x401;" horiz-adv-x="1163" d="M175 0v1497h862v-101h-732v-553h626v-100h-626v-640h769v-103h-899zM345 1665q0 31 23.5 54t54.5 23q34 0 58.5 -22t24.5 -55q0 -34 -24 -56t-59 -22q-34 0 -56 22t-22 56zM703 1665q0 31 22.5 54t52.5 23q36 0 60.5 -22t24.5 -55q0 -34 -24.5 -56t-60.5 -22 q-32 0 -53.5 22t-21.5 56z" />
<glyph unicode="&#x402;" horiz-adv-x="1599" d="M44 1394v103h1196v-103h-589v-559q97 40 210 64.5t204 24.5q110 0 196.5 -35.5t138.5 -98t78.5 -141.5t26.5 -169q0 -118 -34 -227.5t-93.5 -194.5t-127 -149.5t-144.5 -115.5l-52 73q144 104 233 256t89 334q0 175 -89.5 270.5t-253.5 95.5q-85 0 -189.5 -23.5 t-192.5 -62.5v-736h-128v1394h-479z" />
<glyph unicode="&#x403;" horiz-adv-x="1071" d="M175 0v1497h858v-106h-728v-1391h-130zM493 1633l247 335l99 -88l-285 -295z" />
<glyph unicode="&#x404;" horiz-adv-x="1246" d="M132 736q0 74 8 145.5t27.5 151t50 148.5t80.5 132t112.5 108.5t150.5 72t193 26.5q212 0 375 -58l-31 -99q-152 50 -331 50q-233 0 -358 -153t-141 -428q114 2 327.5 7.5t265.5 6.5v-114q-67 1 -188.5 2.5t-221 2.5t-188.5 1v-15q0 -105 12.5 -191.5t46.5 -171.5 t89.5 -143t145.5 -93.5t210 -35.5q71 0 177 12.5t187 37.5q1 -3 11 -38.5t15 -53.5q-72 -27 -190 -44t-220 -17q-135 0 -239.5 35t-175 98t-116 157t-65 207.5t-19.5 253.5z" />
<glyph unicode="&#x405;" horiz-adv-x="1198" d="M101 94l43 96q209 -100 421 -100q199 0 300 73t101 240q0 58 -18 103.5t-46.5 76t-77 55.5t-95 40.5t-116.5 34.5q-67 18 -108.5 29.5t-98.5 32t-92 40.5t-74 50t-60.5 64t-36 80t-14.5 102q0 193 132 302.5t346 109.5q232 0 392 -79l-41 -99q-183 71 -360 71 q-151 0 -243 -78t-92 -225q0 -39 11.5 -71t28 -55.5t47.5 -45.5t56.5 -35.5t70 -28.5t73.5 -23.5t79 -21.5q176 -47 244 -79q176 -81 214 -239q13 -51 13 -111q0 -109 -40 -190.5t-113 -130.5t-167.5 -73t-210.5 -24q-281 0 -468 109z" />
<glyph unicode="&#x406;" horiz-adv-x="521" d="M197 0v1499h127v-1499h-127z" />
<glyph unicode="&#x407;" horiz-adv-x="521" d="M4 1665q0 31 24 54t55 23q35 0 59.5 -22t24.5 -55q0 -34 -24 -56t-60 -22q-33 0 -56 22t-23 56zM197 0v1499h127v-1499h-127zM364 1665q0 31 22.5 54t52.5 23q36 0 60 -22t24 -55q0 -34 -24 -56t-60 -22q-32 0 -53.5 22t-21.5 56z" />
<glyph unicode="&#x408;" horiz-adv-x="619" d="M-94 -299q105 60 170.5 112.5t112 117t66 141.5t19.5 181v1246h127v-1240q0 -132 -29.5 -234.5t-89 -179.5t-141 -133.5t-196.5 -104.5z" />
<glyph unicode="&#x409;" horiz-adv-x="2055" d="M21 46q70 25 121.5 62.5t87.5 73t62 112t40.5 128.5t26 177t16.5 201.5t13 255.5q4 57 5 86l17 357h696l3 -636h401q95 0 172.5 -24.5t129.5 -65.5t88 -96.5t52 -116t16 -126.5q0 -209 -122 -321.5t-314 -112.5h-555v1396h-460l-11 -244q-20 -439 -34 -568 q-31 -294 -120 -432q-96 -151 -304 -200zM1109 98h411q140 0 228 86.5t88 246.5q0 89 -29.5 156t-79 104.5t-107.5 55.5t-121 18h-390v-667z" />
<glyph unicode="&#x40a;" horiz-adv-x="2030" d="M175 0v1497h132v-636h646v638h132v-636h401q119 0 210.5 -36.5t144 -99.5t78 -136.5t25.5 -156.5q0 -208 -122 -321t-312 -113h-557v761h-646v-761h-132zM1085 98h412q141 0 228.5 85.5t87.5 245.5q0 73 -19.5 130t-52 94.5t-76.5 62t-90.5 35t-97.5 10.5h-392v-663z" />
<glyph unicode="&#x40b;" horiz-adv-x="1623" d="M44 1394v103h1175v-103h-588v-557q238 101 436 101q200 0 302.5 -92.5t102.5 -240.5v-605h-129v567q0 135 -75 200t-231 65q-88 0 -206 -29.5t-202 -70.5v-732h-127v1394h-458z" />
<glyph unicode="&#x40c;" horiz-adv-x="1230" d="M175 0v1499h130v-646h293q214 0 285 236l123 406h121l-115 -404q-73 -241 -221 -289q105 -24 162.5 -95t89.5 -188l145 -519h-128l-142 495q-43 140 -119 194t-181 54h-313v-743h-130zM515 1637l248 335l98 -88l-284 -295z" />
<glyph unicode="&#x40e;" horiz-adv-x="1171" d="M50 1497h130q10 -27 114.5 -289t136.5 -338q9 -23 74 -195.5t87 -227.5h8q136 366 138 373q106 271 255 677h132l-500 -1300q-83 -212 -255 -212q-114 0 -226 30l29 106q136 -27 168 -27q65 0 104 32t70 115l44 123h-49q-7 19 -204 505.5t-256 627.5zM270 1794l81 56 q57 -81 124 -129.5t134 -48.5q134 0 303 164l46 -37q-164 -228 -358 -228q-178 0 -330 223z" />
<glyph unicode="&#x40f;" horiz-adv-x="1371" d="M175 0v1495h130v-1397h758v1397h131v-1495h-449v-364h-112v364h-458z" />
<glyph unicode="&#x410;" horiz-adv-x="1206" d="M31 0l488 1497h167q92 -279 258 -791.5t229 -705.5h-134l-132 410h-616q-20 -64 -61.5 -201t-64.5 -209h-134zM326 510h550q-103 341 -199 634q-5 20 -72 241h-7l-75 -241z" />
<glyph unicode="&#x411;" horiz-adv-x="1224" d="M147 0v1497h840v-99h-709v-535h404q120 0 211 -35t142.5 -95.5t76.5 -132.5t25 -155q0 -211 -121 -328t-313 -117h-556zM278 98h416q138 0 226 89.5t88 251.5q0 89 -28.5 154.5t-77.5 102t-106.5 53t-124.5 16.5h-393v-667z" />
<glyph unicode="&#x412;" horiz-adv-x="1279" d="M175 0v1495h498q210 0 319.5 -102t109.5 -273q0 -34 -8 -73t-28 -86.5t-61.5 -93.5t-99.5 -78v-15q56 -20 99.5 -53.5t70 -71.5t43.5 -83.5t23.5 -85.5t6.5 -81q0 -178 -117.5 -288.5t-287.5 -110.5h-568zM303 101h396q83 0 146 25t100 69.5t55.5 99t18.5 119.5 q0 127 -88.5 219t-233.5 92h-394v-624zM303 828h356q145 0 229.5 75.5t84.5 202.5q0 131 -80.5 209.5t-244.5 78.5h-345v-566z" />
<glyph unicode="&#x413;" horiz-adv-x="1071" d="M175 0v1497h858v-106h-728v-1391h-130z" />
<glyph unicode="&#x414;" horiz-adv-x="1449" d="M27 98h113q65 52 113 136.5t75.5 178.5t47 231t29.5 257t22 292q1 26 2 39l18 265h782v-1399h134v-451h-105v353h-1126v-353h-105v451zM289 98h811v1300h-541l-13 -184q-10 -124 -14 -183t-13.5 -163t-16.5 -156t-18.5 -134.5t-24 -127t-30 -105.5t-37.5 -99t-46 -78 t-57 -70z" />
<glyph unicode="&#x415;" horiz-adv-x="1163" d="M175 0v1497h862v-101h-732v-553h626v-100h-626v-640h769v-103h-899z" />
<glyph unicode="&#x416;" horiz-adv-x="1945" d="M65 0l146 519q32 117 90.5 188t162.5 95q-148 48 -221 289l-114 404h118l123 -406q69 -236 283 -236h254v646h130v-646h253q214 0 283 236l123 406h119l-117 -404q-68 -240 -219 -289q105 -24 162.5 -95t89.5 -188l145 -519h-123l-145 495q-43 141 -119 195.5t-178 54.5 h-274v-745h-130v745h-271q-105 0 -181.5 -54.5t-119.5 -195.5l-142 -495h-128z" />
<glyph unicode="&#x417;" horiz-adv-x="1198" d="M59 71l33 92q213 -69 393 -69q225 0 349 93.5t124 266.5q0 149 -112 234.5t-302 85.5h-180v98h175q175 0 275 82t100 212q0 124 -97.5 188t-268.5 64q-205 0 -397 -90l-38 90q90 48 209.5 75t240.5 27q226 0 356.5 -89.5t130.5 -259.5q0 -110 -71.5 -202.5t-183.5 -129.5 l-2 -11q135 -32 215.5 -129.5t80.5 -244.5t-76.5 -254t-202 -159t-284.5 -52q-275 0 -467 82z" />
<glyph unicode="&#x418;" horiz-adv-x="1403" d="M175 0v1495h128v-1282h6l793 1286l127 -4v-1495h-127v1290h-6l-791 -1290h-130z" />
<glyph unicode="&#x419;" horiz-adv-x="1403" d="M175 0v1495h128v-1282h6l793 1286l127 -4v-1495h-127v1290h-6l-791 -1290h-130zM347 1847l78 55q58 -81 125.5 -128t133.5 -47q139 0 303 162l46 -39q-163 -228 -356 -228q-177 0 -330 225z" />
<glyph unicode="&#x41a;" horiz-adv-x="1230" d="M175 0v1499h130v-646h293q214 0 285 236l123 406h121l-115 -404q-73 -241 -221 -289q105 -24 162.5 -95t89.5 -188l145 -519h-128l-142 495q-43 140 -119 194t-181 54h-313v-743h-130z" />
<glyph unicode="&#x41b;" horiz-adv-x="1349" d="M21 46q167 63 241 187q71 120 96 378q11 107 33 531l17 357h767v-1499h-134v1396h-524l-11 -244q-20 -439 -34 -568q-31 -294 -120 -432q-96 -151 -304 -200z" />
<glyph unicode="&#x41c;" horiz-adv-x="1739" d="M175 0v1495h145q82 -180 236 -529t228 -512l79 -182h11q9 17 82 184q89 202 262 584t206 455h138v-1495h-125q0 207 -1 623.5t-1 625.5h-4l-101 -228q-48 -107 -136 -298.5t-153.5 -336.5t-111.5 -250h-124q-60 136 -174 381q-50 119 -230 511l-96 223h-6v-1251h-124z " />
<glyph unicode="&#x41d;" horiz-adv-x="1371" d="M175 0v1497h134q0 -59 -1 -325.5t-1 -325.5h756v651h133v-1497h-133v736h-756q0 -65 1 -367t1 -369h-134z" />
<glyph unicode="&#x41e;" horiz-adv-x="1480" d="M132 736q0 127 19.5 239t65.5 213.5t116 174t177.5 115t243.5 42.5q137 0 243 -43t172 -114.5t107.5 -174t57.5 -210.5t16 -235q0 -163 -38 -300.5t-111 -239.5t-187.5 -159.5t-259.5 -58.5q-167 0 -287.5 51.5t-193.5 151t-107 234.5t-34 314zM265 732 q0 -322 116.5 -484t365.5 -162q116 0 207 50.5t147.5 140t84.5 206t28 253.5q0 684 -460 684q-489 0 -489 -688z" />
<glyph unicode="&#x41f;" horiz-adv-x="1371" d="M175 0v1499h1021v-1499h-133v1387h-756l2 -1387h-134z" />
<glyph unicode="&#x420;" horiz-adv-x="1150" d="M175 0v1499h463q200 0 324.5 -109.5t124.5 -315.5q0 -58 -11.5 -114.5t-42 -117t-78 -105.5t-124.5 -74.5t-174 -29.5h-352l2 -633h-132zM305 734h337q61 0 113 16t98.5 52.5t73 104t26.5 160.5q0 160 -88.5 244.5t-228.5 84.5h-331v-662z" />
<glyph unicode="&#x421;" horiz-adv-x="1246" d="M132 738q0 105 16 205.5t59.5 208t111 187t181 130.5t259.5 51q224 0 372 -58l-31 -99q-158 53 -331 53q-253 0 -378.5 -179.5t-125.5 -500.5q0 -111 11.5 -199.5t44.5 -174.5t87.5 -144t146 -93t214.5 -35q71 0 177 13t187 37l26 -92q-73 -29 -190.5 -46t-221.5 -17 q-134 0 -238.5 35t-175 98t-116 157.5t-65.5 208t-20 254.5z" />
<glyph unicode="&#x422;" horiz-adv-x="1173" d="M42 1394v105h1089v-105h-478l-2 -1394h-128v1394h-481z" />
<glyph unicode="&#x423;" horiz-adv-x="1171" d="M50 1497h130q10 -27 114.5 -289t136.5 -338q9 -23 74 -195.5t87 -227.5h8q136 366 138 373q106 271 255 677h132l-500 -1300q-83 -212 -255 -212q-114 0 -226 30l29 106q136 -27 168 -27q65 0 104 32t70 115l44 123h-49q-7 19 -204 505.5t-256 627.5z" />
<glyph unicode="&#x424;" horiz-adv-x="1715" d="M96 761q0 110 42.5 209.5t126 182.5t223 136t319.5 61v147h124v-147q146 -5 264.5 -40t196 -90.5t130 -130t75 -154t22.5 -168.5q0 -246 -184.5 -408t-503.5 -175v-184h-124v184q-362 16 -536.5 166.5t-174.5 410.5zM224 756q0 -224 149 -342.5t434 -131.5v967 q-153 -8 -268 -50.5t-182.5 -111t-100 -151.5t-32.5 -180zM931 282q261 10 411.5 144.5t150.5 334.5q0 58 -12 112t-37 108.5t-69.5 99.5t-104.5 81.5t-146.5 59t-192.5 27.5v-967z" />
<glyph unicode="&#x425;" horiz-adv-x="1156" d="M29 0q441 724 471 776q-229 379 -441 721h144q133 -226 378 -631l379 631h142q-86 -139 -243.5 -393t-205.5 -333l474 -771h-145l-407 679l-406 -679h-140z" />
<glyph unicode="&#x426;" horiz-adv-x="1419" d="M175 0v1495h130v-1397h758v1397h131l2 -1397h147v-451h-107v353h-1061z" />
<glyph unicode="&#x427;" horiz-adv-x="1286" d="M119 935v560h130v-520q0 -137 74.5 -202t232.5 -65q102 0 218.5 20.5t207.5 60.5v706h129v-1495h-129v682q-109 -40 -233.5 -60t-211.5 -20q-204 0 -311 91t-107 242z" />
<glyph unicode="&#x428;" horiz-adv-x="1923" d="M175 0v1497h128v-1399h598v1399h129v-1399h587v1399h129l2 -1497h-1573z" />
<glyph unicode="&#x429;" horiz-adv-x="1972" d="M175 0v1497h128v-1399h598v1399h129v-1399h587v1399h131v-1399h148v-451h-108v353h-1613z" />
<glyph unicode="&#x42a;" horiz-adv-x="1616" d="M29 1394v103h635v-634h407q118 0 209 -36.5t144 -98.5t79.5 -136.5t26.5 -157.5q0 -209 -122.5 -321.5t-313.5 -112.5h-561l2 1394h-506zM664 98h419q139 0 226 86.5t87 246.5q0 89 -28.5 156t-78 104.5t-106.5 55.5t-120 18h-399v-667z" />
<glyph unicode="&#x42b;" horiz-adv-x="1667" d="M175 0v1499h130v-636h405q119 0 210 -37t144 -100t80 -137.5t27 -157.5q0 -207 -123.5 -319t-313.5 -112h-559zM305 98h416q139 0 228.5 87t89.5 246q0 89 -30 156t-79.5 104.5t-107.5 55.5t-121 18h-396v-667zM1365 0v1499h128v-1499h-128z" />
<glyph unicode="&#x42c;" horiz-adv-x="1257" d="M175 0v1499h130v-636h405q119 0 210 -37t144 -100t80 -137.5t27 -157.5q0 -207 -123.5 -319t-313.5 -112h-559zM305 98h416q139 0 228.5 87t89.5 246q0 89 -30 156t-79.5 104.5t-107.5 55.5t-121 18h-396v-667z" />
<glyph unicode="&#x42d;" horiz-adv-x="1226" d="M61 46l27 96q180 -52 357 -52q120 0 211.5 36.5t148 97t92.5 148.5t50 181t15 206q-589 -12 -607 -12v114l607 -10q-14 565 -479 565q-167 0 -341 -53l-25 96q67 25 167.5 43t195.5 18q147 0 259 -43t178 -111.5t108 -167.5t56.5 -195.5t14.5 -209.5q0 -139 -21.5 -258.5 t-70 -221.5t-121 -174.5t-180 -113t-241.5 -40.5q-244 0 -401 61z" />
<glyph unicode="&#x42e;" horiz-adv-x="1932" d="M175 0v1497h128v-660h326q46 681 598 681q137 0 240.5 -43t165.5 -114t101 -174.5t53 -210t14 -236.5t-21.5 -243t-67 -207t-112.5 -161t-161.5 -105t-211.5 -39q-162 0 -279 51.5t-187 151.5t-102 235.5t-32 314.5h-324v-738h-128zM759 730q0 -327 107 -487t353 -160 q94 0 170 33.5t127.5 92.5t86 141t50 178t15.5 206q0 73 -3.5 134.5t-15 133.5t-30.5 129.5t-53 112.5t-79.5 92t-111.5 59.5t-148 22.5q-96 0 -171.5 -26.5t-125.5 -76t-85 -111.5t-53 -143.5t-25.5 -159.5t-7.5 -171z" />
<glyph unicode="&#x42f;" horiz-adv-x="1250" d="M88 0l127 447q31 102 81 166.5t133 91.5q-134 33 -200 137t-66 243q0 183 110.5 298.5t328.5 115.5h474v-1499h-129v673h-265q-60 0 -109.5 -11t-95 -37.5t-80 -75.5t-56.5 -120l-124 -429h-129zM293 1081q0 -85 25 -146t70 -94.5t100.5 -49t122.5 -15.5h336v618h-332 q-144 0 -233 -80t-89 -233z" />
<glyph unicode="&#x430;" horiz-adv-x="1108" d="M88 280q0 142 95 223t254 91l334 17v88q0 153 -51.5 215.5t-193.5 62.5q-153 0 -333 -63l-30 85q190 82 389 82q169 0 254.5 -82t85.5 -267v-636h145q0 -2 6 -71q-71 -36 -160 -36q-62 0 -88.5 30t-23.5 102q-2 2 -4 2q-60 -47 -117.5 -77t-108 -41.5t-79 -14.5t-65.5 -3 q-70 0 -124.5 18.5t-88.5 47.5t-56.5 68t-31 78.5t-8.5 80.5zM219 293q0 -107 54.5 -159.5t169.5 -52.5q145 0 328 151v291l-304 -17q-121 -4 -184.5 -60.5t-63.5 -152.5z" />
<glyph unicode="&#x431;" horiz-adv-x="1066" d="M88 508q6 392 23 487q69 334 399 467q314 128 358 150q30 -54 44 -82q-119 -62 -362 -160q-171 -70 -250.5 -197t-98.5 -332q3 0 6 -2q52 99 145.5 158t212.5 59q92 0 164 -30t118 -79.5t76 -119t42 -143.5t12 -158q0 -82 -12.5 -155.5t-45 -145.5t-83 -124t-131.5 -84 t-186 -32q-101 0 -178.5 31.5t-124.5 82t-77 121t-40.5 140.5t-10.5 148zM215 506q0 -66 6 -119.5t26.5 -113.5t53.5 -100t92.5 -67t139.5 -27q318 0 318 438q0 62 -6.5 117.5t-26.5 117.5t-52 106.5t-88 74t-130 29.5t-132.5 -29t-95 -75t-61.5 -107.5t-34.5 -122 t-9.5 -122.5z" />
<glyph unicode="&#x432;" horiz-adv-x="1031" d="M129 0v1067h443q166 0 254 -74t88 -196q0 -162 -151 -234q99 -33 142.5 -108t43.5 -160q0 -129 -93.5 -212t-228.5 -83h-498zM249 98h336q123 0 183 61t60 150q0 84 -64.5 141.5t-178.5 57.5h-336v-410zM249 600h316q101 0 163.5 51.5t62.5 132.5q0 85 -60.5 134.5 t-184.5 49.5h-297v-368z" />
<glyph unicode="&#x433;" horiz-adv-x="838" d="M129 0v1067h695v-99h-577v-968h-118z" />
<glyph unicode="&#x434;" horiz-adv-x="1167" d="M33 96h88q34 25 61.5 63.5t46 78t33 101.5t23 111t15.5 129.5t10.5 133.5t7.5 146l10 208h663v-971h94v-387h-98v291h-853v-291h-101v387zM270 96h598v872h-429l-8 -127q-5 -111 -9 -164.5t-11.5 -142.5t-17.5 -138.5t-26.5 -112t-40.5 -106.5t-56 -81z" />
<glyph unicode="&#x435;" horiz-adv-x="1064" d="M107 529q0 42 3.5 86t16 101t32.5 106.5t54.5 98.5t80 84.5t112.5 57.5t148 22q68 0 124 -14.5t95.5 -36t71.5 -57t51.5 -66.5t33.5 -77t20.5 -75.5t10 -74.5t3.5 -61v-48v-65h-730q-4 -427 329 -427q92 0 168.5 19.5t171.5 62.5l32 -84q-182 -96 -376 -96 q-106 0 -186.5 29t-130 77t-80.5 119t-43 147.5t-12 171.5zM236 598h610q0 90 -14.5 159.5t-47 123.5t-89.5 83t-139 29q-286 0 -320 -395z" />
<glyph unicode="&#x436;" horiz-adv-x="1555" d="M55 0l118 368q28 82 66.5 131t109.5 70q-53 21 -88 71t-64 131q-17 55 -50 155t-46 143h114l101 -295q19 -55 44.5 -89t61 -49t64 -19t73.5 -4h158v456h120v-456h156q46 0 74.5 4t63.5 19t60.5 49t44.5 89l100 295h117l-98 -298q-28 -81 -63 -131t-89 -71q71 -21 110 -70 t67 -131l119 -368h-121l-113 349q-18 58 -45 94t-64.5 52t-71 21t-85.5 5h-162v-521h-120v521h-165q-51 0 -84.5 -5t-70.5 -21t-64 -51.5t-46 -92.5q-22 -67 -61.5 -189t-52.5 -162h-118z" />
<glyph unicode="&#x437;" horiz-adv-x="950" d="M52 50q14 51 31 84q162 -57 316 -57q155 0 243 60.5t88 184.5q0 72 -44 121.5t-107 70.5t-138 21h-156v88h133q121 0 198.5 48.5t77.5 145.5q0 84 -65 129t-188 45q-148 0 -320 -69q-26 77 -29 84q77 36 175 58.5t189 22.5q168 0 264.5 -67.5t96.5 -191.5 q0 -89 -54 -152.5t-138 -88.5v-4q99 -22 163.5 -91.5t64.5 -173.5q0 -160 -121.5 -246.5t-315.5 -86.5q-95 0 -195 17.5t-169 47.5z" />
<glyph unicode="&#x438;" horiz-adv-x="1086" d="M129 0v1067h118v-885h10q9 14 60 93.5t78 119.5q45 69 153.5 233t195 293.5t95.5 145.5h119v-1067h-121v895h-7q-15 -22 -38.5 -58.5t-59.5 -94t-61 -96.5q-345 -525 -428 -646h-114z" />
<glyph unicode="&#x439;" horiz-adv-x="1086" d="M129 0v1067h118v-885h10q9 14 60 93.5t78 119.5q45 69 153.5 233t195 293.5t95.5 145.5h119v-1067h-121v895h-7q-15 -22 -38.5 -58.5t-59.5 -94t-61 -96.5q-345 -525 -428 -646h-114zM190 1416l80 54q57 -81 125 -128t134 -47q137 0 301 162l46 -39q-162 -228 -355 -228 q-178 0 -331 226z" />
<glyph unicode="&#x43a;" horiz-adv-x="1002" d="M129 0v1071h118v-458h238q71 0 124 34.5t83 126.5q58 180 101 295h114q-10 -31 -47.5 -147.5t-48.5 -147.5q-28 -82 -62.5 -132.5t-89.5 -72.5q72 -20 111 -68t67 -131l119 -370h-119q-14 40 -59 179t-57 174v-2q-33 97 -89 133.5t-137 36.5h-248v-521h-118z" />
<glyph unicode="&#x43b;" horiz-adv-x="1058" d="M9 50q156 60 198 195.5t64 489.5q3 53 5 80l15 252h638v-1067h-122v968h-410l-12 -161q-2 -27 -5 -80q-8 -114 -12 -169.5t-15.5 -146t-25 -136.5t-38.5 -108t-58 -95t-81 -63.5t-110 -45.5z" />
<glyph unicode="&#x43c;" horiz-adv-x="1364" d="M129 0v1067h132q36 -67 155 -302t180 -349l96 -188h2l141 289q32 64 147 295t127 255h127v-1067h-119v853h-4q-12 -25 -37 -80t-39 -83q-19 -39 -146.5 -291t-152.5 -303h-92l-320 612l-77 153h-6v-861h-114z" />
<glyph unicode="&#x43d;" horiz-adv-x="1073" d="M129 0v1067h124v-449h569v449h123v-1067h-123v517h-573v-517h-120z" />
<glyph unicode="&#x43e;" horiz-adv-x="1106" d="M107 523q0 87 15 165.5t49 152t86 127t130 85.5t176 32q99 0 177.5 -32t126.5 -84.5t79 -126.5t43.5 -150.5t12.5 -162.5q0 -85 -12.5 -159.5t-44.5 -146.5t-82.5 -123.5t-130.5 -83t-184 -31.5q-100 0 -177 29.5t-126 78.5t-80.5 119t-44.5 146t-13 165zM234 521 q0 -94 13 -165t46.5 -136.5t101.5 -101t168 -35.5q311 0 311 440q0 68 -7 127t-27 123.5t-53.5 109.5t-90.5 74.5t-133 29.5t-135 -28t-95 -72.5t-59 -106.5t-31.5 -124.5t-8.5 -134.5z" />
<glyph unicode="&#x43f;" horiz-adv-x="1075" d="M129 0v1065h816v-1065h-123v968h-569v-968h-124z" />
<glyph unicode="&#x440;" horiz-adv-x="1088" d="M129 -460v1527h114q0 -9 2 -53t2 -52l10 -6q73 57 160.5 91t174.5 34q85 0 152 -27.5t111 -74.5t72.5 -115t40 -144.5t11.5 -167.5q0 -123 -23 -223t-70.5 -178.5t-130 -122t-194.5 -43.5q-183 0 -312 80v-525h-120zM249 169q51 -35 135.5 -61.5t161.5 -26.5 q141 0 225 112t84 363q0 228 -76.5 324.5t-219.5 96.5q-71 0 -164.5 -39t-145.5 -89v-680z" />
<glyph unicode="&#x441;" horiz-adv-x="974" d="M107 517q0 74 10.5 145t42.5 150.5t81 138t135 97.5t199 39q173 0 299 -54l-33 -92q-123 43 -258 43q-171 0 -260 -123t-89 -335q0 -440 331 -440q82 0 154 17t164 54l33 -84q-160 -88 -357 -88q-99 0 -176 26t-128.5 72t-85 113.5t-48 146.5t-14.5 174z" />
<glyph unicode="&#x442;" horiz-adv-x="933" d="M31 968v99h870v-99h-372v-968h-121v968h-377z" />
<glyph unicode="&#x443;" horiz-adv-x="950" d="M-2 -443l19 92q118 -23 176 -23q69 0 109 29t72 128l73 221h-64q-35 115 -181 558t-167 505h120q17 -56 109 -342.5t110 -350.5l93 -291h8l92 296q35 108 112 352.5t107 335.5h126q-24 -71 -119.5 -366t-182.5 -560t-121 -365q-39 -124 -101.5 -187.5t-168.5 -63.5 q-4 0 -21.5 1t-28.5 1.5t-33 2.5t-40.5 5.5t-44.5 9t-53 12.5z" />
<glyph unicode="&#x444;" horiz-adv-x="1403" d="M88 521q0 120 32 217.5t97 173.5t174 119.5t253 49.5l-2 471h119v-471q145 -2 253 -42t174 -112t97.5 -166.5t31.5 -214.5q0 -93 -18 -173t-60 -150t-105.5 -119.5t-158 -81.5t-214.5 -37v-439h-119l2 439q-125 5 -221.5 34.5t-159 76.5t-102.5 114.5t-56.5 143 t-16.5 167.5zM207 529q0 -102 21 -178.5t70 -138t135.5 -95.5t210.5 -38v905q-122 -6 -209 -42.5t-136 -99.5t-70.5 -139.5t-21.5 -173.5zM761 79q435 19 435 456q0 77 -11 139.5t-41 121t-78 98t-125.5 64t-179.5 26.5v-905z" />
<glyph unicode="&#x445;" horiz-adv-x="889" d="M15 0q41 64 164 259.5t191 301.5q-19 31 -320 506h138l255 -423q44 71 128 212t128 211h136q-50 -78 -158.5 -245.5t-163.5 -256.5q71 -110 201 -314t160 -251h-140l-291 483q-170 -282 -296 -483h-132z" />
<glyph unicode="&#x446;" horiz-adv-x="1132" d="M129 0v1067h120v-969h573v969h121v-969h120v-389h-101v291h-833z" />
<glyph unicode="&#x447;" horiz-adv-x="1014" d="M90 743v324h121v-289q0 -69 7 -112.5t27.5 -80.5t62 -53.5t106.5 -16.5q88 0 182 25.5t167 80.5v448h122v-1069h-122v519q-162 -105 -372 -105q-60 0 -107.5 10.5t-78.5 28t-53.5 44.5t-34 53t-18 62.5t-8 64t-1.5 66.5z" />
<glyph unicode="&#x448;" horiz-adv-x="1507" d="M132 0v1067h117v-969h443v969h123v-969h443v969h122v-1067h-1248z" />
<glyph unicode="&#x449;" horiz-adv-x="1553" d="M132 0v1067h117v-969h443v969h123v-969h443v969h122v-969h119v-389h-101v291h-1266z" />
<glyph unicode="&#x44a;" horiz-adv-x="1311" d="M29 968v99h508v-416h360q93 0 163 -29.5t109.5 -78t58.5 -103.5t19 -114q0 -151 -96 -238.5t-241 -87.5h-494v968h-387zM537 96h358q103 0 167.5 61t64.5 167q0 118 -72 175t-179 57h-339v-460z" />
<glyph unicode="&#x44b;" horiz-adv-x="1344" d="M129 0v1067h120v-416h360q93 0 164 -29.5t110 -78t58 -103.5t19 -114q0 -151 -96 -238.5t-241 -87.5h-494zM249 98h360q103 0 166.5 60t63.5 166q0 118 -71 175t-178 57h-341v-458zM1096 0v1067h123v-1067h-123z" />
<glyph unicode="&#x44c;" horiz-adv-x="1025" d="M129 0v1067h120v-416h360q93 0 164 -29.5t110 -78t58 -103.5t19 -114q0 -151 -96 -238.5t-241 -87.5h-494zM249 98h360q103 0 166.5 60t63.5 166q0 118 -71 175t-178 57h-341v-458z" />
<glyph unicode="&#x44d;" horiz-adv-x="966" d="M48 71l33 80q89 -38 157 -54t153 -16q113 0 192.5 63.5t115 161t35.5 220.5l-452 -5v94l452 -8q-6 181 -90.5 282.5t-244.5 101.5q-142 0 -274 -46l-31 80q138 62 309 62q111 0 194.5 -33t132.5 -84.5t79.5 -124t41 -141t10.5 -145.5q0 -116 -26 -215.5t-79.5 -181.5 t-146 -129.5t-214.5 -47.5q-187 0 -347 86z" />
<glyph unicode="&#x44e;" horiz-adv-x="1432" d="M129 0v1067h118v-460h211q6 77 25 145t54 130t84.5 106.5t121 70.5t158.5 26q96 0 171.5 -32.5t122 -85.5t77 -127.5t42.5 -150t12 -160.5q0 -84 -12.5 -158t-44 -146t-80 -124t-127.5 -84t-179 -32q-97 0 -171.5 30.5t-122 80.5t-77.5 120.5t-42.5 144t-13.5 158.5h-209 v-519h-118zM581 521q0 -74 6 -131t26 -117.5t54 -100t93.5 -65.5t140.5 -26q72 0 127 28t86.5 71t52 103t27.5 117.5t7 122.5q0 67 -6.5 125t-26.5 123t-51.5 110.5t-87 75.5t-128.5 30q-74 0 -131.5 -28t-92.5 -73t-57 -107.5t-30.5 -125t-8.5 -132.5z" />
<glyph unicode="&#x44f;" horiz-adv-x="1044" d="M71 0l109 322q23 69 55.5 112t92.5 66v2q-100 30 -147 99t-47 162q0 60 20 113t62 95.5t112 68t161 25.5h425v-1065h-121v462h-247q-97 0 -156.5 -34t-90.5 -125l-104 -303h-124zM257 765q0 -109 70 -157.5t179 -48.5h287v409h-289q-247 0 -247 -203z" />
<glyph unicode="&#x451;" horiz-adv-x="1064" d="M107 529q0 42 3.5 86t16 101t32.5 106.5t54.5 98.5t80 84.5t112.5 57.5t148 22q68 0 124 -14.5t95.5 -36t71.5 -57t51.5 -66.5t33.5 -77t20.5 -75.5t10 -74.5t3.5 -61v-48v-65h-730q-4 -427 329 -427q92 0 168.5 19.5t171.5 62.5l32 -84q-182 -96 -376 -96 q-106 0 -186.5 29t-130 77t-80.5 119t-43 147.5t-12 171.5zM236 598h610q0 90 -14.5 159.5t-47 123.5t-89.5 83t-139 29q-286 0 -320 -395zM285 1341q0 32 23.5 55.5t55.5 23.5q36 0 59.5 -22.5t23.5 -56.5q0 -33 -23.5 -54.5t-59.5 -21.5q-33 0 -56 22t-23 54zM644 1341 q0 33 23 56t54 23q35 0 59.5 -22.5t24.5 -56.5q0 -32 -24.5 -54t-59.5 -22q-33 0 -55 21.5t-22 54.5z" />
<glyph unicode="&#x452;" horiz-adv-x="1088" d="M13 1219v76h125v259h123v-259h469v-76h-469v-288q207 90 357 90q183 0 276 -131.5t93 -416.5q0 -92 -13 -167t-45.5 -143t-84 -114t-131.5 -72.5t-184 -26.5v87q115 4 187 44.5t109.5 137.5t37.5 258q0 126 -18.5 214.5t-56.5 138.5t-86.5 71t-116.5 21q-131 0 -324 -87 v-835h-123v1219h-125z" />
<glyph unicode="&#x453;" horiz-adv-x="838" d="M129 0v1067h695v-99h-577v-968h-118zM341 1280l246 337l99 -87l-287 -298z" />
<glyph unicode="&#x454;" horiz-adv-x="985" d="M107 515q0 73 10.5 144.5t42.5 151.5t81 139t134.5 98t196.5 39q170 0 302 -54l-33 -92q-125 43 -258 43q-158 0 -246.5 -106.5t-100.5 -292.5l446 11v-96l-448 6q8 -423 329 -423q84 0 156 17.5t164 54.5l33 -82q-156 -86 -357 -86q-122 0 -211.5 39t-141 111.5 t-75.5 165.5t-24 212z" />
<glyph unicode="&#x455;" horiz-adv-x="937" d="M92 65l42 88q147 -72 315 -72q126 0 202.5 49t76.5 150q0 37 -15 68t-36 51t-59.5 40t-67 31.5t-77.5 27.5t-76.5 25.5t-70 27t-67.5 32.5t-54.5 38t-45 48t-26 59t-10.5 72q0 143 102 214t260 71q68 0 150.5 -16t146.5 -50q-32 -81 -37 -90q-140 55 -262 55 q-107 0 -174.5 -46t-67.5 -141q0 -38 23 -70.5t65 -56t76 -37t82 -28.5q156 -51 215 -83q138 -78 144 -223v-17q0 -148 -110.5 -222.5t-286.5 -74.5q-98 0 -194.5 20.5t-162.5 59.5z" />
<glyph unicode="&#x456;" horiz-adv-x="492" d="M157 1341q0 37 26 64.5t62 27.5q37 0 63.5 -27.5t26.5 -64.5q0 -36 -26.5 -62t-63.5 -26q-35 0 -61.5 26t-26.5 62zM184 0v1067h123v-1067h-123z" />
<glyph unicode="&#x457;" horiz-adv-x="492" d="M-9 1326q0 32 24 55.5t56 23.5q36 0 59 -22.5t23 -56.5q0 -33 -23 -55t-59 -22q-34 0 -57 22t-23 55zM184 0v1067h123v-1067h-123zM351 1326q0 33 22.5 56t53.5 23q35 0 59 -22.5t24 -56.5q0 -33 -24.5 -55t-58.5 -22q-33 0 -54.5 22t-21.5 55z" />
<glyph unicode="&#x458;" horiz-adv-x="512" d="M-55 -387q155 85 205.5 163t50.5 218l-2 1073h123v-1071q-3 -128 -33.5 -209.5t-102.5 -143.5t-203 -116zM175 1341q0 37 26 64.5t62.5 27.5t63 -27.5t26.5 -64.5q0 -35 -26.5 -61.5t-63.5 -26.5q-35 0 -61.5 26t-26.5 62z" />
<glyph unicode="&#x459;" horiz-adv-x="1636" d="M9 50q161 59 203.5 203t64.5 548q1 10 1 14l13 252h568v-414h360q94 0 165 -29.5t110 -79t58 -104t19 -114.5q0 -151 -96 -238.5t-241 -87.5h-496v968h-341l-10 -161q-17 -329 -36 -445q-35 -218 -138 -312q-67 -62 -173 -87zM859 98h360q104 0 168 60t64 166 q0 118 -71.5 175t-178.5 57h-342v-458z" />
<glyph unicode="&#x45a;" horiz-adv-x="1623" d="M132 0v1067h117v-427h481l-2 427h121v-427h347q94 0 166 -26.5t113.5 -72.5t62 -101.5t20.5 -119.5q0 -149 -94.5 -234.5t-240.5 -85.5h-493v544h-481v-544h-117zM849 98h358q105 0 169 57.5t64 164.5q0 115 -71 169.5t-179 54.5h-341v-446z" />
<glyph unicode="&#x45b;" horiz-adv-x="1097" d="M4 1214v76h147v266h123v-266h427v-76h-427v-292q110 59 216.5 93.5t182.5 34.5q59 0 105.5 -11.5t77 -28.5t52.5 -45.5t32.5 -54t17 -63.5t7.5 -63.5t1 -64.5v-719h-123v682q0 69 -6 110.5t-25.5 80.5t-62.5 56.5t-111 17.5q-147 0 -362 -119v-828h-125v1214h-147z" />
<glyph unicode="&#x45c;" horiz-adv-x="1002" d="M129 0v1071h118v-458h238q71 0 124 34.5t83 126.5q58 180 101 295h114q-10 -31 -47.5 -147.5t-48.5 -147.5q-28 -82 -62.5 -132.5t-89.5 -72.5q72 -20 111 -68t67 -131l119 -370h-119q-14 40 -59 179t-57 174v-2q-33 97 -89 133.5t-137 36.5h-248v-521h-118zM399 1238 l245 338l99 -88l-287 -298z" />
<glyph unicode="&#x45e;" horiz-adv-x="950" d="M-2 -443l19 92q118 -23 176 -23q69 0 109 29t72 128l73 221h-64q-35 115 -181 558t-167 505h120q17 -56 109 -342.5t110 -350.5l93 -293h8q3 11 16 52t35 113t41 133q35 108 112 352.5t107 335.5h126q-24 -71 -119.5 -366t-182.5 -560t-121 -365q-39 -124 -101.5 -187.5 t-168.5 -63.5q-4 0 -21.5 1t-28.5 1.5t-33 2.5t-40.5 5.5t-44.5 9t-53 12.5zM134 1435l79 56q58 -82 125.5 -129t132.5 -47q139 0 303 162l46 -40q-163 -228 -356 -228q-177 0 -330 226z" />
<glyph unicode="&#x45f;" horiz-adv-x="1073" d="M129 0v1067h124v-969h571v969h121v-1067h-355v-307h-105v307h-356z" />
<glyph unicode="&#x490;" horiz-adv-x="1071" d="M175 0v1497h760v278h106v-377h-736v-1398h-130z" />
<glyph unicode="&#x491;" horiz-adv-x="841" d="M129 0v1067h590v221h92v-320h-564v-968h-118z" />
<glyph unicode="&#x4d9;" horiz-adv-x="1020" d="M94 495v64h728q4 428 -327 428q-92 0 -167 -18.5t-171 -58.5l-32 81q175 94 375 94q106 0 186 -28.5t129.5 -76.5t80 -119t42 -147t11.5 -170q0 -43 -3.5 -87.5t-16 -101t-32.5 -106.5t-55 -99.5t-80.5 -85t-113 -57.5t-148.5 -22q-406 0 -406 510zM215 475 q0 -186 66 -289t221 -103q289 0 318 392h-605z" />
<glyph unicode="&#x2013;" horiz-adv-x="1095" d="M61 506v101h978v-101h-978z" />
<glyph unicode="&#x2014;" horiz-adv-x="2191" d="M65 506v101h2051v-101h-2051z" />
<glyph unicode="&#x2018;" horiz-adv-x="441" d="M127 1269q0 73 50.5 157.5t123.5 129.5l30 -42q-75 -81 -78 -182q32 -6 50.5 -29.5t18.5 -58.5q0 -36 -27 -64t-65 -28q-46 0 -74.5 32.5t-28.5 84.5z" />
<glyph unicode="&#x2019;" horiz-adv-x="441" d="M129 1196q75 78 82 182q-33 7 -52 30t-19 56q0 38 27 66t65 28q46 0 73.5 -31.5t27.5 -84.5q0 -75 -48.5 -159t-121.5 -128z" />
<glyph unicode="&#x201a;" horiz-adv-x="370" d="M79 -207q37 41 56.5 94t21.5 104q-31 7 -50 30t-19 56q0 39 26.5 65.5t65.5 26.5q45 0 72.5 -31.5t27.5 -82.5q0 -76 -48 -166t-121 -134z" />
<glyph unicode="&#x201c;" horiz-adv-x="663" d="M125 1269q0 75 49.5 157.5t124.5 129.5q25 -32 32 -42q-75 -78 -82 -182q32 -6 51.5 -29.5t19.5 -58.5q0 -36 -27 -64t-65 -28q-46 0 -74.5 32.5t-28.5 84.5zM364 1269q0 73 50 157.5t123 129.5l32 -42q-77 -80 -80 -182q32 -6 51 -29.5t19 -58.5q0 -36 -27 -64t-65 -28 q-46 0 -74.5 32.5t-28.5 84.5z" />
<glyph unicode="&#x201d;" horiz-adv-x="663" d="M127 1196q77 77 84 182q-33 7 -52 30t-19 56q0 38 26.5 66t65.5 28q46 0 73.5 -31.5t27.5 -84.5q0 -75 -48.5 -159t-121.5 -128zM366 1196q78 82 81 182q-31 7 -49.5 30t-18.5 56q0 38 26 66t66 28q46 0 73.5 -31.5t27.5 -84.5q0 -75 -49 -159t-124 -128z" />
<glyph unicode="&#x201e;" horiz-adv-x="610" d="M79 -207q37 41 56.5 94t21.5 104q-31 7 -50 30t-19 56q0 39 26.5 65.5t65.5 26.5q45 0 72.5 -31.5t27.5 -82.5q0 -76 -48 -166t-121 -134zM322 -207q76 86 79 198q-32 7 -51 30.5t-19 55.5q0 39 26.5 65.5t65.5 26.5q45 0 72.5 -31.5t27.5 -82.5q0 -76 -47.5 -166 t-120.5 -134z" />
<glyph unicode="&#x2020;" horiz-adv-x="1010" d="M86 953v101h357v443h111v-443h358v-101h-358v-1078h-111v1078h-357z" />
<glyph unicode="&#x2021;" horiz-adv-x="1010" d="M86 299v100h357v554h-357v101h357v443h111v-443h358v-101h-358v-554h356v-100h-356v-424h-111v424h-357z" />
<glyph unicode="&#x2022;" horiz-adv-x="634" d="M125 594q0 81 55.5 138t135.5 57t136 -57t56 -138q0 -80 -56 -137.5t-136 -57.5q-78 0 -134.5 57.5t-56.5 137.5z" />
<glyph unicode="&#x2026;" horiz-adv-x="1248" d="M96 81q0 37 28.5 63.5t65.5 26.5t63.5 -26.5t26.5 -63.5t-27 -65.5t-63 -28.5q-37 0 -65.5 28.5t-28.5 65.5zM515 81q0 37 26.5 63.5t65.5 26.5q37 0 63.5 -26.5t26.5 -63.5t-27 -65.5t-63 -28.5q-38 0 -65 28.5t-27 65.5zM951 81q0 37 27.5 63.5t65 26.5t64.5 -26.5 t27 -63.5t-27.5 -65.5t-64.5 -28.5t-64.5 28.5t-27.5 65.5z" />
<glyph unicode="&#x2030;" horiz-adv-x="2600" d="M63 1010q0 64 7.5 121.5t30.5 120.5t60 108t102 74.5t151 29.5q63 0 114 -16t84.5 -42.5t59.5 -65t39.5 -76.5t22.5 -86t11 -85.5t2 -80.5q0 -65 -9.5 -124t-34 -116.5t-61 -100t-96.5 -68.5t-136 -26q-86 0 -149.5 25t-100.5 65t-59.5 99t-30 116t-7.5 128zM171 1008 q0 -63 5 -110.5t20.5 -95.5t41.5 -78t70.5 -48.5t105.5 -18.5q66 0 113.5 31t71 85.5t33.5 112t10 124.5q0 41 -2 73.5t-9 79t-22.5 81.5t-39 67t-64 49.5t-91.5 17.5q-243 0 -243 -370zM533 -50l628 1582h88l-624 -1582h-92zM1045 427q0 64 7.5 121.5t30.5 120.5t60 108 t102.5 74.5t150.5 29.5q63 0 114 -16t85 -42t59.5 -64.5t39.5 -76.5t22.5 -86t10.5 -85.5t2 -81.5q0 -65 -9.5 -124t-33.5 -117.5t-61.5 -101t-97.5 -69t-136 -26.5q-86 0 -149.5 26t-100.5 66t-59 99.5t-29.5 116.5t-7.5 128zM1152 425q0 -63 5.5 -111t21 -95t42 -77 t70.5 -48.5t105 -18.5q67 0 114 31t70.5 85t33.5 111.5t10 124.5q0 50 -2.5 89.5t-16 95.5t-36 93t-67.5 63.5t-106 26.5q-244 0 -244 -370zM1852 427q0 65 7.5 122t30 120t60 108t102 74.5t150.5 29.5q73 0 129.5 -20.5t92 -58t59 -80.5t34.5 -98t15 -99.5t4 -95.5 q0 -65 -9.5 -124t-34 -117.5t-61.5 -101t-97 -69t-136 -26.5q-86 0 -149.5 26t-100.5 66t-59 99.5t-29.5 116.5t-7.5 128zM1959 425q0 -63 5 -111t20.5 -95t41.5 -77t70.5 -48.5t105.5 -18.5q66 0 113.5 31t71 85t33.5 111.5t10 124.5q0 50 -2.5 89.5t-16 95.5t-36 93 t-67.5 63.5t-106 26.5q-243 0 -243 -370z" />
<glyph unicode="&#x2039;" horiz-adv-x="669" d="M142 364v79l310 331l54 -44l-236 -327l236 -326l-52 -42z" />
<glyph unicode="&#x203a;" horiz-adv-x="669" d="M136 77l236 326l-234 327l52 44l310 -331v-79l-312 -329z" />
<glyph unicode="&#x2044;" horiz-adv-x="234" d="M-236 -50l629 1582h87l-624 -1582h-92z" />
<glyph unicode="&#x20ac;" d="M61 600v73h897v-73h-676q5 -89 20.5 -161t49 -139t84.5 -112.5t129.5 -72.5t181.5 -27q152 0 347 48l21 -94q-67 -25 -178.5 -41t-204.5 -16q-279 0 -418.5 161t-153.5 454h-99zM61 793v70h104q8 90 30.5 172t67.5 163.5t107.5 140t158 95t211.5 36.5q204 0 354 -59 l-27 -94q-144 50 -322 50q-205 0 -319.5 -133.5t-138.5 -370.5h671v-70h-897z" />
<glyph unicode="&#x2116;" horiz-adv-x="2175" d="M175 0v1497h132q47 -70 178 -275.5t289.5 -453.5t176.5 -277l166 -272h10v1278h126v-1497h-126q-337 521 -647 1014l-171 283q-1 0 -4 -1t-4 -1v-1295h-126zM1428 1125q0 55 10.5 106.5t34 100t59.5 83.5t91 56.5t123 21.5q86 0 148 -31.5t94.5 -86t47.5 -116t15 -132.5 q0 -56 -8.5 -105t-30.5 -97.5t-55.5 -82t-89 -54.5t-127.5 -21q-69 0 -123.5 19.5t-89 52.5t-57 79.5t-32.5 97.5t-10 109zM1433 563v94h614v-94h-614zM1527 1122q0 -59 8 -103.5t30.5 -86.5t68 -64t112.5 -22q205 0 205 279q0 42 -4.5 79t-18 78t-35.5 69.5t-59 47.5 t-88 19t-90.5 -18t-63 -46t-39 -68.5t-21 -79.5t-5.5 -84z" />
<glyph unicode="&#x2122;" horiz-adv-x="1487" d="M83 1424v71h538v-71h-228v-607h-88v607h-222zM701 815v680h90l106 -215l126 -264l148 301q80 163 87 178h87v-680h-80v528h-2q-69 -137 -106 -208l-101 -208h-72q-19 38 -52 107.5t-47 98.5q-68 133 -99 203h-2v-521h-83z" />
<glyph unicode="&#x2202;" horiz-adv-x="1180" d="M121 464q0 215 124.5 348t315.5 133q93 0 199 -39.5t187 -125.5q-1 334 -136 522.5t-364 188.5q-69 0 -121 -8l-2 88q70 12 140 12q123 0 224 -43.5t169.5 -119t115 -180.5t67 -224t20.5 -253q0 -372 -136 -578t-363 -206q-196 0 -318 126t-122 359zM232 469 q0 -197 93.5 -294.5t239.5 -97.5q95 0 170.5 51.5t121 136t69 185.5t23.5 209q-165 192 -384 192q-106 0 -183.5 -54.5t-113.5 -140t-36 -187.5z" />
<glyph unicode="&#x220f;" horiz-adv-x="1371" d="M175 -199v1698h1021v-1698h-133v1586h-756l2 -1586h-134z" />
<glyph unicode="&#x2211;" horiz-adv-x="1148" d="M73 -105l416 787l-410 721v96h990v-101h-839l397 -695v-42l-403 -762h876v-98h-1027v94z" />
<glyph unicode="&#x221a;" horiz-adv-x="1158" d="M65 740l209 109q33 -111 95 -307.5t98 -315.5q6 -26 24 -81.5t26 -85.5h9l53 173q64 215 227.5 786.5t197.5 683.5h98q-75 -243 -264 -891t-259 -876h-121q-41 127 -119.5 378.5t-127.5 403.5q-42 -18 -115 -58q-24 63 -31 81z" />
<glyph unicode="&#x221e;" horiz-adv-x="1673" d="M127 552q0 130 92 218.5t233 88.5q102 0 199.5 -63t203.5 -173q60 60 94.5 91.5t90 70.5t111 56.5t118.5 17.5q137 0 224 -83.5t87 -214.5q0 -135 -96.5 -224.5t-236.5 -89.5q-92 0 -181 53t-215 180q-52 -51 -90 -85t-92 -72t-112 -57t-120 -19q-129 0 -219.5 90 t-90.5 215zM230 552q0 -91 64 -154t160 -63q81 0 165 59.5t174 151.5q-50 53 -79.5 81.5t-78.5 68t-96 57.5t-96 18q-92 0 -152.5 -64.5t-60.5 -154.5zM916 552q117 -119 158 -151q86 -66 177 -66q95 0 159 67t64 157q0 98 -64 155t-154 57q-44 0 -92 -19.5t-94.5 -56.5 t-80 -68.5t-73.5 -74.5z" />
<glyph unicode="&#x222b;" horiz-adv-x="705" d="M0 -333l15 78q73 -13 123 -13q108 0 147 62t39 195q0 237 -35.5 651.5t-35.5 645.5q0 165 74.5 261.5t211.5 96.5q62 0 149 -20l-15 -81q-83 11 -114 11q-116 0 -161 -70.5t-45 -197.5q0 -237 37 -636.5t37 -660.5q0 -166 -69.5 -256t-202.5 -90q-64 0 -155 24z" />
<glyph unicode="&#x2248;" d="M151 500q69 148 194 148q68 0 252 -44.5t238 -44.5l123 92l48 -36q-64 -151 -186 -151q-85 0 -259 44t-230 44l-128 -94zM151 763q69 153 194 153q68 0 252 -45t238 -45l123 92l48 -33q-63 -153 -186 -153q-85 0 -259 45t-230 45l-128 -97z" />
<glyph unicode="&#x2260;" d="M163 456v94h264l213 217h-477v96h562l187 195l70 -50l-141 -145h161v-96h-246l-212 -217h458v-94h-544l-217 -228l-70 48l174 180h-182z" />
<glyph unicode="&#x2264;" d="M149 163v94h853v-94h-853zM153 719v88l849 324v-112l-726 -254q8 -4 184 -68.5t357.5 -130t184.5 -66.5v-115z" />
<glyph unicode="&#x2265;" d="M155 387v113l732 265q-10 2 -366 126.5t-366 127.5v112l853 -322v-90zM157 165v94h853v-94h-853z" />
<glyph unicode="&#x25ca;" horiz-adv-x="1141" d="M109 763l417 732h92l415 -732l-415 -763h-92zM221 763l354 -642l339 642l-339 611z" />
<glyph unicode="&#x25fc;" horiz-adv-x="1064" d="M0 0v1065h1065v-1065h-1065z" />
</font>
</defs>
</svg>
